<svg width="500" height="500" viewBox="0 0 500 500" fill="none" xmlns="http://www.w3.org/2000/svg">
<g clip-path="url(#clip0_4_603)">
<path d="M499.9 390.74H-0.100098V390.99H499.9V390.74Z" fill="#EBEBEB"/>
<path d="M85.4799 400.26H52.3599V400.51H85.4799V400.26Z" fill="#EBEBEB"/>
<path d="M213.57 397.55H171.04V397.8H213.57V397.55Z" fill="#EBEBEB"/>
<path d="M112.56 403.77H93.3699V404.02H112.56V403.77Z" fill="#EBEBEB"/>
<path d="M449.8 407.87H434.57V408.12H449.8V407.87Z" fill="#EBEBEB"/>
<path d="M425.66 407.87H391.37V408.12H425.66V407.87Z" fill="#EBEBEB"/>
<path d="M331.73 400.67H307.9V400.92H331.73V400.67Z" fill="#EBEBEB"/>
<path d="M236.9 346.14H43.8099C42.2972 346.137 40.8474 345.535 39.7787 344.464C38.7101 343.393 38.1099 341.943 38.1099 340.43V69C38.123 67.496 38.7291 66.0579 39.7963 64.9982C40.8636 63.9384 42.3058 63.3425 43.8099 63.34H236.9C238.414 63.34 239.867 63.9416 240.937 65.0124C242.008 66.0832 242.61 67.5356 242.61 69.05V340.43C242.61 341.944 242.008 343.397 240.937 344.468C239.867 345.538 238.414 346.14 236.9 346.14ZM43.8099 63.54C42.3635 63.5426 40.9773 64.119 39.9555 65.1427C38.9337 66.1664 38.3599 67.5536 38.3599 69V340.43C38.3599 341.876 38.9337 343.264 39.9555 344.287C40.9773 345.311 42.3635 345.887 43.8099 345.89H236.9C238.347 345.887 239.734 345.311 240.758 344.288C241.781 343.264 242.357 341.877 242.36 340.43V69C242.357 67.5527 241.781 66.1655 240.758 65.1421C239.734 64.1187 238.347 63.5426 236.9 63.54H43.8099Z" fill="#EBEBEB"/>
<path d="M453.21 346.14H260.11C258.596 346.137 257.146 345.535 256.075 344.465C255.005 343.394 254.403 341.944 254.4 340.43V69C254.416 67.4951 255.024 66.057 256.093 64.9976C257.162 63.9381 258.605 63.3425 260.11 63.34H453.21C454.712 63.3452 456.152 63.9422 457.217 65.0017C458.282 66.0612 458.887 67.4977 458.9 69V340.43C458.9 341.941 458.301 343.39 457.235 344.46C456.168 345.531 454.721 346.135 453.21 346.14ZM260.11 63.54C258.663 63.5426 257.275 64.1187 256.252 65.1421C255.229 66.1655 254.653 67.5527 254.65 69V340.43C254.653 341.877 255.229 343.264 256.252 344.288C257.275 345.311 258.663 345.887 260.11 345.89H453.21C454.657 345.887 456.044 345.311 457.068 344.288C458.091 343.264 458.667 341.877 458.67 340.43V69C458.667 67.5527 458.091 66.1655 457.068 65.1421C456.044 64.1187 454.657 63.5426 453.21 63.54H260.11Z" fill="#EBEBEB"/>
<path d="M412.62 385.6H436.68V237.18H412.62V385.6Z" fill="#F0F0F0"/>
<path d="M287.82 390.73H434.22V385.61H287.82V390.73Z" fill="#F0F0F0"/>
<path d="M412.63 237.19H285.71V385.61H412.63V237.19Z" fill="#F5F5F5"/>
<path d="M408.3 314.47H290.04V340.97H408.3V314.47Z" fill="#F0F0F0"/>
<path d="M408.3 349.16H290.04V375.66H408.3V349.16Z" fill="#F0F0F0"/>
<path d="M301.76 316.48H396.58C397.231 316.48 397.76 315.952 397.76 315.3V314.03C397.76 313.378 397.231 312.85 396.58 312.85H301.76C301.108 312.85 300.58 313.378 300.58 314.03V315.3C300.58 315.952 301.108 316.48 301.76 316.48Z" fill="#F5F5F5"/>
<path d="M301.76 351.16H396.58C397.231 351.16 397.76 350.632 397.76 349.98V348.71C397.76 348.058 397.231 347.53 396.58 347.53H301.76C301.108 347.53 300.58 348.058 300.58 348.71V349.98C300.58 350.632 301.108 351.16 301.76 351.16Z" fill="#F5F5F5"/>
<path d="M408.3 245.37H290.04V271.87H408.3V245.37Z" fill="#F0F0F0"/>
<path d="M408.3 279.78H290.04V306.28H408.3V279.78Z" fill="#F0F0F0"/>
<path d="M301.76 247.38H396.58C397.231 247.38 397.76 246.852 397.76 246.2V244.93C397.76 244.278 397.231 243.75 396.58 243.75H301.76C301.108 243.75 300.58 244.278 300.58 244.93V246.2C300.58 246.852 301.108 247.38 301.76 247.38Z" fill="#F5F5F5"/>
<path d="M301.76 281.79H396.58C397.231 281.79 397.76 281.262 397.76 280.61V279.34C397.76 278.688 397.231 278.16 396.58 278.16H301.76C301.108 278.16 300.58 278.688 300.58 279.34V280.61C300.58 281.262 301.108 281.79 301.76 281.79Z" fill="#F5F5F5"/>
<path d="M226.39 279.87H211.99V390.74H226.39V279.87Z" fill="#F0F0F0"/>
<path d="M67.94 390.74H211.99V279.87H67.94V390.74Z" fill="#F5F5F5"/>
<path d="M66.8 381H195.46V321.7H66.8V381Z" fill="#FAFAFA"/>
<path d="M66.8 315.42H195.46V295.9H66.8V315.42Z" fill="#FAFAFA"/>
<g opacity="0.7" style="mix-blend-mode:multiply">
<path d="M196.45 321.71H195.46V381.01H196.45V321.71Z" fill="#E6E6E6"/>
</g>
<g opacity="0.7" style="mix-blend-mode:multiply">
<path d="M196.45 295.89H195.46V315.41H196.45V295.89Z" fill="#E6E6E6"/>
</g>
<g opacity="0.7" style="mix-blend-mode:multiply">
<path d="M226.39 284.55H67.6199V287.06H226.39V284.55Z" fill="#E6E6E6"/>
</g>
<path d="M228.08 278.35H211.99V285.6H228.08V278.35Z" fill="#F0F0F0"/>
<path d="M66.26 285.61H211.99V278.36H66.26V285.61Z" fill="#F5F5F5"/>
<path d="M82.8199 206.66L309.87 206.66V88.4L82.8199 88.4L82.8199 206.66Z" fill="#E6E6E6"/>
<path d="M68.3798 83.8H318.58C318.932 83.8052 319.267 83.9487 319.514 84.1995C319.761 84.4502 319.9 84.788 319.9 85.14C319.897 85.4936 319.755 85.8319 319.504 86.0811C319.253 86.3302 318.913 86.47 318.56 86.47H68.3798C68.0261 86.47 67.6868 86.3302 67.4358 86.0811C67.1848 85.8319 67.0424 85.4936 67.0398 85.14C67.0398 84.7846 67.181 84.4438 67.4323 84.1925C67.6836 83.9412 68.0244 83.8 68.3798 83.8Z" fill="#E6E6E6"/>
<path d="M77.0999 206.66L307.19 206.66V88.4L77.0999 88.4L77.0999 206.66Z" fill="#F0F0F0"/>
<path d="M82.8099 206.66H309.86V210.45H78.8699L82.8099 206.66Z" fill="#E6E6E6"/>
<path d="M67.5699 206.66H297.67L293.73 210.45H63.6399L67.5699 206.66Z" fill="#F0F0F0"/>
<path d="M299.19 198.67V96.41L85.0999 96.41V198.67H299.19Z" fill="#FAFAFA"/>
<path d="M179.21 198.66L132.24 96.4H110.07L157.04 198.66H179.21Z" fill="white"/>
<path d="M152.28 198.66L105.31 96.4H96.6599L143.63 198.66H152.28Z" fill="white"/>
<path d="M86.1199 198.66V96.4H85.0999V198.66H86.1199Z" fill="#E6E6E6"/>
<g opacity="0.4">
<path d="M299.09 178.99H312.86V81.4H299.09V178.99Z" fill="#F0F0F0"/>
<path d="M293.73 178.99H304.46V81.4H293.73V178.99Z" fill="#E6E6E6"/>
<path d="M285.33 178.99H299.1V81.4H285.33V178.99Z" fill="#F0F0F0"/>
<path d="M279.96 178.99H290.69V81.4H279.96V178.99Z" fill="#E6E6E6"/>
<path d="M271.55 178.99H285.32V81.4H271.55V178.99Z" fill="#F0F0F0"/>
</g>
<g opacity="0.4">
<path d="M90.2199 178.99H98.1599L98.1599 81.4H90.2199L90.2199 178.99Z" fill="#F0F0F0"/>
<path d="M87.1398 178.99H93.3198L93.3198 81.4H87.1398L87.1398 178.99Z" fill="#E6E6E6"/>
<path d="M82.28 178.99H90.22L90.22 81.4H82.28L82.28 178.99Z" fill="#F0F0F0"/>
<path d="M79.1999 178.99H85.3799L85.3799 81.4H79.1999L79.1999 178.99Z" fill="#E6E6E6"/>
<path d="M74.3498 178.99H82.2898L82.2898 81.4H74.3498L74.3498 178.99Z" fill="#F0F0F0"/>
</g>
<path d="M354.92 194.33H430.2V93.65L354.92 93.65V194.33Z" fill="#E6E6E6"/>
<path d="M349.16 194.33H428.28V93.65L349.16 93.65V194.33Z" fill="#F5F5F5"/>
<path d="M421.65 100.28H355.79V187.71H421.65V100.28Z" fill="white"/>
<path d="M370.31 141.63C370.31 141.63 370.78 155.25 388.72 155.25C406.66 155.25 407.14 141.63 407.14 141.63H370.31Z" fill="#F0F0F0"/>
<path d="M405.21 130.56C405.216 131.425 404.988 132.275 404.55 133.02C404.123 132.274 403.506 131.654 402.763 131.223C402.019 130.792 401.175 130.565 400.315 130.565C399.455 130.565 398.611 130.792 397.867 131.223C397.124 131.654 396.507 132.274 396.08 133.02C395.639 132.275 395.407 131.425 395.41 130.56C395.41 129.26 395.926 128.014 396.845 127.095C397.764 126.176 399.01 125.66 400.31 125.66C401.609 125.66 402.856 126.176 403.775 127.095C404.694 128.014 405.21 129.26 405.21 130.56Z" fill="#F0F0F0"/>
<path d="M382.04 130.56C382.046 131.425 381.818 132.275 381.38 133.02C380.954 132.272 380.337 131.649 379.592 131.217C378.847 130.784 378.001 130.556 377.14 130.556C376.279 130.556 375.433 130.784 374.688 131.217C373.943 131.649 373.326 132.272 372.9 133.02C372.523 132.369 372.301 131.641 372.251 130.891C372.201 130.141 372.324 129.389 372.611 128.695C372.897 128 373.34 127.38 373.905 126.884C374.469 126.387 375.141 126.028 375.866 125.832C376.592 125.637 377.354 125.611 378.091 125.757C378.828 125.903 379.522 126.217 380.119 126.674C380.716 127.131 381.2 127.719 381.533 128.393C381.866 129.067 382.039 129.808 382.04 130.56Z" fill="#F0F0F0"/>
<path d="M339.09 211.41C339.305 209.864 339.241 208.293 338.9 206.77C338.595 205.307 338.122 203.884 337.49 202.53C337.2 201.843 336.866 201.174 336.49 200.53C336.141 199.873 335.757 199.235 335.34 198.62C334.91 198.01 334.53 197.36 334.08 196.76L332.69 194.98C332.233 194.373 331.742 193.792 331.22 193.24C330.72 192.66 330.22 192.07 329.71 191.51C328.62 190.42 327.61 189.25 326.49 188.15C325.37 187.05 324.3 185.91 323.16 184.8C322.02 183.69 320.87 182.57 319.8 181.31C321.319 181.901 322.808 182.568 324.26 183.31C325.689 184.094 327.075 184.955 328.41 185.89C329.107 186.344 329.775 186.842 330.41 187.38C331.05 187.9 331.67 188.44 332.29 188.97C333.496 190.11 334.629 191.326 335.68 192.61C337.857 195.223 339.443 198.276 340.33 201.56C340.76 203.224 340.908 204.947 340.77 206.66C340.664 208.369 340.082 210.014 339.09 211.41Z" fill="#E6E6E6"/>
<path d="M365.56 206.67C364.371 205.578 363.479 204.203 362.967 202.673C362.454 201.142 362.338 199.507 362.63 197.92C363.293 194.697 364.976 191.773 367.43 189.58C368.01 189.03 368.64 188.58 369.25 188.09C369.844 187.59 370.479 187.142 371.15 186.75C371.81 186.36 372.47 185.97 373.15 185.6C373.49 185.42 373.81 185.22 374.15 185.06L375.2 184.62C375.9 184.33 376.6 184.05 377.31 183.79L378.37 183.4C378.72 183.28 379.09 183.19 379.46 183.1C380.916 182.72 382.391 182.42 383.88 182.2C382.69 183.2 381.45 183.97 380.23 184.78C379.6 185.15 379.01 185.58 378.42 186C377.83 186.42 377.23 186.82 376.63 187.21C375.4 187.95 374.35 188.89 373.19 189.68C372.623 190.078 372.085 190.516 371.58 190.99C371.06 191.44 370.5 191.84 370.02 192.32C368.063 194.057 366.519 196.21 365.5 198.62C365.375 198.917 365.278 199.225 365.21 199.54C365.14 199.85 365.04 200.16 364.97 200.48C364.858 201.141 364.808 201.81 364.82 202.48C364.83 203.908 365.08 205.325 365.56 206.67Z" fill="#E6E6E6"/>
<path d="M364.35 206.67C363.319 205.375 362.529 203.905 362.02 202.33C361.772 201.53 361.574 200.715 361.43 199.89C361.36 199.48 361.3 199.06 361.24 198.64C361.18 198.22 361.24 197.8 361.24 197.37C361.194 193.93 362.068 190.54 363.77 187.55L365.13 185.4C365.65 184.73 366.21 184.1 366.76 183.47L367.59 182.53L368.53 181.71C369.16 181.16 369.8 180.63 370.43 180.11C371.775 179.177 373.17 178.319 374.61 177.54C376.087 176.87 377.599 176.279 379.14 175.77C378.01 176.97 376.83 178.01 375.66 179.05C374.49 180.09 373.46 181.25 372.4 182.33C371.91 182.91 371.4 183.48 370.91 184.03L370.15 184.86L369.5 185.76C369.07 186.36 368.6 186.93 368.18 187.53L367.05 189.4C365.619 191.921 364.65 194.678 364.19 197.54C363.701 200.569 363.755 203.66 364.35 206.67Z" fill="#E6E6E6"/>
<path d="M340.53 208.34C341.47 204.84 342.53 201.46 343.48 198.09C344.43 194.72 345.42 191.38 346.31 188.03C347.2 184.68 347.93 181.3 348.58 177.9C349.23 174.5 349.58 171.05 349.88 167.42C351.069 170.879 351.628 174.524 351.53 178.18C351.4 181.823 350.873 185.441 349.96 188.97C349.032 192.469 347.787 195.877 346.24 199.15C344.716 202.434 342.799 205.52 340.53 208.34Z" fill="#E6E6E6"/>
<path d="M341.71 207.78C343.18 204.32 344.77 201.02 346.33 197.72C347.89 194.42 349.47 191.16 350.98 187.88C352.49 184.6 353.93 181.3 355.28 177.95C356.63 174.6 357.79 171.2 358.92 167.61C359.271 171.369 358.997 175.16 358.11 178.83C357.22 182.485 355.977 186.045 354.4 189.46C352.83 192.847 350.987 196.101 348.89 199.19C346.818 202.307 344.41 205.188 341.71 207.78Z" fill="#E6E6E6"/>
<path d="M337.1 212.09C339.31 209.09 341.59 206.19 343.85 203.32C346.11 200.45 348.38 197.63 350.58 194.77C352.78 191.91 354.93 189.01 356.99 186.05C359.05 183.09 360.99 180.05 362.85 176.78C362.349 180.524 361.234 184.159 359.55 187.54C357.86 190.902 355.851 194.093 353.55 197.07C351.259 200.018 348.734 202.777 346 205.32C343.291 207.897 340.306 210.167 337.1 212.09Z" fill="#E6E6E6"/>
<path d="M344.03 207.15C346.19 204.44 348.36 201.88 350.49 199.29C352.62 196.7 354.68 194.13 356.69 191.51C358.7 188.89 360.58 186.2 362.41 183.44C364.24 180.68 365.83 177.79 367.56 174.76C367.305 178.241 366.449 181.651 365.03 184.84C363.603 188.021 361.811 191.024 359.69 193.79C357.582 196.535 355.207 199.064 352.6 201.34C350.016 203.652 347.134 205.606 344.03 207.15Z" fill="#E6E6E6"/>
<path d="M338.5 210.34C339.737 207.86 340.329 205.109 340.22 202.34C340.056 199.723 339.376 197.164 338.22 194.81L337.84 193.89L337.35 193L336.35 191.21C335.6 190.07 334.91 188.87 334.13 187.7C333.35 186.53 332.55 185.37 331.72 184.2C330.89 183.03 330.02 181.87 329.25 180.56C330.56 181.265 331.826 182.049 333.04 182.91C334.224 183.811 335.353 184.783 336.42 185.82C336.96 186.346 337.464 186.907 337.93 187.5C338.41 188.08 338.93 188.67 339.35 189.27L340.57 191.22C340.76 191.55 340.96 191.88 341.15 192.22L341.62 193.28C341.946 193.992 342.226 194.723 342.46 195.47C342.66 196.23 342.87 196.99 343.03 197.76C343.19 198.53 343.2 199.35 343.25 200.14C343.3 200.93 343.17 201.75 343.09 202.53C342.903 204.077 342.398 205.569 341.609 206.913C340.819 208.257 339.761 209.423 338.5 210.34Z" fill="#E6E6E6"/>
<path d="M340.6 206.69C341.538 203.886 342.175 200.989 342.5 198.05C342.812 195.31 342.608 192.535 341.9 189.87C341.556 188.559 341.066 187.291 340.44 186.09C340.16 185.46 339.76 184.89 339.44 184.28C339.12 183.67 338.69 183.09 338.25 182.54C336.438 180.188 334.46 177.968 332.33 175.9C335.366 176.799 338.149 178.395 340.46 180.56C341.66 181.67 342.702 182.938 343.56 184.33C343.994 185.034 344.381 185.765 344.72 186.52C345.047 187.288 345.324 188.076 345.55 188.88C346.405 192.08 346.356 195.455 345.41 198.63C344.537 201.69 342.879 204.469 340.6 206.69Z" fill="#E6E6E6"/>
<path d="M346.14 204.01L363.86 187L363.15 203.68L346.14 204.01Z" fill="#E6E6E6"/>
<path d="M326.76 202.2H373.85L367.69 237.19H332.93L326.76 202.2Z" fill="#F5F5F5"/>
<path d="M356.18 202.2H373.85L367.69 237.19H358.4L356.18 202.2Z" fill="#EBEBEB"/>
<path d="M249.9 435.9C356.982 435.9 443.79 430.832 443.79 424.58C443.79 418.328 356.982 413.26 249.9 413.26C142.818 413.26 56.01 418.328 56.01 424.58C56.01 430.832 142.818 435.9 249.9 435.9Z" fill="#F5F5F5"/>
<path d="M391.896 400.871L391.149 406.24L392.139 406.377L392.886 401.009L391.896 400.871Z" fill="#407BFF"/>
<path d="M395.888 372.075L392.829 394.063L393.82 394.201L396.879 372.213L395.888 372.075Z" fill="#407BFF"/>
<path d="M394.9 361.2H334.7L340.9 405.88C341.581 410.798 344.019 415.304 347.763 418.564C351.507 421.825 356.305 423.621 361.27 423.62H368.33C373.295 423.621 378.093 421.825 381.837 418.564C385.581 415.304 388.019 410.798 388.7 405.88L394.9 361.2Z" fill="#407BFF"/>
<path d="M364.75 364.66C381.374 364.66 394.85 363.111 394.85 361.2C394.85 359.289 381.374 357.74 364.75 357.74C348.126 357.74 334.65 359.289 334.65 361.2C334.65 363.111 348.126 364.66 364.75 364.66Z" fill="#263238"/>
<path d="M374.29 342.46C356.45 338.69 363.29 302.99 375.13 276.38C387.13 249.46 394.67 243.91 403.69 244.75C412.92 245.62 402.4 275.91 397.88 294.61C393.36 313.31 394.99 346.84 374.29 342.46Z" fill="#407BFF"/>
<path opacity="0.4" d="M374.29 342.46C356.45 338.69 363.29 302.99 375.13 276.38C387.13 249.46 394.67 243.91 403.69 244.75C412.92 245.62 402.4 275.91 397.88 294.61C393.36 313.31 394.99 346.84 374.29 342.46Z" fill="white"/>
<path d="M372.9 362.18C372.786 362.18 372.677 362.135 372.596 362.054C372.515 361.973 372.47 361.864 372.47 361.75C372.66 329.98 380.47 283.36 394.47 259.56C394.528 259.459 394.624 259.386 394.737 259.356C394.849 259.326 394.969 259.342 395.07 259.4C395.166 259.46 395.236 259.555 395.263 259.665C395.291 259.775 395.276 259.891 395.22 259.99C381.27 283.67 373.54 330.09 373.36 361.75C373.359 361.809 373.346 361.866 373.322 361.92C373.298 361.974 373.263 362.022 373.221 362.062C373.178 362.102 373.127 362.133 373.072 362.153C373.017 362.174 372.959 362.183 372.9 362.18Z" fill="#263238"/>
<path d="M372.63 310.34C369.35 312.64 365.92 312.99 363.83 315.22C362.41 327.76 364.24 338.04 371.45 341.53C374.15 338.81 374.69 320.74 372.63 310.34Z" fill="#263238"/>
<path d="M372.46 291.44C371.85 310.68 380.33 343.15 359.17 343.1C340.93 343.1 340.28 306.74 346.46 278.25C352.72 249.45 361.23 235.45 370.23 234.43C373.9 234.02 375.09 239.91 375.16 248.37C369.22 248.86 367.66 250.26 367.66 250.26C370.181 250.707 372.675 251.295 375.13 252.02C374.9 264.53 372.79 280.91 372.46 291.44Z" fill="#407BFF"/>
<path d="M349.39 350.46C361.17 346.75 354.27 323.13 344.52 305.96C334.67 288.59 329.24 285.33 323.21 286.49C317.18 287.65 326.11 307.41 330.37 319.73C334.63 332.05 335.71 354.76 349.39 350.46Z" fill="#407BFF"/>
<path opacity="0.4" d="M349.39 350.46C361.17 346.75 354.27 323.13 344.52 305.96C334.67 288.59 329.24 285.33 323.21 286.49C317.18 287.65 326.11 307.41 330.37 319.73C334.63 332.05 335.71 354.76 349.39 350.46Z" fill="white"/>
<path d="M351.56 363.81C351.453 363.808 351.351 363.768 351.272 363.696C351.193 363.624 351.142 363.526 351.13 363.42C348.95 342.1 340.73 311.34 329.8 296.34C329.766 296.294 329.741 296.241 329.727 296.185C329.714 296.129 329.711 296.071 329.721 296.014C329.73 295.957 329.751 295.902 329.782 295.854C329.812 295.805 329.853 295.763 329.9 295.73C329.946 295.696 329.997 295.671 330.053 295.658C330.108 295.644 330.165 295.642 330.222 295.651C330.278 295.661 330.331 295.681 330.379 295.712C330.427 295.743 330.468 295.783 330.5 295.83C341.5 310.99 349.8 341.94 351.99 363.37C351.999 363.426 351.995 363.483 351.98 363.538C351.965 363.593 351.939 363.644 351.903 363.688C351.868 363.733 351.823 363.769 351.773 363.795C351.722 363.821 351.667 363.836 351.61 363.84L351.56 363.81Z" fill="#263238"/>
<path d="M361.78 362.7C361.679 362.702 361.58 362.668 361.501 362.603C361.422 362.539 361.369 362.45 361.35 362.35C355.03 331.22 353.09 284 361.95 257.82C361.989 257.712 362.068 257.624 362.17 257.573C362.273 257.523 362.391 257.515 362.5 257.55C362.554 257.568 362.604 257.597 362.647 257.634C362.69 257.672 362.725 257.717 362.75 257.768C362.775 257.82 362.79 257.875 362.793 257.932C362.797 257.989 362.789 258.046 362.77 258.1C353.96 284.1 355.9 331.15 362.2 362.18C362.212 362.236 362.212 362.293 362.201 362.349C362.19 362.405 362.169 362.459 362.137 362.506C362.105 362.554 362.064 362.594 362.017 362.626C361.969 362.657 361.916 362.679 361.86 362.69L361.78 362.7Z" fill="#263238"/>
<path d="M386.08 280.19C386.004 280.188 385.93 280.168 385.864 280.131C385.798 280.095 385.742 280.043 385.7 279.98C385.644 279.88 385.628 279.762 385.656 279.65C385.683 279.538 385.753 279.442 385.85 279.38C390.25 276.76 396.59 276.54 396.85 276.53C396.954 276.546 397.049 276.598 397.118 276.678C397.186 276.758 397.224 276.86 397.224 276.965C397.224 277.07 397.186 277.172 397.118 277.252C397.049 277.332 396.954 277.384 396.85 277.4C396.79 277.4 390.47 277.62 386.27 280.13C386.212 280.164 386.147 280.184 386.08 280.19Z" fill="#263238"/>
<path d="M379.42 304.88C379.329 304.879 379.241 304.849 379.167 304.795C379.094 304.741 379.039 304.666 379.01 304.58C377.987 301.626 377.316 298.561 377.01 295.45C377.007 295.393 377.016 295.337 377.035 295.284C377.054 295.231 377.084 295.182 377.122 295.14C377.16 295.098 377.206 295.064 377.257 295.04C377.308 295.016 377.364 295.003 377.42 295C377.477 294.996 377.534 295.003 377.588 295.022C377.641 295.041 377.691 295.07 377.733 295.108C377.775 295.147 377.809 295.193 377.832 295.245C377.856 295.297 377.869 295.353 377.87 295.41C378.198 298.439 378.869 301.422 379.87 304.3C379.905 304.409 379.897 304.527 379.846 304.63C379.796 304.732 379.708 304.811 379.6 304.85L379.42 304.88Z" fill="#263238"/>
<path d="M112.34 155.86H109.15V422.12H112.34V155.86Z" fill="#407BFF"/>
<path d="M109.25 245.41C108.686 245.407 108.146 245.182 107.747 244.783C107.348 244.384 107.123 243.844 107.12 243.28C107.12 242.715 107.345 242.173 107.744 241.774C108.143 241.374 108.685 241.15 109.25 241.15C109.531 241.149 109.809 241.203 110.068 241.309C110.328 241.416 110.564 241.572 110.763 241.77C110.962 241.968 111.119 242.203 111.227 242.463C111.335 242.722 111.39 242.999 111.39 243.28C111.387 243.846 111.161 244.388 110.76 244.787C110.359 245.186 109.816 245.41 109.25 245.41Z" fill="#407BFF"/>
<path d="M123.01 423.62H98.46C98.46 422.824 98.776 422.061 99.3386 421.499C99.9013 420.936 100.664 420.62 101.46 420.62H120C120.796 420.62 121.559 420.936 122.121 421.499C122.684 422.061 123 422.824 123 423.62H123.01Z" fill="#407BFF"/>
<path d="M133.65 215.61H87.83C87.2547 215.603 86.6876 215.472 86.1675 215.226C85.6475 214.98 85.1866 214.624 84.8164 214.184C84.4462 213.744 84.1753 213.228 84.0224 212.674C83.8694 212.119 83.8379 211.538 83.93 210.97L92.55 161.17C92.7156 160.252 93.1971 159.42 93.9112 158.819C94.6252 158.218 95.5268 157.886 96.46 157.88H125.02C125.951 157.889 126.851 158.222 127.563 158.822C128.275 159.423 128.755 160.253 128.92 161.17L137.55 210.97C137.642 211.538 137.611 212.119 137.458 212.674C137.305 213.228 137.034 213.744 136.664 214.184C136.293 214.624 135.833 214.98 135.312 215.226C134.792 215.472 134.225 215.603 133.65 215.61Z" fill="#407BFF"/>
<path opacity="0.6" d="M133.65 215.61H87.83C87.2547 215.603 86.6876 215.472 86.1675 215.226C85.6475 214.98 85.1866 214.624 84.8164 214.184C84.4462 213.744 84.1753 213.228 84.0224 212.674C83.8694 212.119 83.8379 211.538 83.93 210.97L92.55 161.17C92.7156 160.252 93.1971 159.42 93.9112 158.819C94.6252 158.218 95.5268 157.886 96.46 157.88H125.02C125.951 157.889 126.851 158.222 127.563 158.822C128.275 159.423 128.755 160.253 128.92 161.17L137.55 210.97C137.642 211.538 137.611 212.119 137.458 212.674C137.305 213.228 137.034 213.744 136.664 214.184C136.293 214.624 135.833 214.98 135.312 215.226C134.792 215.472 134.225 215.603 133.65 215.61Z" fill="white"/>
<path d="M257.02 73.96L258.45 72.86C259.065 72.3902 259.835 72.1695 260.606 72.2417C261.377 72.314 262.092 72.674 262.61 73.25L265.08 75.99C265.495 76.4542 265.76 77.033 265.84 77.6504C265.92 78.2678 265.812 78.8951 265.53 79.45L264.9 80.77C264.47 81.6055 263.842 82.3236 263.072 82.8621C262.302 83.4005 261.412 83.743 260.48 83.86L256.48 84.37C255.437 84.5029 254.378 84.3994 253.381 84.067C252.384 83.7346 251.474 83.1819 250.72 82.45L249.78 81.55C251.59 77.22 257.02 73.96 257.02 73.96Z" fill="#FFC3BD"/>
<path d="M210.04 138.51L210.11 137.14L210.19 135.89C210.26 135.07 210.35 134.25 210.44 133.44C210.62 131.82 210.87 130.22 211.14 128.61C211.696 125.402 212.431 122.227 213.34 119.1C214.25 115.928 215.372 112.821 216.7 109.8C218.034 106.7 219.629 103.719 221.47 100.89C222.078 99.9638 222.764 99.0907 223.52 98.28C224.16 97.57 224.79 96.97 225.42 96.38C226.66 95.23 227.9 94.18 229.13 93.17C231.6 91.17 234.13 89.32 236.65 87.52C241.693 83.9649 246.913 80.6673 252.29 77.64C253.025 77.2281 253.885 77.0978 254.709 77.2735C255.534 77.4493 256.266 77.919 256.769 78.595C257.272 79.271 257.512 80.107 257.445 80.9471C257.377 81.7871 257.005 82.5737 256.4 83.16C252.07 87.36 247.61 91.47 243.3 95.58C241.14 97.58 239.02 99.71 236.99 101.76C235.99 102.76 234.99 103.82 234.13 104.83C233.71 105.33 233.29 105.83 232.95 106.28C232.693 106.592 232.465 106.926 232.27 107.28C229.794 112.157 227.913 117.314 226.67 122.64C226.01 125.35 225.45 128.11 225 130.89C224.77 132.28 224.58 133.67 224.4 135.06L224.16 137.14L224.05 138.14L223.97 139.05V139.4C223.796 141.206 222.923 142.873 221.537 144.044C220.15 145.214 218.361 145.797 216.552 145.666C214.742 145.536 213.055 144.703 211.851 143.345C210.647 141.987 210.023 140.212 210.11 138.4L210.04 138.51Z" fill="#FFC3BD"/>
<path d="M272.05 105.34C289.13 119.75 266.6 133.14 282.49 148.57C298.38 164 310.28 175.12 297.25 190.64C286.76 203.13 255.81 209.45 232.92 189.16C210.03 168.87 245.6 154.38 229.17 142.26C212.74 130.14 233.57 103.17 239.57 100.75C239.11 87.63 266.42 85.85 272.05 105.34Z" fill="#263238"/>
<path d="M312.56 187.23C312.487 187.244 312.413 187.244 312.34 187.23C301.86 182.23 300.11 174.36 298.42 166.73C296.81 159.48 295.16 151.98 286.27 146.29C273.18 137.91 275.87 130.23 278.27 123.45C280.52 117.02 282.47 111.45 271.35 105.94C271.23 105.88 271.138 105.775 271.095 105.647C271.052 105.52 271.061 105.381 271.12 105.26C271.184 105.141 271.291 105.051 271.419 105.008C271.547 104.965 271.687 104.973 271.81 105.03C283.73 110.96 281.55 117.19 279.24 123.79C276.93 130.39 274.44 137.48 286.85 145.43C296.09 151.35 297.8 159.05 299.45 166.51C301.16 174.24 302.78 181.51 312.81 186.3C312.932 186.358 313.026 186.463 313.071 186.59C313.116 186.718 313.108 186.858 313.05 186.98C313.002 187.065 312.929 187.134 312.842 187.178C312.755 187.223 312.657 187.241 312.56 187.23Z" fill="#263238"/>
<path d="M193.58 184.93C193.58 184.93 179.37 228.7 171.21 260.04C170.21 263.893 169.719 267.86 169.75 271.84C170.06 304.08 170.75 368.26 170.75 368.26L178.42 369.31C178.42 369.31 197.26 299.31 192.59 273.03C219.19 225.64 227.15 201.22 227.15 201.22L193.58 184.93Z" fill="#263238"/>
<path opacity="0.2" d="M206.11 221.64L213.47 233.13C210.45 239.443 206.803 246.667 202.53 254.8C203.08 245.263 202.204 235.698 199.93 226.42L206.11 221.64Z" fill="black"/>
<path d="M198.4 211.34C194.94 217.85 196.48 225.24 199.89 231.77C206.41 244.24 221.46 265.02 228.82 284.32C235.07 300.72 300.31 330.6 307.57 336.62L312.9 331.34C312.9 331.34 268.9 280.77 250.35 277.58C244.96 214.45 226.27 197.67 226.27 197.67C213.18 195.28 204.21 200.42 198.4 211.34Z" fill="#263238"/>
<path d="M316.57 330.19C314.24 329.61 312.2 327.61 308.32 324.19C308.166 324.049 307.981 323.947 307.779 323.894C307.578 323.841 307.366 323.838 307.163 323.886C306.96 323.933 306.772 324.029 306.614 324.166C306.457 324.303 306.335 324.476 306.26 324.67C305.193 327.57 303.854 330.363 302.26 333.01C302.076 333.276 301.998 333.601 302.043 333.922C302.087 334.242 302.25 334.534 302.5 334.74C311.67 342.28 310.5 343.84 310.9 347.03C311.43 350.95 309.68 358.21 312.5 357.51C316.5 356.51 318.87 351.43 318.59 347.34C318.35 343.85 318.68 339.66 319.74 337.05C320.66 334.84 319.9 331.03 316.57 330.19Z" fill="#407BFF"/>
<path d="M181.4 372.61C180.4 370.26 180.4 368.35 183.26 359.83C183.322 359.653 183.345 359.464 183.327 359.277C183.309 359.09 183.25 358.909 183.155 358.748C183.06 358.586 182.93 358.447 182.776 358.34C182.621 358.233 182.445 358.162 182.26 358.13C179.43 357.73 173.41 356.97 170.26 357.27C170.088 357.284 169.921 357.332 169.769 357.411C169.616 357.49 169.481 357.599 169.371 357.731C169.261 357.864 169.178 358.017 169.128 358.181C169.079 358.346 169.062 358.519 169.08 358.69C169.71 365.1 166.27 376.04 158.68 381.13C155.44 383.3 157.63 385.13 160.47 384.69C165.11 384.04 168.21 381.57 171.76 379.69C174.02 378.48 176.47 378.87 179.11 378.01C179.652 377.857 180.152 377.584 180.575 377.212C180.997 376.84 181.33 376.378 181.55 375.859C181.77 375.341 181.871 374.78 181.845 374.218C181.819 373.655 181.667 373.106 181.4 372.61Z" fill="#407BFF"/>
<path d="M208.67 140.8C207.14 144.35 197.74 149.73 202.26 157.68C199.65 165.1 197.26 172.5 193.58 184.93L228.96 202.1C232.34 191.42 238.16 180.22 253.73 160.1C254.58 158.997 255.189 157.727 255.517 156.374C255.845 155.02 255.884 153.613 255.634 152.243C255.383 150.873 254.847 149.571 254.061 148.422C253.275 147.272 252.256 146.3 251.07 145.57C249.73 144.74 248.29 143.89 246.79 143.08C241.63 140.102 236.263 137.498 230.73 135.29C228.92 134.6 227.02 133.95 225.19 133.36C222.004 132.333 218.55 132.526 215.498 133.9C212.446 135.275 210.012 137.734 208.67 140.8Z" fill="#407BFF"/>
<path d="M230.73 135.25C226.55 133.47 222.99 126.63 224.67 121.04C218.91 121.41 212.12 125.04 209.75 130.32C208.81 135.72 208.75 146.46 208.75 146.46L230.73 135.25Z" fill="#407BFF"/>
<path d="M332.4 150.08L333.85 149.01C334.47 148.546 334.893 147.865 335.034 147.104C335.175 146.342 335.023 145.555 334.61 144.9L332.61 141.78C332.278 141.252 331.793 140.837 331.22 140.591C330.646 140.344 330.012 140.278 329.4 140.4L327.95 140.68C327.028 140.865 326.165 141.272 325.437 141.866C324.708 142.461 324.136 143.224 323.77 144.09L322.19 147.78C321.778 148.746 321.588 149.792 321.634 150.841C321.681 151.89 321.963 152.915 322.46 153.84L323.08 154.99C327.78 154.41 332.4 150.08 332.4 150.08Z" fill="#FFC3BD"/>
<path d="M249.9 147.73L268.62 149.73C271.73 150.04 274.84 150.38 277.92 150.65L282.51 151.01C284 151.12 285.64 151.21 286.66 151.2C289.43 151.08 292.66 150.8 295.71 150.47L305.11 149.47C311.41 148.8 317.76 148.13 324.11 147.65C324.957 147.584 325.798 147.831 326.475 148.345C327.152 148.858 327.617 149.602 327.782 150.435C327.947 151.268 327.801 152.133 327.371 152.866C326.941 153.598 326.258 154.148 325.45 154.41C319.31 156.41 313.14 158.11 306.9 159.66C303.78 160.44 300.64 161.16 297.46 161.84C294.28 162.52 291.14 163.15 287.57 163.57C285.4 163.77 283.86 163.78 282.17 163.81C280.48 163.84 278.85 163.81 277.17 163.81C273.9 163.74 270.65 163.62 267.42 163.41C260.94 163.01 254.57 162.41 248.13 161.51C246.457 161.112 244.989 160.112 244.006 158.701C243.022 157.29 242.593 155.567 242.8 153.859C243.006 152.152 243.834 150.581 245.125 149.445C246.416 148.308 248.08 147.687 249.8 147.7L249.9 147.73Z" fill="#FFC3BD"/>
<path d="M232.75 193.19C234.27 194.19 230.65 200.57 232.03 203.19C233.41 205.81 234.03 207.19 232.77 207.55C231.51 207.91 206.01 202.7 192.04 192.13C191.784 191.926 191.581 191.663 191.451 191.363C191.32 191.064 191.265 190.736 191.29 190.41C191.71 184.87 194.29 177.36 195.89 177.25C197.49 177.14 227.12 189.55 232.75 193.19Z" fill="#407BFF"/>
<path opacity="0.4" d="M232.75 193.19C234.27 194.19 230.65 200.57 232.03 203.19C233.41 205.81 234.03 207.19 232.77 207.55C231.51 207.91 206.01 202.7 192.04 192.13C191.784 191.926 191.581 191.663 191.451 191.363C191.32 191.064 191.265 190.736 191.29 190.41C191.71 184.87 194.29 177.36 195.89 177.25C197.49 177.14 227.12 189.55 232.75 193.19Z" fill="white"/>
<path d="M253.98 124.18C250.46 128.85 244.85 137.83 246.79 143.04C246.79 143.04 234.15 139.2 221.79 146.04C222.44 135.78 230.69 135.21 230.69 135.21C237.12 136.62 239.05 132.28 239.99 127.77L253.98 124.18Z" fill="#FFC3BD"/>
<path opacity="0.2" d="M248.29 125.66L240.04 127.81C239.836 128.864 239.538 129.898 239.15 130.9C241.51 131.65 245.7 130.7 247.06 128.51C247.64 127.643 248.057 126.677 248.29 125.66Z" fill="black"/>
<path d="M263.39 118.4C257.29 125.83 254.97 129.98 248.13 130.3C236.43 130.84 232.13 121.3 235.04 114.41C238.52 106.27 247.04 95.1 256.71 97.41C266.38 99.72 269.48 110.97 263.39 118.4Z" fill="#FFC3BD"/>
<path d="M247 94.98C247.53 100.75 258.06 108.8 261.41 110.7C256.97 112.82 254.99 122.29 263.04 123.09C271.09 123.89 278.22 91.23 247 94.98Z" fill="#263238"/>
<path d="M238.38 113.54C238.38 113.54 241.54 114.25 249.6 117.92C247.6 119.64 244.97 120.6 240.85 118.69C236.73 116.78 238.38 113.54 238.38 113.54Z" fill="#263238"/>
<path d="M243.6 117.87C242.061 117.072 240.327 116.725 238.6 116.87C239.162 117.681 239.947 118.313 240.86 118.69C242.395 119.498 244.132 119.846 245.86 119.69C245.303 118.873 244.517 118.24 243.6 117.87Z" fill="#ED847E"/>
<path d="M238.77 113.64C238.728 113.957 238.775 114.279 238.905 114.57C239.036 114.862 239.245 115.111 239.51 115.29C241.906 116.372 244.38 117.275 246.91 117.99C247.291 118.137 247.701 118.193 248.107 118.153C248.514 118.113 248.905 117.979 249.25 117.76C245.857 116.143 242.355 114.766 238.77 113.64Z" fill="white"/>
<path d="M245.13 107.34C243.524 108.372 241.785 109.18 239.96 109.74C240.23 111.13 241.9 111.8 241.9 111.8L245.13 107.34Z" fill="#ED847E"/>
<path d="M260.96 125.78C260.211 126.216 259.379 126.489 258.517 126.58C257.655 126.672 256.784 126.58 255.96 126.31C253.88 125.55 254.39 123.03 256.27 121.46C257.96 120.04 261.07 118.74 262.53 120.37C263.99 122 262.99 124.66 260.96 125.78Z" fill="#FFC3BD"/>
<path d="M254.04 111.04C254.015 110.983 254.002 110.922 254.002 110.86C254.002 110.798 254.015 110.737 254.04 110.68C254.288 110.153 254.405 109.574 254.381 108.993C254.357 108.411 254.192 107.844 253.9 107.34C253.835 107.239 253.812 107.116 253.836 106.999C253.861 106.881 253.93 106.777 254.03 106.71C254.078 106.675 254.134 106.65 254.192 106.637C254.251 106.623 254.312 106.623 254.371 106.634C254.43 106.645 254.486 106.668 254.536 106.702C254.585 106.736 254.628 106.779 254.66 106.83C255.032 107.457 255.247 108.163 255.289 108.891C255.331 109.618 255.197 110.345 254.9 111.01C254.851 111.121 254.761 111.208 254.649 111.253C254.537 111.298 254.411 111.297 254.3 111.25C254.244 111.235 254.192 111.209 254.147 111.173C254.103 111.137 254.066 111.091 254.04 111.04Z" fill="#263238"/>
<path d="M250.28 111.34C250.218 111.279 250.182 111.197 250.18 111.11C250.192 110.707 250.107 110.307 249.933 109.944C249.759 109.58 249.501 109.264 249.18 109.02C249.112 108.972 249.065 108.899 249.05 108.816C249.035 108.734 249.053 108.649 249.1 108.58C249.122 108.544 249.151 108.514 249.186 108.49C249.22 108.466 249.26 108.449 249.301 108.441C249.342 108.432 249.384 108.432 249.425 108.441C249.467 108.449 249.505 108.466 249.54 108.49C249.943 108.795 250.266 109.192 250.484 109.648C250.701 110.104 250.806 110.605 250.79 111.11C250.787 111.196 250.751 111.277 250.69 111.337C250.628 111.397 250.546 111.43 250.46 111.43C250.392 111.421 250.328 111.389 250.28 111.34Z" fill="#263238"/>
<path d="M243.95 105.73C243.907 105.734 243.863 105.728 243.822 105.715C243.781 105.701 243.742 105.679 243.71 105.65C243.413 105.383 243.057 105.19 242.671 105.085C242.286 104.981 241.881 104.969 241.49 105.05C241.451 105.062 241.409 105.066 241.368 105.063C241.327 105.059 241.287 105.046 241.251 105.027C241.215 105.007 241.183 104.981 241.157 104.949C241.131 104.917 241.111 104.88 241.1 104.84C241.075 104.759 241.083 104.672 241.122 104.597C241.162 104.522 241.229 104.465 241.31 104.44C241.803 104.326 242.315 104.332 242.805 104.459C243.294 104.587 243.745 104.83 244.12 105.17C244.179 105.23 244.212 105.311 244.212 105.395C244.212 105.479 244.179 105.56 244.12 105.62C244.075 105.672 244.016 105.71 243.95 105.73Z" fill="#263238"/>
<path d="M243.81 100.91C243.755 100.891 243.704 100.86 243.661 100.821C243.618 100.781 243.584 100.733 243.56 100.68C243.512 100.568 243.509 100.442 243.552 100.329C243.595 100.215 243.68 100.122 243.79 100.07C244.444 99.7511 245.166 99.5947 245.893 99.6138C246.621 99.633 247.333 99.8271 247.97 100.18C248.073 100.244 248.146 100.346 248.175 100.464C248.203 100.582 248.183 100.706 248.12 100.81C248.054 100.914 247.95 100.987 247.83 101.015C247.711 101.043 247.585 101.024 247.48 100.96C246.973 100.687 246.407 100.539 245.831 100.531C245.255 100.522 244.685 100.652 244.17 100.91C244.113 100.935 244.052 100.948 243.99 100.948C243.928 100.948 243.867 100.935 243.81 100.91Z" fill="#263238"/>
<path opacity="0.2" d="M216.34 156.92C218.423 162.088 222.166 166.415 226.98 169.22C218.38 167.56 216.06 160.75 216.34 156.92Z" fill="black"/>
<path d="M246.79 143.04C251.43 146.13 264.18 147.28 268.42 147.58C268.561 147.583 268.699 147.625 268.818 147.701C268.937 147.778 269.033 147.885 269.095 148.012C269.157 148.139 269.182 148.281 269.169 148.422C269.156 148.562 269.104 148.697 269.02 148.81C267.1 150.81 260.83 159.67 260.58 164.11C260.554 164.556 260.384 164.981 260.096 165.322C259.807 165.663 259.415 165.901 258.98 166C246.66 168.69 241.04 167.23 238.73 164.05C236.31 160.72 246.79 143.04 246.79 143.04Z" fill="#407BFF"/>
</g>
<defs>
<clipPath id="clip0_4_603">
<rect width="500" height="500" fill="white"/>
</clipPath>
</defs>
</svg>
