<?xml version="1.0" encoding="UTF-8"?>
<svg id="Layer_2" xmlns="http://www.w3.org/2000/svg" viewBox="0 0 162.42 148.76">
  <g id="Layer_1-2" data-name="Layer_1">
    <g>
      <path d="M136.14,92.86c2.11,0,5.94.96,7.86,1.48.72.2,1.49,0,2.02-.54l.94-.94c-3.61-3.61-10.82,0-10.82,0Z"/>
      <path d="M153.27,91.96c.9-11.72-23.44-9.02-23.44-9.02,0,0-3.61-5.41,1.8-12.62s7.21-16.23-3.61-27.05-9.02-25.24-9.02-25.24c-12.14,6.92-2.6,23.86-1.86,25.17-7.16-7.19-8.96-16.16-8.96-16.16-8.8,8.8,4.74,21.04,5.39,21.62-10.8-5.39-12.6-12.6-12.6-12.6-5.27,10.55,6.58,21.08,7.19,21.62-5.41-1.8-10.8-10.8-10.8-10.8-1.8,9.02,8.11,18.93,8.11,18.93-5.41,1.8-9.92-8.11-9.92-8.11.9,26.15,18.03,32.46,18.03,32.46,0,0-12.62,0-19.83-19.83-7.21-19.83-16.23-21.64-28.85-27.05C28.85,27.05,14.43,0,14.43,0c-8.78,15.8,16.61,35,17.98,36.03C16.19,28.81,0,10.82,0,10.82c0,26.2,35.54,35.49,37.76,36.05C14.39,43.24,3.61,34.26,3.61,34.26c1.8,19.83,39.67,25.24,39.67,25.24-18.03,1.8-32.46-7.21-32.46-7.21,5.41,18.03,37.87,18.03,37.87,18.03-9.02,3.61-28.85-1.8-28.85-1.8,9.02,16.23,36.06,10.82,36.06,10.82-5.41,5.41-25.24,3.61-25.24,3.61,10.82,14.43,30.65,5.41,30.65,5.41-5.41,5.41-19.83,5.41-19.83,5.41,6.92,10.4,23.87,2.47,25.17,1.86-3.68,3.61-14.35,7.16-14.35,7.16,5.3,7.07,19.24.29,19.82.02-3.61,5.39-9,5.39-9,5.39,5.28,5.28,17.45-1.48,18.01-1.79-14.44,12.62-59.49,28.83-59.49,28.83,9.02,12.62,30.65-3.61,30.65-3.61-7.21,9.02-18.03,10.82-18.03,10.82,14.06,10.55,28.13-9.76,28.83-10.78-3.62,7.21-13.51,17.09-13.51,17.09,25.24-3.61,24.34-17.13,24.34-17.13,3.61,7.21-7.21,14.43-7.21,14.43,18.03-3.61,16.23-14.43,16.23-14.43,32.46,1.8,32.77-11.37,51.39-22.54,18.03-10.82,23.44,1.8,23.44,1.8,12.62-14.43-4.51-18.93-4.51-18.93ZM157.78,105.48c-10.82-10.82-29.91,2.83-30.65,3.61,5.41-10.82-8.11-.9-8.11-.9,10.82-9.02-1.8-7.21-1.8-7.21,9.02-5.41,0-5.91,0-5.91,12.62-4.09.9-5.81.9-5.81,0,0,14.43-5.41,26.15-2.7,6.27,1.44,6.42,4.4,5.93,6.04-.18.63.22,1.24.83,1.39.9.23,2.29.61,4.06,1.59,8.11,4.51,2.7,9.92,2.7,9.92Z"/>
    </g>
  </g>
</svg>