<?xml version="1.0" encoding="UTF-8"?>
<svg id="Layer_2" xmlns="http://www.w3.org/2000/svg" viewBox="0 0 1080 1080">
  <defs>
    <style>
      .cls-1 {
        fill: #005b8e;
      }

      .cls-2 {
        fill: #fff;
      }
    </style>
  </defs>
  <g id="Layer_1-2" data-name="Layer_1">
    <g>
      <rect class="cls-1" width="1080" height="1080"/>
      <g>
        <g>
          <path class="cls-2" d="M740.17,484.05c7.62,0,21.49,3.47,28.43,5.35,2.62.71,5.4-.03,7.32-1.95l3.4-3.4c-13.05-13.05-39.15,0-39.15,0Z"/>
          <path class="cls-2" d="M802.15,480.78c3.26-42.41-84.83-32.63-84.83-32.63,0,0-13.05-19.58,6.53-45.68,19.58-26.1,26.1-58.73-13.05-97.88-39.15-39.15-32.63-91.35-32.63-91.35-43.91,25.06-9.4,86.33-6.72,91.09-25.9-26.04-32.43-58.47-32.43-58.47-31.84,31.84,17.16,76.15,19.51,78.24-39.09-19.51-45.61-45.61-45.61-45.61-19.05,38.17,23.82,76.28,26.04,78.24-19.58-6.53-39.09-39.09-39.09-39.09-6.53,32.63,29.36,68.51,29.36,68.51-19.58,6.53-35.89-29.36-35.89-29.36,3.26,94.61,65.25,117.45,65.25,117.45,0,0-45.68,0-71.78-71.78-26.1-71.78-58.73-78.3-104.4-97.88-130.5-58.73-182.7-156.6-182.7-156.6-31.78,57.16,60.1,126.65,65.06,130.37-58.66-26.1-117.26-91.22-117.26-91.22,0,94.81,128.61,128.42,136.64,130.44-84.57-13.12-123.59-45.61-123.59-45.61,6.53,71.78,143.55,91.35,143.55,91.35-65.25,6.53-117.45-26.1-117.45-26.1,19.58,65.25,137.03,65.25,137.03,65.25-32.63,13.05-104.4-6.53-104.4-6.53,32.63,58.73,130.5,39.15,130.5,39.15-19.58,19.58-91.35,13.05-91.35,13.05,39.15,52.2,110.93,19.58,110.93,19.58-19.58,19.58-71.78,19.58-71.78,19.58,25.06,37.65,86.39,8.94,91.09,6.72-13.31,13.05-51.94,25.91-51.94,25.91,19.18,25.58,69.62,1.04,71.71.07-13.05,19.51-32.56,19.51-32.56,19.51,19.12,19.12,63.16-5.35,65.19-6.46-52.27,45.68-215.26,104.34-215.26,104.34,32.63,45.68,110.93-13.05,110.93-13.05-26.1,32.63-65.25,39.15-65.25,39.15,50.9,38.17,101.79-35.3,104.34-39.02-13.12,26.1-48.87,61.86-48.87,61.86,91.35-13.05,88.09-61.99,88.09-61.99,13.05,26.1-26.1,52.2-26.1,52.2,65.25-13.05,58.73-52.2,58.73-52.2,117.45,6.53,118.59-41.14,185.97-81.56,65.25-39.15,84.83,6.53,84.83,6.53,45.68-52.2-16.31-68.51-16.31-68.51ZM818.47,529.72c-39.15-39.15-108.25,10.24-110.93,13.05,19.58-39.15-29.36-3.26-29.36-3.26,39.15-32.63-6.53-26.1-6.53-26.1,32.63-19.58,0-21.4,0-21.4,45.68-14.81,3.26-21.01,3.26-21.01,0,0,52.2-19.58,94.61-9.79,22.71,5.22,23.23,15.92,21.47,21.86-.65,2.28.78,4.5,3,5.02,3.26.85,8.29,2.22,14.68,5.74,29.36,16.31,9.79,35.89,9.79,35.89Z"/>
        </g>
        <g>
          <path class="cls-2" d="M177.58,898.14l21.12-138.34h40.37l-7.96,51.67h43.34l7.96-51.67h40.38l-21.11,138.34h-40.38l7.59-50.19h-43.34l-7.59,50.19h-40.38Z"/>
          <path class="cls-2" d="M339.44,793.69h39.63l-15.92,104.45h-39.63l15.93-104.45ZM363.33,745.72c11.3,0,20.56,9.08,20.56,20.38s-9.26,20.37-20.56,20.37-20.56-9.08-20.56-20.37,9.08-20.38,20.56-20.38Z"/>
          <path class="cls-2" d="M427.22,940c-14.63,0-32.78-5.18-44.82-15.19l5.74-36.3c12.04,12.22,25.19,17.78,37.78,17.78s26.12-5.37,28.34-19.45l.74-4.63c-5.74,6.66-15.56,12.41-28.15,12.41-24.82,0-40.56-20-40.56-45.56,0-33.34,23.52-58.15,51.49-58.15,14.08,0,23.89,5.93,30,16.67l5.37-13.89h35l-13.7,89.63c-6.11,38.15-32.78,56.67-67.23,56.67ZM442.03,861.29c12.04,0,20-10.18,20-20.37,0-9.26-6.48-15.56-15.37-15.56-12.04,0-20,10-20,20.55,0,9.26,6.3,15.37,15.37,15.37Z"/>
          <path class="cls-2" d="M527.59,793.69h39.63l-15.92,104.45h-39.63l15.93-104.45ZM551.48,745.72c11.3,0,20.56,9.08,20.56,20.38s-9.26,20.37-20.56,20.37-20.56-9.08-20.56-20.37,9.08-20.38,20.56-20.38Z"/>
          <path class="cls-2" d="M617.59,793.69l1.48,13.52h.37c8.7-12.04,19.45-16.48,29.26-16.48,3.15,0,6.67.55,8.89,1.48l-5.56,36.12c-3.71-.74-7.22-1.11-10.56-1.11-12.41,0-21.48,5.92-24.26,24.63l-6.66,46.3h-39.63l15.93-104.45h30.74Z"/>
          <path class="cls-2" d="M761.67,898.14h-34.07l-1.11-14.63c-8.89,11.85-19.26,17.6-32.23,17.6-22.22,0-39.07-18.52-39.07-47.6,0-36.3,23.89-62.78,51.67-62.78,13.33,0,23.33,6.11,29.45,16.85l5.37-13.89h35.93l-15.93,104.45ZM710.75,866.1c12.59,0,20-11.48,20-22.96,0-10.37-6.11-17.22-15.92-17.22-12.41,0-20,11.3-20,22.97,0,10.37,6.11,17.22,15.93,17.22Z"/>
          <path class="cls-2" d="M830.94,793.69l.56,14.63c7.78-11.11,19.81-17.59,32.78-17.59,21.3,0,38.15,18.7,38.15,47.04,0,37.04-25,63.34-51.67,63.34-11.67,0-22.41-6.11-27.6-16.86l-8.15,52.78h-39.63l21.85-143.34h33.7ZM843.16,865.92c12.97,0,20.19-11.67,20.19-23.15,0-10.19-5.56-17.04-15.74-17.04-12.59,0-20.19,11.3-20.19,22.78,0,10.37,5.74,17.41,15.74,17.41Z"/>
        </g>
      </g>
    </g>
  </g>
</svg>