<?xml version="1.0" encoding="UTF-8"?>
<svg id="Layer_2" xmlns="http://www.w3.org/2000/svg" viewBox="0 0 202.71 225">
  <defs>
    <style>
      .cls-1 {
        fill: #fff;
      }
    </style>
  </defs>
  <g id="Layer_1-2" data-name="Layer_1">
    <g>
      <g>
        <path class="cls-1" d="M156.28,92.86c2.11,0,5.94.96,7.86,1.48.72.2,1.49,0,2.02-.54l.94-.94c-3.61-3.61-10.82,0-10.82,0Z"/>
        <path class="cls-1" d="M173.41,91.96c.9-11.72-23.44-9.02-23.44-9.02,0,0-3.61-5.41,1.8-12.62,5.41-7.21,7.21-16.23-3.61-27.05s-9.02-25.24-9.02-25.24c-12.14,6.92-2.6,23.86-1.86,25.17-7.16-7.19-8.96-16.16-8.96-16.16-8.8,8.8,4.74,21.04,5.39,21.62-10.8-5.39-12.6-12.6-12.6-12.6-5.27,10.55,6.58,21.08,7.19,21.62-5.41-1.8-10.8-10.8-10.8-10.8-1.8,9.02,8.11,18.93,8.11,18.93-5.41,1.8-9.92-8.11-9.92-8.11.9,26.15,18.03,32.46,18.03,32.46,0,0-12.62,0-19.83-19.83-7.21-19.83-16.23-21.64-28.85-27.05C49,27.05,34.57,0,34.57,0c-8.78,15.8,16.61,35,17.98,36.03C36.34,28.81,20.15,10.82,20.15,10.82c0,26.2,35.54,35.49,37.76,36.05-23.37-3.62-34.15-12.6-34.15-12.6,1.8,19.83,39.67,25.24,39.67,25.24-18.03,1.8-32.46-7.21-32.46-7.21,5.41,18.03,37.87,18.03,37.87,18.03-9.02,3.61-28.85-1.8-28.85-1.8,9.02,16.23,36.06,10.82,36.06,10.82-5.41,5.41-25.24,3.61-25.24,3.61,10.82,14.43,30.65,5.41,30.65,5.41-5.41,5.41-19.83,5.41-19.83,5.41,6.92,10.4,23.87,2.47,25.17,1.86-3.68,3.61-14.35,7.16-14.35,7.16,5.3,7.07,19.24.29,19.82.02-3.61,5.39-9,5.39-9,5.39,5.28,5.28,17.45-1.48,18.01-1.79-14.44,12.62-59.49,28.83-59.49,28.83,9.02,12.62,30.65-3.61,30.65-3.61-7.21,9.02-18.03,10.82-18.03,10.82,14.06,10.55,28.13-9.76,28.83-10.78-3.62,7.21-13.51,17.09-13.51,17.09,25.24-3.61,24.34-17.13,24.34-17.13,3.61,7.21-7.21,14.43-7.21,14.43,18.03-3.61,16.23-14.43,16.23-14.43,32.46,1.8,32.77-11.37,51.39-22.54,18.03-10.82,23.44,1.8,23.44,1.8,12.62-14.43-4.51-18.93-4.51-18.93ZM177.92,105.48c-10.82-10.82-29.91,2.83-30.65,3.61,5.41-10.82-8.11-.9-8.11-.9,10.82-9.02-1.8-7.21-1.8-7.21,9.02-5.41,0-5.91,0-5.91,12.62-4.09.9-5.81.9-5.81,0,0,14.43-5.41,26.15-2.7,6.27,1.44,6.42,4.4,5.93,6.04-.18.63.22,1.24.83,1.39.9.23,2.29.61,4.06,1.59,8.11,4.51,2.7,9.92,2.7,9.92Z"/>
      </g>
      <g>
        <path class="cls-1" d="M.82,207.29l5.83-38.23h11.16l-2.2,14.28h11.98l2.2-14.28h11.16l-5.83,38.23h-11.16l2.1-13.87h-11.98l-2.1,13.87H.82Z"/>
        <path class="cls-1" d="M45.55,178.43h10.95l-4.4,28.86h-10.95l4.4-28.86ZM52.15,165.17c3.12,0,5.68,2.51,5.68,5.63s-2.56,5.63-5.68,5.63-5.68-2.51-5.68-5.63,2.51-5.63,5.68-5.63Z"/>
        <path class="cls-1" d="M69.8,218.86c-4.04,0-9.06-1.43-12.38-4.2l1.59-10.03c3.33,3.38,6.96,4.91,10.44,4.91s7.22-1.48,7.83-5.37l.21-1.28c-1.59,1.84-4.3,3.43-7.78,3.43-6.86,0-11.21-5.53-11.21-12.59,0-9.21,6.5-16.07,14.23-16.07,3.89,0,6.6,1.64,8.29,4.61l1.48-3.84h9.67l-3.79,24.77c-1.69,10.54-9.06,15.66-18.58,15.66ZM73.9,197.11c3.33,0,5.53-2.81,5.53-5.63,0-2.56-1.79-4.3-4.25-4.3-3.33,0-5.53,2.76-5.53,5.68,0,2.56,1.74,4.25,4.25,4.25Z"/>
        <path class="cls-1" d="M97.54,178.43h10.95l-4.4,28.86h-10.95l4.4-28.86ZM104.14,165.17c3.12,0,5.68,2.51,5.68,5.63s-2.56,5.63-5.68,5.63-5.68-2.51-5.68-5.63,2.51-5.63,5.68-5.63Z"/>
        <path class="cls-1" d="M122.41,178.43l.41,3.74h.1c2.41-3.33,5.37-4.55,8.09-4.55.87,0,1.84.15,2.46.41l-1.54,9.98c-1.02-.21-2-.31-2.92-.31-3.43,0-5.94,1.64-6.7,6.81l-1.84,12.79h-10.95l4.4-28.86h8.5Z"/>
        <path class="cls-1" d="M162.23,207.29h-9.42l-.31-4.04c-2.46,3.28-5.32,4.86-8.91,4.86-6.14,0-10.8-5.12-10.8-13.15,0-10.03,6.6-17.35,14.28-17.35,3.68,0,6.45,1.69,8.14,4.66l1.48-3.84h9.93l-4.4,28.86ZM148.15,198.44c3.48,0,5.53-3.17,5.53-6.35,0-2.87-1.69-4.76-4.4-4.76-3.43,0-5.53,3.12-5.53,6.35,0,2.87,1.69,4.76,4.4,4.76Z"/>
        <path class="cls-1" d="M181.37,178.43l.15,4.04c2.15-3.07,5.48-4.86,9.06-4.86,5.88,0,10.54,5.17,10.54,13,0,10.24-6.91,17.5-14.28,17.5-3.22,0-6.19-1.69-7.63-4.66l-2.25,14.59h-10.95l6.04-39.61h9.31ZM184.75,198.39c3.58,0,5.58-3.22,5.58-6.4,0-2.82-1.54-4.71-4.35-4.71-3.48,0-5.58,3.12-5.58,6.29,0,2.87,1.59,4.81,4.35,4.81Z"/>
      </g>
    </g>
  </g>
</svg>