<?xml version="1.0" encoding="UTF-8"?>
<svg id="Layer_2" xmlns="http://www.w3.org/2000/svg" viewBox="0 0 202.71 62.41">
  <defs>
    <style>
      .cls-1 {
        fill: #add84f;
      }

      .cls-2 {
        fill: #005b8e;
      }
    </style>
  </defs>
  <g id="Layer_1-2" data-name="Layer_1">
    <g>
      <path class="cls-2" d="M.82,44.7L6.65,6.47h11.16l-2.2,14.28h11.98l2.2-14.28h11.16l-5.83,38.23h-11.16l2.1-13.87h-11.98l-2.1,13.87H.82Z"/>
      <path class="cls-2" d="M45.55,15.84h10.95l-4.4,28.86h-10.95l4.4-28.86ZM52.15,2.58c3.12,0,5.68,2.51,5.68,5.63s-2.56,5.63-5.68,5.63-5.68-2.51-5.68-5.63,2.51-5.63,5.68-5.63Z"/>
      <path class="cls-2" d="M69.8,56.27c-4.04,0-9.06-1.43-12.38-4.2l1.59-10.03c3.33,3.38,6.96,4.91,10.44,4.91s7.22-1.48,7.83-5.37l.21-1.28c-1.59,1.84-4.3,3.43-7.78,3.43-6.86,0-11.21-5.53-11.21-12.59,0-9.21,6.5-16.07,14.23-16.07,3.89,0,6.6,1.64,8.29,4.61l1.48-3.84h9.67l-3.79,24.77c-1.69,10.54-9.06,15.66-18.58,15.66ZM73.9,34.52c3.33,0,5.53-2.81,5.53-5.63,0-2.56-1.79-4.3-4.25-4.3-3.33,0-5.53,2.76-5.53,5.68,0,2.56,1.74,4.25,4.25,4.25Z"/>
      <path class="cls-2" d="M97.54,15.84h10.95l-4.4,28.86h-10.95l4.4-28.86ZM104.14,2.58c3.12,0,5.68,2.51,5.68,5.63s-2.56,5.63-5.68,5.63-5.68-2.51-5.68-5.63,2.51-5.63,5.68-5.63Z"/>
      <path class="cls-1" d="M122.41,15.84l.41,3.74h.1c2.41-3.33,5.37-4.55,8.09-4.55.87,0,1.84.15,2.46.41l-1.54,9.98c-1.02-.21-2-.31-2.92-.31-3.43,0-5.94,1.64-6.7,6.81l-1.84,12.79h-10.95l4.4-28.86h8.5Z"/>
      <path class="cls-1" d="M162.23,44.7h-9.42l-.31-4.04c-2.46,3.28-5.32,4.86-8.91,4.86-6.14,0-10.8-5.12-10.8-13.15,0-10.03,6.6-17.35,14.28-17.35,3.68,0,6.45,1.69,8.14,4.66l1.48-3.84h9.93l-4.4,28.86ZM148.15,35.85c3.48,0,5.53-3.17,5.53-6.35,0-2.87-1.69-4.76-4.4-4.76-3.43,0-5.53,3.12-5.53,6.35,0,2.87,1.69,4.76,4.4,4.76Z"/>
      <path class="cls-1" d="M181.37,15.84l.15,4.04c2.15-3.07,5.48-4.86,9.06-4.86,5.88,0,10.54,5.17,10.54,13,0,10.24-6.91,17.5-14.28,17.5-3.22,0-6.19-1.69-7.63-4.66l-2.25,14.59h-10.95l6.04-39.61h9.31ZM184.75,35.8c3.58,0,5.58-3.22,5.58-6.4,0-2.81-1.54-4.71-4.35-4.71-3.48,0-5.58,3.12-5.58,6.29,0,2.87,1.59,4.81,4.35,4.81Z"/>
    </g>
  </g>
</svg>