<?xml version="1.0" encoding="UTF-8"?>
<svg id="Layer_2" xmlns="http://www.w3.org/2000/svg" viewBox="0 0 249.61 153.4">
  <defs>
    <style>
      .cls-1 {
        fill: #add84f;
      }

      .cls-2 {
        fill: #0a5ebf;
      }
    </style>
  </defs>
  <g id="Layer_1-2" data-name="Layer_1">
    <g>
      <path class="cls-2" d="M236.98,56.1c-4.78-2.98-11.34-4.18-11.34-5.97s2.38-.6,10.11-2.38c.03,0,.06-.01.09-.01,7.21-.57,11.32-3.71,11.84-4.13.04-.03.07-.07.1-.11.33-.43,2.29-3.17,1.74-5.91-.54-2.71-3.54-3.45-4.09-3.56-.06-.01-.11-.03-.16-.06-.5-.28-3.46-1.8-8.88-2.34-10.74-1.19-10.74,5.37-10.74,5.37,0,0-.6,6.57-3.58,7.16-2.82.56-4.04-4.19-4.17-4.73,0-.04-.02-.06-.03-.1-.24-.54-2.59-5.72-6.54-12.49-4.18-7.16-10.15-14.33-10.15-14.33,0,0-2.15-2.51-10.07-5.58-4.72-1.83-9.64-3.1-14.65-3.85C159.1.5,136.78.07,129.88,0c-1.18-.01-2.13.94-2.13,2.12v46.92c0,1.29,1.03,2.33,2.31,2.35,15.24.21,63.45.7,83.47-1.01.67-.06.98.8.43,1.18-4.9,3.38-17.42,12.55-29.2,25.59-.58.65-1.6-.1-1.15-.85,2.91-4.9,7.68-12.1,14.12-19.07.39-.42.09-1.11-.48-1.09-8.11.22-46.08,1.15-66.94.1-1.39-.07-2.54,1.04-2.54,2.42v53.17c0,1.53,1.24,2.77,2.77,2.77h30.23c.1-.01,12.99-1.16,20.73,7.76,7.62,8.79,10.63,11.83,10.74,11.93t0,.01c.08.13,2.6,4.17,10.49,4.17h18.5c5.16,0,10.28-1.29,14.7-3.97,2.02-1.23,3.98-2.77,5.45-4.68.26-.33.77-.13.75.28-.24,4.53-6.51,13.14-15.87,13.14h-17.85c-.36,0-.65.29-.65.65v2.13s0,.05,0,.07c.05.38.48,3.78,1.61,4.91.22.22.51.45.83.66,1.72,1.16,3.76,1.72,5.84,1.72h25.03c2.07,0,4.12-.66,5.68-2.02.13-.12.27-.24.39-.37,1.8-1.79,1.8-4.78,1.8-4.78v-62.28c0-5.32-.59-10.63-1.85-15.8-.39-1.61-.79-3-1.14-3.69-1.19-2.39-4.18-5.37-8.95-8.36ZM234.59,74.01c-2.98,13.13-7.76,16.12-27.46,18.5-12.67,1.53-17.19,2.33-19.12,2.38-1.03.03-1.77-1-1.41-1.98.89-2.39,3.9-7.53,13.96-12.34,13.73-6.57,26.86-13.73,28.06-14.33s8.95-5.37,5.97,7.76ZM186.24,137.11s-.02-.04-.04-.05c-.17-.3-.43-.64-.8-1.03l-6.92-8.89h0c-.06-.12-3.71-6.57-19.1-6.57h-29.17c-1.36,0-2.47,1.11-2.47,2.47v13.63c0,1,.81,1.81,1.81,1.81h55.88c.7,0,1.14-.75.8-1.36h0Z"/>
      <g>
        <path class="cls-1" d="M72.13,88.92s-14.1,0-18.39,1.17c-6.6,1.79-11.65,6-11.65,9.33,0,7.58,1.23,15.17,9.19,15.17h68.18c1.27,0,2.31-1.03,2.31-2.31v-18.55c0-.83-.44-1.6-1.16-2.01-4.98-2.8-9.16-2.8-15.83-2.8h-32.65Z"/>
        <path class="cls-1" d="M72.7,3.57c-24.5,2.39-34.3,7.76-42.88,16.11-8.58,8.35-7.96,22.67-7.96,22.67v7.35c0,.69.48,1.3,1.17,1.47,1.84.47,4.46,1.39,8.03,3.13,3.06,1.49,5.35,3.98,7.01,6.55,2.7,4.17,4.01,9.05,4.01,13.98v14.24c0,.6.7.93,1.18.56,2.53-1.97,9.22-6.08,20.87-6.08h37.72c.14,0,10.96,0,16.97,2.16,1.44.51,2.94-.69,2.94-2.22V2.31C121.77,1.02,120.72-.01,119.44,0c-13.03.13-23.6,1.31-46.74,3.57Z"/>
        <path class="cls-1" d="M39.63,115.18c-3.07-3.58-3.06-7.16-3.06-7.16v-32.83s0-15.52-14.7-18.5h-.01c-8.58,0-10.41,1.19-10.41,1.19C-1.42,62.66.05,71.01.05,78.53c-.11,4.62,2.49,7.68,5.41,9.65,4.98,3.36,7.82,9,7.82,14.89v18.68c0,11.34,7.96,16.72,13.48,16.72,4.29,0,3.68,1.19,3.68,1.79s-3.57,11.2-3.57,11.2c-.31.96.43,1.93,1.46,1.93h8.85c4.44,0,9.87-9.67,11.82-13.44.47-.91,1.43-1.48,2.47-1.48h68.01c1.27,0,2.31-1.03,2.31-2.31v-13.3c0-1.27-1.03-2.31-2.31-2.31H50.72c-6.18,0-9.85-3.95-11.08-5.38Z"/>
      </g>
    </g>
  </g>
</svg>