<?xml version="1.0" encoding="UTF-8"?>
<svg id="Layer_2" xmlns="http://www.w3.org/2000/svg" viewBox="0 0 716 140">
  <defs>
    <style>
      .cls-1 {
        fill: #add84f;
      }

      .cls-2 {
        fill: #fff;
      }
    </style>
  </defs>
  <g id="Layer_1-2" data-name="Layer_1">
    <g>
      <rect class="cls-2" width="716" height="140"/>
      <g>
        <g>
          <path class="cls-1" d="M170.4,57.09c-2.18-1.36-5.18-1.91-5.18-2.72s1.09-.27,4.61-1.09c.01,0,.03,0,.04,0,3.29-.26,5.17-1.69,5.4-1.88.02-.01.03-.03.05-.05.15-.2,1.05-1.45.8-2.7-.25-1.24-1.62-1.58-1.87-1.63-.03,0-.05-.01-.08-.03-.23-.13-1.58-.82-4.05-1.07-4.9-.54-4.9,2.45-4.9,2.45,0,0-.27,3-1.63,3.27-1.29.26-1.84-1.91-1.9-2.16,0-.02,0-.03-.01-.04-.11-.25-1.18-2.61-2.99-5.7-1.91-3.27-4.63-6.54-4.63-6.54,0,0-.98-1.15-4.59-2.55-2.16-.84-4.4-1.41-6.69-1.76-7.92-1.18-18.1-1.38-21.26-1.41-.54,0-.97.43-.97.97v21.42c0,.59.47,1.06,1.06,1.07,6.95.1,28.96.32,38.1-.46.3-.03.45.37.2.54-2.23,1.54-7.95,5.73-13.33,11.68-.27.29-.73-.05-.53-.39,1.33-2.24,3.51-5.52,6.44-8.71.18-.19.04-.51-.22-.5-3.7.1-21.03.52-30.56.05-.63-.03-1.16.47-1.16,1.11v24.27c0,.7.57,1.26,1.26,1.26h13.8s5.93-.53,9.46,3.54c3.48,4.01,4.85,5.4,4.9,5.45t0,0c.04.06,1.19,1.9,4.79,1.9h8.45c2.36,0,4.69-.59,6.71-1.81.92-.56,1.82-1.26,2.49-2.14.12-.15.35-.06.34.13-.11,2.07-2.97,6-7.25,6h-8.15c-.16,0-.3.13-.3.3v.97s0,.02,0,.03c.02.18.22,1.73.73,2.24.1.1.23.2.38.3.78.53,1.72.79,2.66.79h11.43c.94,0,1.88-.3,2.59-.92.06-.05.12-.11.18-.17.82-.82.82-2.18.82-2.18v-28.43c0-2.43-.27-4.85-.84-7.21-.18-.74-.36-1.37-.52-1.69-.54-1.09-1.91-2.45-4.09-3.81ZM169.31,65.26c-1.36,5.99-3.54,7.36-12.53,8.45-5.78.7-7.84,1.06-8.73,1.09-.47.01-.81-.46-.64-.9.41-1.09,1.78-3.44,6.37-5.64,6.27-3,12.26-6.27,12.81-6.54s4.09-2.45,2.72,3.54ZM147.24,94.07s-.01-.02-.02-.02c-.08-.14-.2-.29-.37-.47l-3.16-4.06h0c-.03-.05-1.69-3-8.72-3h-13.31c-.62,0-1.13.51-1.13,1.13v6.22c0,.46.37.83.83.83h25.51c.32,0,.52-.34.37-.62h0Z"/>
          <g>
            <path class="cls-1" d="M95.15,72.07s-6.44,0-8.39.53c-3.01.82-5.32,2.74-5.32,4.26,0,3.46.56,6.92,4.2,6.92h31.12c.58,0,1.05-.47,1.05-1.05v-8.47c0-.38-.2-.73-.53-.92-2.27-1.28-4.18-1.28-7.23-1.28h-14.91Z"/>
            <path class="cls-1" d="M95.41,33.11c-11.18,1.09-15.66,3.54-19.57,7.35-3.91,3.81-3.63,10.35-3.63,10.35v3.36c0,.32.22.59.53.67.84.22,2.03.63,3.67,1.43,1.4.68,2.44,1.82,3.2,2.99,1.23,1.9,1.83,4.13,1.83,6.38v6.5c0,.27.32.42.54.25,1.16-.9,4.21-2.78,9.53-2.78h17.22c.06,0,5,0,7.75.98.66.24,1.34-.31,1.34-1.01v-37.06c0-.59-.48-1.06-1.07-1.05-5.95.06-10.77.6-21.33,1.63Z"/>
            <path class="cls-1" d="M80.32,84.06c-1.4-1.63-1.4-3.27-1.4-3.27v-14.99s0-7.08-6.71-8.45h0c-3.92,0-4.75.55-4.75.55-5.87,2.18-5.2,5.99-5.2,9.42-.05,2.11,1.14,3.5,2.47,4.41,2.27,1.53,3.57,4.11,3.57,6.8v8.53c0,5.18,3.64,7.63,6.15,7.63,1.96,0,1.68.55,1.68.82s-1.63,5.11-1.63,5.11c-.14.44.2.88.67.88h4.04c2.03,0,4.5-4.41,5.39-6.14.22-.41.65-.68,1.13-.68h31.05c.58,0,1.05-.47,1.05-1.05v-6.07c0-.58-.47-1.05-1.05-1.05h-31.38c-2.82,0-4.5-1.8-5.06-2.46Z"/>
          </g>
        </g>
        <g>
          <g>
            <path class="cls-1" d="M209,98.34l9.3-60.91h17.78l-3.51,22.75h19.08l3.51-22.75h17.78l-9.3,60.91h-17.78l3.34-22.1h-19.08l-3.34,22.1h-17.78Z"/>
            <path class="cls-1" d="M280.27,52.35h17.45l-7.01,45.99h-17.45l7.01-45.99ZM290.78,31.23c4.98,0,9.05,4,9.05,8.97s-4.08,8.97-9.05,8.97-9.05-4-9.05-8.97,4-8.97,9.05-8.97Z"/>
            <path class="cls-1" d="M318.92,116.77c-6.44,0-14.43-2.28-19.73-6.69l2.53-15.98c5.3,5.38,11.09,7.83,16.63,7.83s11.5-2.36,12.48-8.56l.33-2.04c-2.53,2.94-6.85,5.46-12.39,5.46-10.93,0-17.86-8.81-17.86-20.06,0-14.68,10.36-25.6,22.67-25.6,6.2,0,10.52,2.61,13.21,7.34l2.37-6.12h15.41l-6.03,39.47c-2.69,16.8-14.43,24.95-29.6,24.95ZM325.44,82.11c5.3,0,8.81-4.48,8.81-8.97,0-4.08-2.85-6.85-6.77-6.85-5.3,0-8.81,4.4-8.81,9.05,0,4.08,2.77,6.77,6.77,6.77Z"/>
            <path class="cls-1" d="M363.11,52.35h17.45l-7.01,45.99h-17.45l7.01-45.99ZM373.63,31.23c4.98,0,9.05,4,9.05,8.97s-4.08,8.97-9.05,8.97-9.05-4-9.05-8.97,4-8.97,9.05-8.97Z"/>
          </g>
          <g>
            <path class="cls-1" d="M389.12,98.34l9.3-60.91h21.2c15,0,23.32,7.34,23.32,18.75,0,9.54-5.79,17.29-15.41,20.87l13.13,21.28h-20.47l-9.46-19.16h-.82l-2.94,19.16h-17.86ZM414.48,66.21c6.03,0,10.19-2.36,10.19-7.01,0-3.91-2.94-5.71-8.48-5.71h-2.37l-1.96,12.72h2.61Z"/>
            <path class="cls-1" d="M492.68,98.34h-15l-.49-6.44c-3.91,5.22-8.48,7.75-14.19,7.75-9.78,0-17.2-8.15-17.2-20.96,0-15.98,10.52-27.64,22.75-27.64,5.87,0,10.27,2.69,12.96,7.42l2.37-6.12h15.82l-7.01,45.99ZM470.25,84.23c5.55,0,8.81-5.06,8.81-10.11,0-4.57-2.69-7.58-7.01-7.58-5.46,0-8.81,4.97-8.81,10.11,0,4.57,2.69,7.58,7.01,7.58Z"/>
            <path class="cls-1" d="M523.17,52.35l.24,6.44c3.42-4.89,8.72-7.75,14.43-7.75,9.38,0,16.8,8.24,16.8,20.71,0,16.31-11.01,27.89-22.75,27.89-5.14,0-9.87-2.69-12.15-7.42l-3.59,23.24h-17.45l9.62-63.11h14.84ZM528.56,84.15c5.71,0,8.89-5.14,8.89-10.19,0-4.48-2.45-7.5-6.93-7.5-5.55,0-8.89,4.97-8.89,10.03,0,4.57,2.53,7.66,6.93,7.66Z"/>
            <path class="cls-1" d="M564.52,52.35h17.45l-7.01,45.99h-17.45l7.01-45.99ZM575.03,31.23c4.98,0,9.05,4,9.05,8.97s-4.08,8.97-9.05,8.97-9.05-4-9.05-8.97,4-8.97,9.05-8.97Z"/>
            <path class="cls-1" d="M630.97,98.34h-15.33l-.41-6.44c-3.59,5.14-8.24,7.75-13.62,7.75-9.38,0-16.96-8.24-16.96-20.79,0-16.31,11.66-27.81,22.18-27.81,5.46,0,10.6,2.77,12.8,7.26l3.91-25.69h17.45l-10.03,65.72ZM609.04,84.23c5.54,0,8.89-4.97,8.89-10.03,0-4.57-2.53-7.66-6.93-7.66-5.71,0-8.89,5.14-8.89,10.19,0,4.48,2.45,7.5,6.93,7.5Z"/>
          </g>
        </g>
      </g>
    </g>
  </g>
</svg>