<svg width="500" height="500" viewBox="0 0 500 500" fill="none" xmlns="http://www.w3.org/2000/svg">
<path d="M249.89 450.64C356.972 450.64 443.78 445.572 443.78 439.32C443.78 433.068 356.972 428 249.89 428C142.808 428 56 433.068 56 439.32C56 445.572 142.808 450.64 249.89 450.64Z" fill="#F5F5F5"/>
<path d="M180.34 295.52C179.747 295.481 179.191 295.218 178.785 294.785C178.379 294.351 178.153 293.779 178.153 293.185C178.153 292.591 178.379 292.019 178.785 291.585C179.191 291.152 179.747 290.889 180.34 290.85C186.06 290.85 190.88 282.66 190.88 272.96C190.919 272.367 191.182 271.811 191.615 271.405C192.049 270.999 192.621 270.773 193.215 270.773C193.809 270.773 194.381 270.999 194.815 271.405C195.248 271.811 195.511 272.367 195.55 272.96C195.55 285.61 188.89 295.52 180.34 295.52Z" fill="#407BFF"/>
<path d="M215.63 295.52C215.037 295.481 214.481 295.218 214.075 294.785C213.669 294.351 213.443 293.779 213.443 293.185C213.443 292.591 213.669 292.019 214.075 291.585C214.481 291.152 215.037 290.889 215.63 290.85C221.35 290.85 226.17 282.66 226.17 272.96C226.209 272.367 226.472 271.811 226.905 271.405C227.339 270.999 227.911 270.773 228.505 270.773C229.099 270.773 229.671 270.999 230.105 271.405C230.538 271.811 230.801 272.367 230.84 272.96C230.89 285.61 224.16 295.52 215.63 295.52Z" fill="#407BFF"/>
<path d="M250.89 295.52C250.297 295.481 249.741 295.218 249.335 294.785C248.929 294.351 248.703 293.779 248.703 293.185C248.703 292.591 248.929 292.019 249.335 291.585C249.741 291.152 250.297 290.889 250.89 290.85C256.6 290.85 261.43 282.66 261.43 272.96C261.43 272.342 261.675 271.749 262.112 271.312C262.549 270.875 263.142 270.63 263.76 270.63C264.378 270.63 264.971 270.875 265.408 271.312C265.845 271.749 266.09 272.342 266.09 272.96C266.12 285.61 259.45 295.52 250.89 295.52Z" fill="#407BFF"/>
<path d="M286.21 295.52C285.89 295.541 285.57 295.496 285.269 295.388C284.967 295.28 284.691 295.112 284.457 294.893C284.224 294.674 284.037 294.409 283.91 294.116C283.783 293.822 283.717 293.505 283.717 293.185C283.717 292.865 283.783 292.548 283.91 292.254C284.037 291.96 284.224 291.696 284.457 291.477C284.691 291.258 284.967 291.09 285.269 290.982C285.57 290.874 285.89 290.829 286.21 290.85C291.92 290.85 296.75 282.66 296.75 272.96C296.75 272.342 296.995 271.749 297.432 271.312C297.869 270.875 298.462 270.63 299.08 270.63C299.698 270.63 300.291 270.875 300.727 271.312C301.164 271.749 301.41 272.342 301.41 272.96C301.41 285.61 294.73 295.52 286.21 295.52Z" fill="#407BFF"/>
<path d="M321.49 295.52C320.897 295.481 320.341 295.218 319.935 294.785C319.529 294.351 319.303 293.779 319.303 293.185C319.303 292.591 319.529 292.019 319.935 291.585C320.341 291.152 320.897 290.889 321.49 290.85C327.21 290.85 332.03 282.66 332.03 272.96C332.069 272.367 332.332 271.811 332.765 271.405C333.199 270.999 333.771 270.773 334.365 270.773C334.959 270.773 335.531 270.999 335.965 271.405C336.398 271.811 336.661 272.367 336.7 272.96C336.7 285.61 330.02 295.52 321.49 295.52Z" fill="#407BFF"/>
<path d="M356.78 295.52C356.187 295.481 355.631 295.218 355.225 294.785C354.819 294.351 354.593 293.779 354.593 293.185C354.593 292.591 354.819 292.019 355.225 291.585C355.631 291.152 356.187 290.889 356.78 290.85C362.49 290.85 367.32 282.66 367.32 272.96C367.359 272.367 367.622 271.811 368.055 271.405C368.489 270.999 369.061 270.773 369.655 270.773C370.249 270.773 370.821 270.999 371.255 271.405C371.688 271.811 371.951 272.367 371.99 272.96C371.99 285.61 365.31 295.52 356.78 295.52Z" fill="#407BFF"/>
<g opacity="0.3">
<path d="M180.34 295.52C179.747 295.481 179.191 295.218 178.785 294.785C178.379 294.351 178.153 293.779 178.153 293.185C178.153 292.591 178.379 292.019 178.785 291.585C179.191 291.152 179.747 290.889 180.34 290.85C186.06 290.85 190.88 282.66 190.88 272.96C190.919 272.367 191.182 271.811 191.615 271.405C192.049 270.999 192.621 270.773 193.215 270.773C193.809 270.773 194.381 270.999 194.815 271.405C195.248 271.811 195.511 272.367 195.55 272.96C195.55 285.61 188.89 295.52 180.34 295.52Z" fill="black"/>
<path d="M215.63 295.52C215.037 295.481 214.481 295.218 214.075 294.785C213.669 294.351 213.443 293.779 213.443 293.185C213.443 292.591 213.669 292.019 214.075 291.585C214.481 291.152 215.037 290.889 215.63 290.85C221.35 290.85 226.17 282.66 226.17 272.96C226.209 272.367 226.472 271.811 226.905 271.405C227.339 270.999 227.911 270.773 228.505 270.773C229.099 270.773 229.671 270.999 230.105 271.405C230.538 271.811 230.801 272.367 230.84 272.96C230.89 285.61 224.16 295.52 215.63 295.52Z" fill="black"/>
<path d="M250.89 295.52C250.297 295.481 249.741 295.218 249.335 294.785C248.929 294.351 248.703 293.779 248.703 293.185C248.703 292.591 248.929 292.019 249.335 291.585C249.741 291.152 250.297 290.889 250.89 290.85C256.6 290.85 261.43 282.66 261.43 272.96C261.43 272.342 261.675 271.749 262.112 271.312C262.549 270.875 263.142 270.63 263.76 270.63C264.378 270.63 264.971 270.875 265.408 271.312C265.845 271.749 266.09 272.342 266.09 272.96C266.12 285.61 259.45 295.52 250.89 295.52Z" fill="black"/>
<path d="M286.21 295.52C285.89 295.541 285.57 295.496 285.269 295.388C284.967 295.28 284.691 295.112 284.457 294.893C284.224 294.674 284.037 294.409 283.91 294.116C283.783 293.822 283.717 293.505 283.717 293.185C283.717 292.865 283.783 292.548 283.91 292.254C284.037 291.96 284.224 291.696 284.457 291.477C284.691 291.258 284.967 291.09 285.269 290.982C285.57 290.874 285.89 290.829 286.21 290.85C291.92 290.85 296.75 282.66 296.75 272.96C296.75 272.342 296.995 271.749 297.432 271.312C297.869 270.875 298.462 270.63 299.08 270.63C299.698 270.63 300.291 270.875 300.727 271.312C301.164 271.749 301.41 272.342 301.41 272.96C301.41 285.61 294.73 295.52 286.21 295.52Z" fill="black"/>
<path d="M321.49 295.52C320.897 295.481 320.341 295.218 319.935 294.785C319.529 294.351 319.303 293.779 319.303 293.185C319.303 292.591 319.529 292.019 319.935 291.585C320.341 291.152 320.897 290.889 321.49 290.85C327.21 290.85 332.03 282.66 332.03 272.96C332.069 272.367 332.332 271.811 332.765 271.405C333.199 270.999 333.771 270.773 334.365 270.773C334.959 270.773 335.531 270.999 335.965 271.405C336.398 271.811 336.661 272.367 336.7 272.96C336.7 285.61 330.02 295.52 321.49 295.52Z" fill="black"/>
<path d="M356.78 295.52C356.187 295.481 355.631 295.218 355.225 294.785C354.819 294.351 354.593 293.779 354.593 293.185C354.593 292.591 354.819 292.019 355.225 291.585C355.631 291.152 356.187 290.889 356.78 290.85C362.49 290.85 367.32 282.66 367.32 272.96C367.359 272.367 367.622 271.811 368.055 271.405C368.489 270.999 369.061 270.773 369.655 270.773C370.249 270.773 370.821 270.999 371.255 271.405C371.688 271.811 371.951 272.367 371.99 272.96C371.99 285.61 365.31 295.52 356.78 295.52Z" fill="black"/>
</g>
<path d="M158.23 275.35H385.41C388.456 275.411 391.375 276.581 393.619 278.642C395.864 280.702 397.279 283.51 397.6 286.54L410.18 428.37C410.333 429.793 410.182 431.232 409.737 432.593C409.292 433.953 408.564 435.204 407.6 436.262C406.635 437.319 405.458 438.16 404.144 438.729C402.83 439.298 401.411 439.581 399.98 439.56H172.79C169.745 439.495 166.829 438.323 164.585 436.263C162.342 434.204 160.925 431.398 160.6 428.37L148.03 286.54C147.875 285.116 148.025 283.676 148.469 282.315C148.913 280.954 149.642 279.703 150.606 278.645C151.571 277.587 152.75 276.746 154.064 276.177C155.378 275.609 156.798 275.327 158.23 275.35Z" fill="#407BFF"/>
<path opacity="0.4" d="M158.23 275.35H385.41C388.456 275.411 391.375 276.581 393.619 278.642C395.864 280.702 397.279 283.51 397.6 286.54L410.18 428.37C410.333 429.793 410.182 431.232 409.737 432.593C409.292 433.953 408.564 435.204 407.6 436.262C406.635 437.319 405.458 438.16 404.144 438.729C402.83 439.298 401.411 439.581 399.98 439.56H172.79C169.745 439.495 166.829 438.323 164.585 436.263C162.342 434.204 160.925 431.398 160.6 428.37L148.03 286.54C147.875 285.116 148.025 283.676 148.469 282.315C148.913 280.954 149.642 279.703 150.606 278.645C151.571 277.587 152.75 276.746 154.064 276.177C155.378 275.609 156.798 275.327 158.23 275.35Z" fill="#FAFAFA"/>
<path d="M383.52 275.35H156.33C153.325 275.386 150.446 276.561 148.274 278.638C146.102 280.715 144.8 283.539 144.63 286.54L138.23 428.37C138.154 429.815 138.373 431.26 138.875 432.617C139.377 433.974 140.151 435.214 141.149 436.262C142.147 437.31 143.348 438.143 144.679 438.71C146.01 439.277 147.443 439.566 148.89 439.56H376.1C379.105 439.524 381.984 438.349 384.156 436.272C386.328 434.195 387.63 431.37 387.8 428.37L394.21 286.54C394.285 285.093 394.063 283.646 393.559 282.287C393.055 280.929 392.279 279.688 391.278 278.64C390.277 277.592 389.072 276.76 387.738 276.194C386.404 275.628 384.969 275.341 383.52 275.35Z" fill="#407BFF"/>
<path opacity="0.2" d="M383.52 275.35H156.33C153.325 275.386 150.446 276.561 148.274 278.638C146.102 280.715 144.8 283.539 144.63 286.54L138.23 428.37C138.154 429.815 138.373 431.26 138.875 432.617C139.377 433.974 140.151 435.214 141.149 436.262C142.147 437.31 143.348 438.143 144.679 438.71C146.01 439.277 147.443 439.566 148.89 439.56H376.1C379.105 439.524 381.984 438.349 384.156 436.272C386.328 434.195 387.63 431.37 387.8 428.37L394.21 286.54C394.285 285.093 394.063 283.646 393.559 282.287C393.055 280.929 392.279 279.688 391.278 278.64C390.277 277.592 389.072 276.76 387.738 276.194C386.404 275.628 384.969 275.341 383.52 275.35Z" fill="#FAFAFA"/>
<path d="M160.5 402.08L165.79 284.95C165.853 283.801 166.352 282.719 167.184 281.924C168.016 281.129 169.119 280.681 170.27 280.67H369.1C369.654 280.666 370.203 280.776 370.714 280.993C371.224 281.209 371.685 281.527 372.068 281.928C372.451 282.329 372.748 282.803 372.941 283.323C373.134 283.843 373.219 284.396 373.19 284.95L367.89 402.08C367.826 403.229 367.328 404.311 366.496 405.106C365.664 405.9 364.561 406.349 363.41 406.36H164.59C164.036 406.363 163.486 406.254 162.976 406.037C162.466 405.821 162.005 405.503 161.622 405.102C161.239 404.701 160.942 404.226 160.749 403.707C160.556 403.187 160.471 402.633 160.5 402.08Z" fill="#407BFF"/>
<path opacity="0.1" d="M160.5 402.08L165.79 284.95C165.853 283.801 166.352 282.719 167.184 281.924C168.016 281.129 169.119 280.681 170.27 280.67H369.1C369.654 280.666 370.203 280.776 370.714 280.993C371.224 281.209 371.685 281.527 372.068 281.928C372.451 282.329 372.748 282.803 372.941 283.323C373.134 283.843 373.219 284.396 373.19 284.95L367.89 402.08C367.826 403.229 367.328 404.311 366.496 405.106C365.664 405.9 364.561 406.349 363.41 406.36H164.59C164.036 406.363 163.486 406.254 162.976 406.037C162.466 405.821 162.005 405.503 161.622 405.102C161.239 404.701 160.942 404.226 160.749 403.707C160.556 403.187 160.471 402.633 160.5 402.08Z" fill="#FAFAFA"/>
<path opacity="0.1" d="M154.89 411.64L160.44 288.64C160.504 287.434 161.026 286.297 161.899 285.462C162.773 284.628 163.932 284.158 165.14 284.15H373.94C374.522 284.145 375.098 284.259 375.634 284.486C376.17 284.712 376.654 285.046 377.056 285.467C377.458 285.888 377.77 286.386 377.972 286.932C378.173 287.478 378.261 288.059 378.23 288.64L372.67 411.64C372.606 412.846 372.086 413.982 371.215 414.818C370.344 415.654 369.187 416.126 367.98 416.14H159.16C158.578 416.144 158.002 416.028 157.467 415.8C156.932 415.572 156.45 415.237 156.05 414.815C155.649 414.394 155.34 413.894 155.14 413.348C154.941 412.802 154.856 412.22 154.89 411.64Z" fill="black"/>
<path d="M149.73 421.56L155.52 293.26C155.598 292.005 156.145 290.826 157.053 289.957C157.961 289.088 159.163 288.593 160.42 288.57H378.23C378.838 288.565 379.44 288.684 380 288.921C380.559 289.158 381.065 289.507 381.484 289.946C381.904 290.385 382.229 290.906 382.44 291.476C382.651 292.046 382.743 292.653 382.71 293.26L376.89 421.56C376.812 422.814 376.265 423.994 375.357 424.863C374.449 425.732 373.247 426.227 371.99 426.25H154.21C153.602 426.256 152.999 426.138 152.439 425.902C151.878 425.666 151.372 425.317 150.952 424.877C150.532 424.437 150.207 423.916 149.997 423.345C149.786 422.775 149.696 422.167 149.73 421.56Z" fill="#FAFAFA"/>
<path d="M356.75 296.26C356.34 296.261 355.935 296.177 355.559 296.016C355.183 295.854 354.844 295.617 354.562 295.319C354.281 295.021 354.064 294.668 353.925 294.283C353.785 293.898 353.725 293.489 353.75 293.08C353.788 292.278 354.131 291.52 354.71 290.963C355.288 290.405 356.057 290.089 356.86 290.08C357.27 290.079 357.675 290.162 358.051 290.324C358.427 290.486 358.767 290.723 359.048 291.021C359.329 291.319 359.546 291.671 359.685 292.056C359.825 292.442 359.885 292.851 359.86 293.26C359.822 294.062 359.479 294.82 358.901 295.377C358.322 295.935 357.553 296.251 356.75 296.26Z" fill="#407BFF"/>
<path d="M321.46 296.26C321.05 296.261 320.645 296.177 320.269 296.016C319.893 295.854 319.553 295.617 319.272 295.319C318.991 295.021 318.774 294.668 318.635 294.283C318.495 293.898 318.435 293.489 318.46 293.08C318.498 292.278 318.841 291.52 319.419 290.963C319.998 290.405 320.767 290.089 321.57 290.08C321.98 290.079 322.385 290.162 322.761 290.324C323.137 290.486 323.477 290.723 323.758 291.021C324.039 291.319 324.256 291.671 324.395 292.056C324.535 292.442 324.595 292.851 324.57 293.26C324.534 294.063 324.192 294.822 323.613 295.38C323.035 295.938 322.264 296.253 321.46 296.26Z" fill="#407BFF"/>
<path d="M286.17 296.26C285.76 296.261 285.355 296.177 284.979 296.016C284.603 295.854 284.263 295.617 283.982 295.319C283.701 295.021 283.484 294.668 283.345 294.283C283.205 293.898 283.145 293.489 283.17 293.08C283.211 292.278 283.554 291.522 284.132 290.965C284.71 290.408 285.478 290.092 286.28 290.08C286.69 290.079 287.095 290.162 287.471 290.324C287.847 290.486 288.186 290.723 288.468 291.021C288.749 291.319 288.966 291.671 289.105 292.056C289.245 292.442 289.305 292.851 289.28 293.26C289.244 294.063 288.902 294.822 288.323 295.38C287.744 295.938 286.974 296.253 286.17 296.26Z" fill="#407BFF"/>
<path d="M250.89 296.26C250.48 296.261 250.075 296.177 249.699 296.016C249.322 295.854 248.983 295.617 248.702 295.319C248.421 295.021 248.204 294.668 248.064 294.283C247.925 293.898 247.865 293.489 247.89 293.08C247.933 292.278 248.279 291.521 248.858 290.965C249.437 290.408 250.206 290.091 251.01 290.08C251.42 290.079 251.825 290.162 252.201 290.324C252.577 290.486 252.916 290.723 253.198 291.021C253.479 291.319 253.696 291.671 253.835 292.056C253.975 292.442 254.034 292.851 254.01 293.26C253.974 294.065 253.63 294.825 253.049 295.383C252.469 295.942 251.696 296.256 250.89 296.26Z" fill="#407BFF"/>
<path d="M215.6 296.26C215.19 296.261 214.785 296.177 214.409 296.016C214.033 295.854 213.693 295.617 213.412 295.319C213.131 295.021 212.914 294.668 212.775 294.283C212.635 293.898 212.575 293.489 212.6 293.08C212.638 292.278 212.981 291.52 213.56 290.963C214.138 290.405 214.907 290.089 215.71 290.08C216.12 290.079 216.525 290.162 216.901 290.324C217.277 290.486 217.617 290.723 217.898 291.021C218.179 291.319 218.396 291.671 218.535 292.056C218.675 292.442 218.735 292.851 218.71 293.26C218.672 294.062 218.329 294.82 217.75 295.377C217.172 295.935 216.403 296.251 215.6 296.26Z" fill="#407BFF"/>
<path d="M180.31 296.26C179.9 296.261 179.495 296.177 179.119 296.016C178.743 295.854 178.403 295.617 178.122 295.319C177.841 295.021 177.624 294.668 177.485 294.283C177.345 293.898 177.285 293.489 177.31 293.08C177.348 292.278 177.691 291.52 178.269 290.963C178.848 290.405 179.617 290.089 180.42 290.08C180.83 290.079 181.235 290.162 181.611 290.324C181.987 290.486 182.326 290.723 182.608 291.021C182.889 291.319 183.106 291.671 183.245 292.056C183.385 292.442 183.445 292.851 183.42 293.26C183.384 294.063 183.042 294.822 182.463 295.38C181.884 295.938 181.114 296.253 180.31 296.26Z" fill="#407BFF"/>
<g opacity="0.1">
<path d="M356.75 296.26C356.34 296.261 355.935 296.177 355.559 296.016C355.182 295.854 354.843 295.617 354.562 295.319C354.281 295.021 354.064 294.668 353.924 294.283C353.785 293.898 353.725 293.489 353.75 293.08C353.788 292.278 354.131 291.52 354.709 290.963C355.288 290.405 356.057 290.089 356.86 290.08C357.27 290.079 357.675 290.162 358.051 290.324C358.427 290.486 358.766 290.723 359.048 291.021C359.329 291.319 359.546 291.671 359.685 292.056C359.825 292.442 359.885 292.851 359.86 293.26C359.822 294.062 359.479 294.82 358.9 295.377C358.322 295.935 357.553 296.251 356.75 296.26Z" fill="#FAFAFA"/>
<path d="M321.46 296.26C321.05 296.261 320.645 296.177 320.269 296.016C319.893 295.854 319.553 295.617 319.272 295.319C318.991 295.021 318.774 294.668 318.635 294.283C318.495 293.898 318.435 293.489 318.46 293.08C318.498 292.278 318.841 291.52 319.419 290.963C319.998 290.405 320.767 290.089 321.57 290.08C321.98 290.079 322.385 290.162 322.761 290.324C323.137 290.486 323.477 290.723 323.758 291.021C324.039 291.319 324.256 291.671 324.395 292.056C324.535 292.442 324.595 292.851 324.57 293.26C324.534 294.063 324.192 294.822 323.613 295.38C323.035 295.938 322.264 296.253 321.46 296.26Z" fill="#FAFAFA"/>
<path d="M286.17 296.26C285.76 296.261 285.355 296.177 284.979 296.016C284.603 295.854 284.263 295.617 283.982 295.319C283.701 295.021 283.484 294.668 283.345 294.283C283.205 293.898 283.145 293.489 283.17 293.08C283.211 292.278 283.554 291.522 284.132 290.965C284.71 290.408 285.478 290.092 286.28 290.08C286.69 290.079 287.095 290.162 287.471 290.324C287.847 290.486 288.186 290.723 288.468 291.021C288.749 291.319 288.966 291.671 289.105 292.056C289.245 292.442 289.305 292.851 289.28 293.26C289.244 294.063 288.902 294.822 288.323 295.38C287.744 295.938 286.974 296.253 286.17 296.26Z" fill="#FAFAFA"/>
<path d="M250.89 296.26C250.48 296.261 250.075 296.177 249.699 296.016C249.322 295.854 248.983 295.617 248.702 295.319C248.421 295.021 248.204 294.668 248.064 294.283C247.925 293.898 247.865 293.489 247.89 293.08C247.933 292.278 248.279 291.521 248.858 290.965C249.437 290.408 250.206 290.091 251.01 290.08C251.42 290.079 251.825 290.162 252.201 290.324C252.577 290.486 252.916 290.723 253.198 291.021C253.479 291.319 253.696 291.671 253.835 292.056C253.975 292.442 254.034 292.851 254.01 293.26C253.974 294.065 253.63 294.825 253.049 295.383C252.469 295.942 251.696 296.256 250.89 296.26Z" fill="#FAFAFA"/>
<path d="M215.6 296.26C215.19 296.261 214.785 296.177 214.409 296.016C214.033 295.854 213.693 295.617 213.412 295.319C213.131 295.021 212.914 294.668 212.775 294.283C212.635 293.898 212.575 293.489 212.6 293.08C212.638 292.278 212.981 291.52 213.56 290.963C214.138 290.405 214.907 290.089 215.71 290.08C216.12 290.079 216.525 290.162 216.901 290.324C217.277 290.486 217.617 290.723 217.898 291.021C218.179 291.319 218.396 291.671 218.535 292.056C218.675 292.442 218.735 292.851 218.71 293.26C218.672 294.062 218.329 294.82 217.75 295.377C217.172 295.935 216.403 296.251 215.6 296.26Z" fill="#FAFAFA"/>
<path d="M180.31 296.26C179.9 296.261 179.495 296.177 179.119 296.016C178.743 295.854 178.403 295.617 178.122 295.319C177.841 295.021 177.624 294.668 177.485 294.283C177.345 293.898 177.285 293.489 177.31 293.08C177.348 292.278 177.691 291.52 178.269 290.963C178.848 290.405 179.617 290.089 180.42 290.08C180.83 290.079 181.235 290.162 181.611 290.324C181.987 290.486 182.326 290.723 182.608 291.021C182.889 291.319 183.106 291.671 183.245 292.056C183.385 292.442 183.445 292.851 183.42 293.26C183.384 294.063 183.042 294.822 182.463 295.38C181.884 295.938 181.114 296.253 180.31 296.26Z" fill="#FAFAFA"/>
</g>
<path d="M189.13 307.44H171.38C171.123 307.442 170.868 307.391 170.631 307.289C170.395 307.188 170.182 307.038 170.006 306.85C169.83 306.662 169.695 306.44 169.61 306.197C169.525 305.954 169.491 305.696 169.51 305.44C169.53 304.916 169.747 304.419 170.118 304.048C170.489 303.677 170.986 303.46 171.51 303.44H189.26C189.517 303.438 189.772 303.489 190.009 303.591C190.245 303.692 190.458 303.842 190.634 304.03C190.81 304.217 190.944 304.44 191.03 304.683C191.115 304.925 191.149 305.183 191.13 305.44C191.11 305.964 190.893 306.461 190.522 306.832C190.151 307.203 189.654 307.42 189.13 307.44Z" fill="#407BFF"/>
<path d="M224.42 307.44H206.67C206.413 307.442 206.158 307.391 205.921 307.289C205.685 307.188 205.472 307.038 205.296 306.85C205.12 306.662 204.985 306.44 204.9 306.197C204.815 305.954 204.781 305.696 204.8 305.44C204.82 304.907 205.044 304.403 205.426 304.031C205.807 303.659 206.317 303.447 206.85 303.44H224.59C224.848 303.438 225.103 303.489 225.34 303.591C225.577 303.692 225.79 303.841 225.967 304.029C226.144 304.217 226.279 304.439 226.366 304.682C226.452 304.925 226.488 305.183 226.47 305.44C226.45 305.972 226.225 306.477 225.844 306.849C225.463 307.221 224.953 307.433 224.42 307.44Z" fill="#407BFF"/>
<path d="M259.71 307.44H241.96C241.702 307.442 241.447 307.391 241.21 307.289C240.973 307.188 240.759 307.039 240.583 306.851C240.406 306.663 240.271 306.441 240.184 306.198C240.097 305.955 240.062 305.697 240.08 305.44C240.1 304.907 240.324 304.403 240.706 304.031C241.087 303.659 241.597 303.447 242.13 303.44H259.89C260.147 303.438 260.402 303.489 260.639 303.591C260.875 303.692 261.088 303.842 261.264 304.03C261.44 304.217 261.574 304.44 261.66 304.683C261.745 304.925 261.779 305.183 261.76 305.44C261.742 305.973 261.519 306.479 261.137 306.852C260.755 307.224 260.244 307.435 259.71 307.44Z" fill="#407BFF"/>
<path d="M294.99 307.44H277.24C276.983 307.442 276.728 307.391 276.491 307.289C276.255 307.188 276.042 307.038 275.866 306.85C275.69 306.662 275.556 306.44 275.47 306.197C275.385 305.954 275.351 305.696 275.37 305.44C275.39 304.916 275.607 304.419 275.978 304.048C276.349 303.677 276.846 303.46 277.37 303.44H295.12C295.377 303.438 295.632 303.489 295.869 303.591C296.105 303.692 296.318 303.842 296.494 304.03C296.67 304.217 296.805 304.44 296.89 304.683C296.975 304.925 297.009 305.183 296.99 305.44C296.97 305.964 296.753 306.461 296.382 306.832C296.011 307.203 295.514 307.42 294.99 307.44Z" fill="#407BFF"/>
<path d="M330.28 307.44H312.53C312.273 307.442 312.018 307.391 311.781 307.289C311.545 307.188 311.332 307.038 311.156 306.85C310.98 306.662 310.845 306.44 310.76 306.197C310.675 305.954 310.641 305.696 310.66 305.44C310.68 304.907 310.904 304.403 311.286 304.031C311.667 303.659 312.177 303.447 312.71 303.44H330.46C330.717 303.438 330.972 303.489 331.209 303.591C331.445 303.692 331.658 303.842 331.834 304.03C332.01 304.217 332.144 304.44 332.23 304.683C332.315 304.925 332.349 305.183 332.33 305.44C332.31 305.972 332.085 306.477 331.704 306.849C331.323 307.221 330.813 307.433 330.28 307.44Z" fill="#407BFF"/>
<path d="M365.57 307.44H347.82C347.563 307.442 347.308 307.391 347.071 307.289C346.835 307.188 346.622 307.038 346.446 306.85C346.27 306.662 346.135 306.44 346.05 306.197C345.965 305.954 345.931 305.696 345.95 305.44C345.97 304.907 346.194 304.403 346.576 304.031C346.957 303.659 347.467 303.447 348 303.44H365.74C365.998 303.438 366.253 303.489 366.49 303.591C366.727 303.692 366.94 303.841 367.117 304.029C367.294 304.217 367.429 304.439 367.516 304.682C367.602 304.925 367.638 305.183 367.62 305.44C367.6 305.972 367.375 306.477 366.994 306.849C366.613 307.221 366.103 307.433 365.57 307.44Z" fill="#407BFF"/>
<g opacity="0.3">
<path d="M189.13 307.44H171.38C171.123 307.442 170.868 307.391 170.631 307.289C170.395 307.188 170.182 307.038 170.006 306.85C169.83 306.662 169.695 306.44 169.61 306.197C169.525 305.954 169.491 305.696 169.51 305.44C169.53 304.916 169.747 304.419 170.118 304.048C170.489 303.677 170.986 303.46 171.51 303.44H189.26C189.517 303.438 189.772 303.489 190.009 303.591C190.245 303.692 190.458 303.842 190.634 304.03C190.81 304.217 190.944 304.44 191.03 304.683C191.115 304.925 191.149 305.183 191.13 305.44C191.11 305.964 190.893 306.461 190.522 306.832C190.151 307.203 189.654 307.42 189.13 307.44Z" fill="black"/>
<path d="M224.42 307.44H206.67C206.413 307.442 206.158 307.391 205.921 307.289C205.685 307.188 205.472 307.038 205.296 306.85C205.12 306.662 204.985 306.44 204.9 306.197C204.815 305.954 204.781 305.696 204.8 305.44C204.82 304.907 205.044 304.403 205.426 304.031C205.807 303.659 206.317 303.447 206.85 303.44H224.59C224.848 303.438 225.103 303.489 225.34 303.591C225.577 303.692 225.79 303.841 225.967 304.029C226.144 304.217 226.279 304.439 226.366 304.682C226.452 304.925 226.488 305.183 226.47 305.44C226.45 305.972 226.225 306.477 225.844 306.849C225.463 307.221 224.953 307.433 224.42 307.44Z" fill="black"/>
<path d="M259.71 307.44H241.96C241.702 307.442 241.447 307.391 241.21 307.289C240.973 307.188 240.759 307.039 240.583 306.851C240.406 306.663 240.271 306.441 240.184 306.198C240.097 305.955 240.062 305.697 240.08 305.44C240.1 304.907 240.324 304.403 240.706 304.031C241.087 303.659 241.597 303.447 242.13 303.44H259.89C260.147 303.438 260.402 303.489 260.639 303.591C260.875 303.692 261.088 303.842 261.264 304.03C261.44 304.217 261.574 304.44 261.66 304.683C261.745 304.925 261.779 305.183 261.76 305.44C261.742 305.973 261.519 306.479 261.137 306.852C260.755 307.224 260.244 307.435 259.71 307.44Z" fill="black"/>
<path d="M294.99 307.44H277.24C276.983 307.442 276.728 307.391 276.491 307.289C276.255 307.188 276.042 307.038 275.866 306.85C275.69 306.662 275.555 306.44 275.47 306.197C275.385 305.954 275.351 305.696 275.37 305.44C275.39 304.916 275.607 304.419 275.978 304.048C276.348 303.677 276.846 303.46 277.37 303.44H295.12C295.377 303.438 295.632 303.489 295.869 303.591C296.105 303.692 296.318 303.842 296.494 304.03C296.67 304.217 296.804 304.44 296.89 304.683C296.975 304.925 297.009 305.183 296.99 305.44C296.97 305.964 296.753 306.461 296.382 306.832C296.011 307.203 295.514 307.42 294.99 307.44Z" fill="black"/>
<path d="M330.28 307.44H312.53C312.273 307.442 312.018 307.391 311.781 307.289C311.545 307.188 311.332 307.038 311.156 306.85C310.98 306.662 310.845 306.44 310.76 306.197C310.675 305.954 310.641 305.696 310.66 305.44C310.68 304.907 310.904 304.403 311.286 304.031C311.667 303.659 312.177 303.447 312.71 303.44H330.46C330.717 303.438 330.972 303.489 331.209 303.591C331.445 303.692 331.658 303.842 331.834 304.03C332.01 304.217 332.144 304.44 332.23 304.683C332.315 304.925 332.349 305.183 332.33 305.44C332.31 305.972 332.085 306.477 331.704 306.849C331.323 307.221 330.813 307.433 330.28 307.44Z" fill="black"/>
<path d="M365.57 307.44H347.82C347.563 307.442 347.308 307.391 347.071 307.289C346.835 307.188 346.622 307.038 346.446 306.85C346.27 306.662 346.135 306.44 346.05 306.197C345.965 305.954 345.93 305.696 345.95 305.44C345.97 304.907 346.194 304.403 346.576 304.031C346.957 303.659 347.467 303.447 348 303.44H365.74C365.998 303.438 366.253 303.489 366.49 303.591C366.727 303.692 366.94 303.841 367.117 304.029C367.293 304.217 367.429 304.439 367.516 304.682C367.602 304.925 367.638 305.183 367.62 305.44C367.599 305.972 367.375 306.477 366.994 306.849C366.612 307.221 366.103 307.433 365.57 307.44Z" fill="black"/>
</g>
<path d="M190.11 345.21H166.99C166.483 345.212 165.981 345.111 165.514 344.912C165.048 344.713 164.626 344.422 164.276 344.055C163.926 343.688 163.655 343.253 163.478 342.778C163.302 342.303 163.224 341.796 163.25 341.29L164.25 318.17C164.311 317.119 164.767 316.13 165.528 315.403C166.289 314.675 167.297 314.263 168.35 314.25H191.47C191.977 314.248 192.479 314.349 192.946 314.548C193.412 314.746 193.834 315.038 194.184 315.405C194.534 315.772 194.805 316.206 194.982 316.682C195.158 317.157 195.236 317.663 195.21 318.17L194.21 341.29C194.147 342.34 193.69 343.327 192.929 344.054C192.169 344.781 191.162 345.194 190.11 345.21Z" fill="#407BFF"/>
<path d="M225.4 345.21H202.28C201.772 345.213 201.27 345.113 200.802 344.915C200.335 344.717 199.913 344.425 199.563 344.058C199.213 343.691 198.941 343.256 198.765 342.78C198.589 342.304 198.513 341.797 198.54 341.29L199.54 318.17C199.601 317.119 200.057 316.13 200.818 315.403C201.579 314.675 202.587 314.263 203.64 314.25H226.79C227.297 314.248 227.8 314.349 228.267 314.548C228.734 314.746 229.156 315.038 229.507 315.405C229.858 315.771 230.13 316.206 230.308 316.681C230.485 317.156 230.564 317.663 230.54 318.17L229.49 341.29C229.432 342.34 228.977 343.329 228.218 344.056C227.459 344.784 226.451 345.196 225.4 345.21Z" fill="#407BFF"/>
<path d="M260.68 345.21H237.57C237.063 345.212 236.56 345.11 236.093 344.912C235.626 344.713 235.204 344.422 234.853 344.055C234.502 343.689 234.23 343.254 234.052 342.779C233.875 342.303 233.796 341.797 233.82 341.29L234.82 318.17C234.881 317.119 235.337 316.13 236.098 315.403C236.859 314.675 237.867 314.263 238.92 314.25H262.03C262.538 314.246 263.04 314.347 263.508 314.545C263.975 314.743 264.397 315.035 264.747 315.402C265.097 315.769 265.369 316.204 265.545 316.68C265.721 317.156 265.797 317.663 265.77 318.17L264.77 341.29C264.71 342.339 264.254 343.326 263.495 344.054C262.737 344.781 261.731 345.194 260.68 345.21Z" fill="#407BFF"/>
<path d="M295.97 345.21H272.89C272.382 345.213 271.879 345.113 271.411 344.915C270.943 344.717 270.521 344.425 270.17 344.058C269.819 343.691 269.546 343.256 269.369 342.78C269.192 342.304 269.114 341.797 269.14 341.29L270.14 318.17C270.198 317.12 270.653 316.131 271.412 315.403C272.171 314.676 273.178 314.264 274.23 314.25H297.35C297.857 314.248 298.359 314.349 298.826 314.548C299.292 314.746 299.714 315.038 300.064 315.405C300.414 315.772 300.685 316.206 300.862 316.682C301.038 317.157 301.116 317.663 301.09 318.17L300.09 341.29C300.029 342.344 299.569 343.336 298.804 344.064C298.039 344.792 297.026 345.202 295.97 345.21Z" fill="#407BFF"/>
<path d="M331.26 345.21H308.14C307.633 345.212 307.131 345.11 306.664 344.912C306.198 344.713 305.776 344.422 305.426 344.055C305.076 343.688 304.805 343.253 304.628 342.778C304.452 342.303 304.374 341.796 304.4 341.29L305.4 318.17C305.461 317.119 305.917 316.13 306.678 315.403C307.439 314.675 308.447 314.263 309.5 314.25H332.61C333.118 314.247 333.621 314.347 334.089 314.545C334.557 314.743 334.979 315.034 335.33 315.401C335.681 315.768 335.954 316.203 336.131 316.679C336.308 317.155 336.386 317.663 336.36 318.17L335.36 341.29C335.297 342.34 334.84 343.327 334.079 344.054C333.319 344.781 332.312 345.194 331.26 345.21Z" fill="#407BFF"/>
<path d="M366.54 345.21H343.43C342.922 345.213 342.42 345.113 341.952 344.915C341.485 344.717 341.063 344.425 340.713 344.058C340.363 343.691 340.091 343.256 339.915 342.78C339.739 342.304 339.663 341.797 339.69 341.29L340.69 318.17C340.751 317.119 341.207 316.13 341.968 315.403C342.729 314.675 343.737 314.263 344.79 314.25H367.9C368.407 314.248 368.91 314.349 369.377 314.548C369.844 314.746 370.266 315.038 370.617 315.405C370.968 315.771 371.24 316.206 371.418 316.681C371.595 317.156 371.674 317.663 371.65 318.17L370.6 341.29C370.542 342.335 370.092 343.319 369.339 344.046C368.586 344.773 367.586 345.189 366.54 345.21Z" fill="#407BFF"/>
<g opacity="0.8">
<path d="M190.11 345.21H166.99C166.483 345.212 165.981 345.111 165.514 344.912C165.048 344.713 164.626 344.422 164.276 344.055C163.926 343.688 163.655 343.253 163.478 342.778C163.302 342.303 163.224 341.796 163.25 341.29L164.25 318.17C164.311 317.119 164.767 316.13 165.528 315.403C166.289 314.675 167.297 314.263 168.35 314.25H191.47C191.977 314.248 192.479 314.349 192.946 314.548C193.412 314.746 193.834 315.038 194.184 315.405C194.534 315.772 194.805 316.206 194.982 316.682C195.158 317.157 195.236 317.663 195.21 318.17L194.21 341.29C194.147 342.34 193.69 343.327 192.929 344.054C192.169 344.781 191.162 345.194 190.11 345.21Z" fill="#FAFAFA"/>
<path d="M225.4 345.21H202.28C201.772 345.213 201.27 345.113 200.802 344.915C200.335 344.717 199.913 344.425 199.563 344.058C199.213 343.691 198.941 343.256 198.765 342.78C198.589 342.304 198.513 341.797 198.54 341.29L199.54 318.17C199.601 317.119 200.057 316.13 200.818 315.403C201.579 314.675 202.587 314.263 203.64 314.25H226.79C227.297 314.248 227.8 314.349 228.267 314.548C228.734 314.746 229.156 315.038 229.507 315.405C229.858 315.771 230.13 316.206 230.308 316.681C230.485 317.156 230.564 317.663 230.54 318.17L229.49 341.29C229.432 342.34 228.977 343.329 228.218 344.056C227.459 344.784 226.451 345.196 225.4 345.21Z" fill="#FAFAFA"/>
<path d="M260.68 345.21H237.57C237.063 345.212 236.56 345.11 236.093 344.912C235.626 344.713 235.204 344.422 234.853 344.055C234.502 343.689 234.23 343.254 234.052 342.779C233.875 342.303 233.796 341.797 233.82 341.29L234.82 318.17C234.881 317.119 235.337 316.13 236.098 315.403C236.859 314.675 237.867 314.263 238.92 314.25H262.03C262.538 314.246 263.04 314.347 263.508 314.545C263.975 314.743 264.397 315.035 264.747 315.402C265.097 315.769 265.369 316.204 265.545 316.68C265.721 317.156 265.797 317.663 265.77 318.17L264.77 341.29C264.71 342.339 264.254 343.326 263.495 344.054C262.737 344.781 261.731 345.194 260.68 345.21Z" fill="#FAFAFA"/>
<path d="M295.97 345.21H272.89C272.382 345.213 271.879 345.113 271.411 344.915C270.943 344.717 270.521 344.425 270.17 344.058C269.819 343.691 269.546 343.256 269.369 342.78C269.192 342.304 269.114 341.797 269.14 341.29L270.14 318.17C270.198 317.12 270.653 316.131 271.412 315.403C272.171 314.676 273.178 314.264 274.23 314.25H297.35C297.857 314.248 298.359 314.349 298.826 314.548C299.292 314.746 299.714 315.038 300.064 315.405C300.414 315.772 300.685 316.206 300.862 316.682C301.038 317.157 301.116 317.663 301.09 318.17L300.09 341.29C300.029 342.344 299.569 343.336 298.804 344.064C298.039 344.792 297.026 345.202 295.97 345.21Z" fill="#FAFAFA"/>
<path d="M331.26 345.21H308.14C307.633 345.212 307.131 345.11 306.664 344.912C306.198 344.713 305.776 344.422 305.426 344.055C305.076 343.688 304.805 343.253 304.628 342.778C304.452 342.303 304.374 341.796 304.4 341.29L305.4 318.17C305.461 317.119 305.917 316.13 306.678 315.403C307.439 314.675 308.447 314.263 309.5 314.25H332.61C333.118 314.247 333.621 314.347 334.089 314.545C334.557 314.743 334.979 315.034 335.33 315.401C335.681 315.768 335.954 316.203 336.131 316.679C336.308 317.155 336.386 317.663 336.36 318.17L335.36 341.29C335.297 342.34 334.84 343.327 334.079 344.054C333.319 344.781 332.312 345.194 331.26 345.21Z" fill="#FAFAFA"/>
<path d="M366.54 345.21H343.43C342.922 345.213 342.42 345.113 341.952 344.915C341.485 344.717 341.063 344.425 340.713 344.058C340.363 343.691 340.091 343.256 339.915 342.78C339.739 342.304 339.663 341.797 339.69 341.29L340.69 318.17C340.751 317.119 341.207 316.13 341.968 315.403C342.729 314.675 343.737 314.263 344.79 314.25H367.9C368.407 314.248 368.91 314.349 369.377 314.548C369.844 314.746 370.266 315.038 370.617 315.405C370.968 315.771 371.24 316.206 371.418 316.681C371.595 317.156 371.674 317.663 371.65 318.17L370.6 341.29C370.542 342.335 370.092 343.319 369.339 344.046C368.586 344.773 367.586 345.189 366.54 345.21Z" fill="#FAFAFA"/>
</g>
<path d="M188.49 381.08H165.37C164.863 381.082 164.361 380.981 163.894 380.782C163.428 380.583 163.006 380.292 162.656 379.925C162.306 379.558 162.035 379.123 161.858 378.648C161.682 378.173 161.604 377.666 161.63 377.16L162.63 354.04C162.693 352.99 163.15 352.002 163.911 351.275C164.671 350.548 165.678 350.136 166.73 350.12H189.89C190.397 350.118 190.899 350.219 191.366 350.418C191.832 350.616 192.254 350.908 192.604 351.275C192.954 351.642 193.225 352.076 193.402 352.552C193.578 353.027 193.656 353.533 193.63 354.04L192.63 377.16C192.567 378.217 192.103 379.21 191.335 379.938C190.566 380.666 189.549 381.074 188.49 381.08Z" fill="#407BFF"/>
<path d="M223.78 381.08H200.66C200.153 381.082 199.651 380.981 199.184 380.782C198.718 380.583 198.296 380.292 197.946 379.925C197.596 379.558 197.325 379.123 197.148 378.648C196.972 378.173 196.894 377.666 196.92 377.16L197.92 354.04C197.981 352.989 198.437 352 199.198 351.273C199.959 350.545 200.967 350.133 202.02 350.12H225.13C225.642 350.116 226.149 350.218 226.62 350.418C227.091 350.618 227.516 350.913 227.869 351.285C228.221 351.656 228.494 352.095 228.669 352.576C228.845 353.057 228.92 353.569 228.89 354.08L227.89 377.16C227.832 378.213 227.374 379.205 226.611 379.933C225.847 380.661 224.835 381.071 223.78 381.08Z" fill="#407BFF"/>
<path d="M259.06 381.08H235.95C235.442 381.083 234.94 380.983 234.472 380.785C234.005 380.587 233.583 380.295 233.233 379.928C232.883 379.561 232.611 379.126 232.435 378.65C232.259 378.174 232.183 377.667 232.21 377.16L233.21 354.04C233.271 352.989 233.727 352 234.488 351.273C235.249 350.545 236.257 350.133 237.31 350.12H260.42C260.927 350.116 261.43 350.217 261.898 350.415C262.365 350.613 262.787 350.905 263.137 351.272C263.487 351.639 263.759 352.074 263.935 352.55C264.111 353.026 264.187 353.533 264.16 354.04L263.16 377.16C263.099 378.211 262.643 379.2 261.882 379.927C261.121 380.654 260.113 381.066 259.06 381.08Z" fill="#407BFF"/>
<path d="M294.35 381.08H271.24C270.732 381.082 270.23 380.981 269.763 380.782C269.296 380.584 268.874 380.292 268.523 379.925C268.172 379.559 267.9 379.124 267.722 378.649C267.544 378.173 267.466 377.667 267.49 377.16L268.49 354.04C268.548 352.99 269.003 352.001 269.762 351.273C270.521 350.546 271.528 350.134 272.58 350.12H295.7C296.215 350.111 296.726 350.208 297.201 350.406C297.677 350.604 298.106 350.898 298.462 351.27C298.818 351.642 299.093 352.084 299.27 352.567C299.447 353.051 299.522 353.566 299.49 354.08L298.49 377.2C298.419 378.251 297.952 379.235 297.184 379.955C296.416 380.675 295.403 381.077 294.35 381.08Z" fill="#407BFF"/>
<path d="M329.64 381.08H306.52C306.013 381.082 305.511 380.981 305.044 380.782C304.578 380.583 304.156 380.292 303.806 379.925C303.456 379.558 303.185 379.123 303.008 378.648C302.832 378.173 302.754 377.666 302.78 377.16L303.78 354.04C303.833 352.981 304.288 351.982 305.051 351.247C305.815 350.511 306.83 350.094 307.89 350.08H331.01C331.517 350.078 332.019 350.179 332.486 350.378C332.952 350.577 333.374 350.868 333.724 351.235C334.074 351.602 334.345 352.036 334.522 352.512C334.698 352.987 334.776 353.494 334.75 354L333.75 377.12C333.697 378.179 333.242 379.178 332.479 379.913C331.715 380.649 330.7 381.066 329.64 381.08Z" fill="#407BFF"/>
<path d="M364.89 381.08H341.81C341.302 381.083 340.8 380.983 340.332 380.785C339.865 380.587 339.443 380.295 339.093 379.928C338.743 379.561 338.471 379.126 338.295 378.65C338.119 378.174 338.043 377.667 338.07 377.16L339.07 354.04C339.131 352.989 339.587 352 340.348 351.273C341.109 350.545 342.117 350.133 343.17 350.12H366.28C366.787 350.118 367.29 350.219 367.757 350.418C368.224 350.616 368.646 350.908 368.997 351.275C369.348 351.641 369.62 352.076 369.798 352.551C369.975 353.026 370.054 353.533 370.03 354.04L368.98 377.16C368.922 378.21 368.467 379.199 367.708 379.926C366.949 380.654 365.942 381.066 364.89 381.08Z" fill="#407BFF"/>
<g opacity="0.8">
<path d="M188.49 381.08H165.37C164.863 381.082 164.361 380.981 163.894 380.782C163.428 380.583 163.006 380.292 162.656 379.925C162.306 379.558 162.035 379.123 161.858 378.648C161.682 378.173 161.604 377.666 161.63 377.16L162.63 354.04C162.693 352.99 163.15 352.002 163.911 351.275C164.671 350.548 165.678 350.136 166.73 350.12H189.89C190.397 350.118 190.899 350.219 191.366 350.418C191.832 350.616 192.254 350.908 192.604 351.275C192.954 351.642 193.225 352.076 193.402 352.552C193.578 353.027 193.656 353.533 193.63 354.04L192.63 377.16C192.567 378.217 192.103 379.21 191.335 379.938C190.566 380.666 189.549 381.074 188.49 381.08Z" fill="#FAFAFA"/>
<path d="M223.78 381.08H200.66C200.153 381.082 199.651 380.981 199.184 380.782C198.718 380.583 198.296 380.292 197.946 379.925C197.596 379.558 197.325 379.124 197.148 378.648C196.972 378.173 196.894 377.666 196.92 377.16L197.92 354.04C197.981 352.989 198.437 352 199.198 351.273C199.959 350.545 200.967 350.133 202.02 350.12H225.13C225.642 350.116 226.149 350.218 226.62 350.418C227.091 350.619 227.516 350.913 227.869 351.285C228.221 351.656 228.494 352.096 228.669 352.576C228.845 353.057 228.92 353.569 228.89 354.08L227.89 377.16C227.832 378.213 227.374 379.205 226.611 379.933C225.847 380.661 224.835 381.071 223.78 381.08Z" fill="#FAFAFA"/>
<path d="M259.06 381.08H235.95C235.442 381.083 234.94 380.983 234.472 380.785C234.005 380.587 233.583 380.295 233.233 379.928C232.883 379.561 232.611 379.126 232.435 378.65C232.259 378.174 232.183 377.667 232.21 377.16L233.21 354.04C233.271 352.989 233.727 352 234.488 351.273C235.249 350.545 236.257 350.133 237.31 350.12H260.42C260.927 350.116 261.43 350.217 261.898 350.415C262.365 350.613 262.787 350.905 263.137 351.272C263.487 351.639 263.759 352.074 263.935 352.55C264.111 353.026 264.187 353.533 264.16 354.04L263.16 377.16C263.099 378.211 262.643 379.2 261.882 379.927C261.121 380.655 260.113 381.067 259.06 381.08Z" fill="#FAFAFA"/>
<path d="M294.35 381.08H271.24C270.732 381.082 270.23 380.981 269.763 380.782C269.296 380.584 268.874 380.292 268.523 379.925C268.172 379.559 267.9 379.124 267.722 378.649C267.544 378.173 267.466 377.667 267.49 377.16L268.49 354.04C268.548 352.99 269.003 352.001 269.762 351.273C270.521 350.546 271.528 350.134 272.58 350.12H295.7C296.215 350.111 296.726 350.208 297.201 350.406C297.677 350.604 298.106 350.898 298.462 351.27C298.818 351.642 299.093 352.084 299.27 352.567C299.447 353.051 299.522 353.566 299.49 354.08L298.49 377.2C298.419 378.251 297.952 379.235 297.184 379.955C296.416 380.675 295.403 381.077 294.35 381.08Z" fill="#FAFAFA"/>
<path d="M329.64 381.08H306.52C306.013 381.082 305.511 380.981 305.044 380.782C304.578 380.583 304.156 380.292 303.806 379.925C303.456 379.558 303.185 379.123 303.008 378.648C302.832 378.173 302.754 377.666 302.78 377.16L303.78 354.04C303.833 352.981 304.288 351.982 305.051 351.247C305.815 350.511 306.83 350.094 307.89 350.08H331.01C331.517 350.078 332.019 350.179 332.486 350.378C332.952 350.577 333.374 350.868 333.724 351.235C334.074 351.602 334.345 352.036 334.522 352.512C334.698 352.987 334.776 353.494 334.75 354L333.75 377.12C333.697 378.179 333.242 379.178 332.479 379.913C331.715 380.649 330.7 381.066 329.64 381.08Z" fill="#FAFAFA"/>
<path d="M364.89 381.08H341.81C341.302 381.083 340.8 380.983 340.332 380.785C339.865 380.587 339.443 380.295 339.093 379.928C338.743 379.561 338.471 379.126 338.295 378.65C338.119 378.174 338.043 377.667 338.07 377.16L339.07 354.04C339.131 352.989 339.587 352 340.348 351.273C341.109 350.545 342.117 350.133 343.17 350.12H366.28C366.787 350.118 367.29 350.219 367.757 350.418C368.224 350.616 368.646 350.908 368.997 351.275C369.348 351.641 369.62 352.076 369.798 352.551C369.975 353.026 370.054 353.533 370.03 354.04L368.98 377.16C368.922 378.21 368.467 379.199 367.708 379.926C366.949 380.654 365.942 381.066 364.89 381.08Z" fill="#FAFAFA"/>
</g>
<path d="M186.89 416.94H163.75C163.243 416.943 162.74 416.843 162.272 416.645C161.805 416.447 161.383 416.155 161.033 415.788C160.683 415.421 160.411 414.986 160.235 414.51C160.059 414.034 159.983 413.527 160.01 413.02L161.01 389.91C161.071 388.859 161.527 387.87 162.288 387.143C163.049 386.415 164.057 386.003 165.11 385.99H188.23C188.738 385.986 189.24 386.087 189.708 386.285C190.175 386.483 190.597 386.775 190.947 387.142C191.297 387.509 191.569 387.944 191.745 388.42C191.921 388.896 191.997 389.403 191.97 389.91L190.97 413.02C190.912 414.068 190.459 415.056 189.702 415.783C188.945 416.51 187.94 416.924 186.89 416.94Z" fill="#407BFF"/>
<path d="M222.16 416.94H199.04C198.532 416.943 198.03 416.843 197.562 416.645C197.095 416.447 196.673 416.155 196.323 415.788C195.973 415.421 195.701 414.986 195.525 414.51C195.349 414.034 195.273 413.527 195.3 413.02L196.3 389.91C196.358 388.858 196.814 387.868 197.576 387.14C198.337 386.412 199.347 386.001 200.4 385.99H223.51C224.018 385.985 224.522 386.084 224.991 386.282C225.459 386.479 225.882 386.771 226.233 387.138C226.585 387.506 226.857 387.941 227.034 388.418C227.21 388.894 227.287 389.402 227.26 389.91L226.26 413.02C226.204 414.072 225.749 415.064 224.987 415.792C224.225 416.521 223.214 416.931 222.16 416.94Z" fill="#407BFF"/>
<path d="M257.44 416.94H234.33C233.822 416.943 233.32 416.843 232.852 416.645C232.385 416.447 231.963 416.155 231.613 415.788C231.263 415.421 230.991 414.986 230.815 414.51C230.639 414.034 230.563 413.527 230.59 413.02L231.59 389.91C231.648 388.858 232.104 387.868 232.866 387.14C233.627 386.412 234.637 386.001 235.69 385.99H258.89C259.398 385.987 259.901 386.087 260.369 386.285C260.837 386.483 261.259 386.774 261.61 387.141C261.961 387.508 262.234 387.943 262.411 388.419C262.588 388.895 262.666 389.403 262.64 389.91L261.59 413.02C261.531 414.08 261.068 415.078 260.296 415.807C259.524 416.536 258.502 416.942 257.44 416.94Z" fill="#407BFF"/>
<path d="M292.73 416.94H269.62C269.112 416.943 268.609 416.843 268.141 416.645C267.673 416.447 267.251 416.155 266.9 415.788C266.549 415.421 266.276 414.986 266.099 414.51C265.922 414.034 265.844 413.527 265.87 413.02L266.87 389.91C266.926 388.859 267.38 387.869 268.139 387.141C268.899 386.413 269.908 386.001 270.96 385.99H294.08C294.587 385.986 295.09 386.087 295.558 386.285C296.025 386.483 296.447 386.775 296.797 387.142C297.147 387.509 297.419 387.944 297.595 388.42C297.771 388.896 297.847 389.403 297.82 389.91L296.82 413.02C296.762 414.07 296.307 415.059 295.548 415.786C294.789 416.514 293.781 416.926 292.73 416.94Z" fill="#407BFF"/>
<path d="M328.02 416.94H304.89C304.383 416.943 303.88 416.843 303.412 416.645C302.945 416.447 302.523 416.155 302.173 415.788C301.823 415.421 301.551 414.986 301.375 414.51C301.199 414.034 301.123 413.527 301.15 413.02L302.15 389.91C302.211 388.859 302.667 387.87 303.428 387.143C304.189 386.415 305.197 386.003 306.25 385.99H329.37C329.878 385.986 330.38 386.087 330.848 386.285C331.315 386.483 331.737 386.775 332.087 387.142C332.437 387.509 332.709 387.944 332.885 388.42C333.061 388.896 333.137 389.403 333.11 389.91L332.11 413.02C332.05 414.069 331.594 415.056 330.835 415.784C330.077 416.511 329.071 416.924 328.02 416.94Z" fill="#407BFF"/>
<path d="M363.31 416.94H340.19C339.682 416.943 339.18 416.843 338.712 416.645C338.245 416.447 337.823 416.155 337.473 415.788C337.123 415.421 336.851 414.986 336.675 414.51C336.499 414.034 336.423 413.527 336.45 413.02L337.45 389.91C337.508 388.858 337.964 387.868 338.726 387.14C339.487 386.412 340.497 386.001 341.55 385.99H364.66C365.168 385.987 365.671 386.087 366.139 386.285C366.607 386.483 367.029 386.774 367.38 387.141C367.731 387.508 368.004 387.943 368.181 388.419C368.358 388.895 368.436 389.403 368.41 389.91L367.36 413.02C367.305 414.064 366.856 415.048 366.105 415.776C365.354 416.503 364.355 416.919 363.31 416.94Z" fill="#407BFF"/>
<g opacity="0.8">
<path d="M186.89 416.94H163.75C163.243 416.943 162.74 416.843 162.272 416.645C161.805 416.447 161.383 416.155 161.033 415.788C160.683 415.421 160.411 414.986 160.235 414.51C160.059 414.034 159.983 413.527 160.01 413.02L161.01 389.91C161.071 388.859 161.527 387.87 162.288 387.143C163.049 386.415 164.057 386.003 165.11 385.99H188.23C188.738 385.986 189.24 386.087 189.708 386.285C190.175 386.483 190.597 386.775 190.947 387.142C191.297 387.509 191.569 387.944 191.745 388.42C191.921 388.896 191.997 389.403 191.97 389.91L190.97 413.02C190.912 414.068 190.459 415.056 189.702 415.783C188.945 416.51 187.94 416.924 186.89 416.94Z" fill="#FAFAFA"/>
<path d="M222.16 416.94H199.04C198.533 416.943 198.03 416.843 197.562 416.645C197.095 416.447 196.673 416.155 196.323 415.788C195.973 415.421 195.701 414.986 195.525 414.51C195.349 414.034 195.273 413.527 195.3 413.02L196.3 389.91C196.358 388.858 196.814 387.868 197.576 387.14C198.337 386.412 199.347 386.001 200.4 385.99H223.51C224.018 385.985 224.522 386.084 224.991 386.282C225.459 386.479 225.882 386.771 226.234 387.138C226.585 387.506 226.857 387.941 227.034 388.418C227.21 388.894 227.287 389.402 227.26 389.91L226.26 413.02C226.204 414.072 225.749 415.064 224.987 415.792C224.225 416.521 223.214 416.931 222.16 416.94Z" fill="#FAFAFA"/>
<path d="M257.44 416.94H234.33C233.822 416.943 233.32 416.843 232.852 416.645C232.385 416.447 231.963 416.155 231.613 415.788C231.263 415.421 230.991 414.986 230.815 414.51C230.639 414.034 230.563 413.527 230.59 413.02L231.59 389.91C231.648 388.858 232.104 387.868 232.866 387.14C233.627 386.412 234.637 386.001 235.69 385.99H258.89C259.398 385.987 259.901 386.087 260.369 386.285C260.837 386.483 261.259 386.774 261.61 387.141C261.961 387.508 262.234 387.943 262.411 388.419C262.588 388.895 262.666 389.403 262.64 389.91L261.59 413.02C261.531 414.08 261.068 415.078 260.296 415.807C259.524 416.536 258.502 416.942 257.44 416.94Z" fill="#FAFAFA"/>
<path d="M292.73 416.94H269.62C269.112 416.943 268.609 416.843 268.141 416.645C267.673 416.447 267.251 416.155 266.9 415.788C266.549 415.421 266.276 414.987 266.099 414.51C265.922 414.034 265.844 413.527 265.87 413.02L266.87 389.91C266.926 388.859 267.38 387.869 268.14 387.141C268.899 386.413 269.908 386.001 270.96 385.99H294.08C294.588 385.986 295.09 386.087 295.558 386.285C296.025 386.483 296.447 386.775 296.797 387.142C297.147 387.509 297.419 387.944 297.595 388.42C297.771 388.896 297.847 389.403 297.82 389.91L296.82 413.02C296.762 414.07 296.307 415.059 295.548 415.786C294.789 416.514 293.782 416.926 292.73 416.94Z" fill="#FAFAFA"/>
<path d="M328.02 416.94H304.89C304.383 416.943 303.88 416.843 303.412 416.645C302.945 416.447 302.523 416.155 302.173 415.788C301.823 415.421 301.551 414.986 301.375 414.51C301.199 414.034 301.123 413.527 301.15 413.02L302.15 389.91C302.211 388.859 302.667 387.87 303.428 387.143C304.189 386.415 305.197 386.003 306.25 385.99H329.37C329.878 385.986 330.38 386.087 330.848 386.285C331.315 386.483 331.737 386.775 332.087 387.142C332.437 387.509 332.709 387.944 332.885 388.42C333.061 388.896 333.137 389.403 333.11 389.91L332.11 413.02C332.05 414.069 331.594 415.057 330.835 415.784C330.077 416.511 329.071 416.924 328.02 416.94Z" fill="#FAFAFA"/>
<path d="M363.31 416.94H340.19C339.683 416.943 339.18 416.843 338.713 416.645C338.245 416.447 337.824 416.155 337.473 415.788C337.123 415.421 336.851 414.986 336.675 414.51C336.499 414.034 336.423 413.527 336.45 413.02L337.45 389.91C337.508 388.858 337.964 387.868 338.726 387.14C339.487 386.412 340.497 386.001 341.55 385.99H364.66C365.168 385.987 365.671 386.087 366.139 386.285C366.607 386.483 367.029 386.774 367.38 387.141C367.731 387.508 368.004 387.943 368.181 388.419C368.358 388.895 368.436 389.403 368.41 389.91L367.36 413.02C367.305 414.064 366.856 415.048 366.105 415.776C365.354 416.503 364.355 416.919 363.31 416.94Z" fill="#FAFAFA"/>
</g>
<path d="M180.34 295.52C171.82 295.52 165.14 285.61 165.14 272.96C165.14 260.31 171.82 250.41 180.34 250.41C188.86 250.41 195.55 260.32 195.55 272.96C195.511 273.553 195.248 274.109 194.815 274.515C194.381 274.921 193.809 275.147 193.215 275.147C192.621 275.147 192.049 274.921 191.615 274.515C191.182 274.109 190.919 273.553 190.88 272.96C190.88 263.27 186.06 255.07 180.34 255.07C174.62 255.07 169.8 263.27 169.8 272.96C169.8 282.65 174.63 290.85 180.34 290.85C180.659 290.829 180.98 290.874 181.281 290.982C181.583 291.09 181.859 291.258 182.093 291.477C182.326 291.696 182.513 291.96 182.64 292.254C182.767 292.548 182.833 292.865 182.833 293.185C182.833 293.505 182.767 293.822 182.64 294.116C182.513 294.409 182.326 294.674 182.093 294.893C181.859 295.112 181.583 295.28 181.281 295.388C180.98 295.496 180.659 295.541 180.34 295.52Z" fill="#407BFF"/>
<path d="M215.63 295.52C207.11 295.52 200.43 285.61 200.43 272.96C200.43 260.31 207.11 250.41 215.63 250.41C224.15 250.41 230.89 260.32 230.89 272.96C230.851 273.553 230.588 274.109 230.155 274.515C229.721 274.921 229.149 275.147 228.555 275.147C227.961 275.147 227.389 274.921 226.955 274.515C226.522 274.109 226.259 273.553 226.22 272.96C226.22 263.27 221.4 255.07 215.68 255.07C209.96 255.07 205.14 263.27 205.14 272.96C205.14 282.65 209.97 290.85 215.68 290.85C216.273 290.889 216.829 291.152 217.235 291.585C217.641 292.019 217.867 292.591 217.867 293.185C217.867 293.779 217.641 294.351 217.235 294.785C216.829 295.218 216.273 295.481 215.68 295.52H215.63Z" fill="#407BFF"/>
<path d="M250.89 295.52C242.36 295.52 235.68 285.61 235.68 272.96C235.68 260.31 242.36 250.41 250.89 250.41C259.42 250.41 266.09 260.32 266.09 272.96C266.09 273.578 265.844 274.171 265.407 274.607C264.971 275.044 264.378 275.29 263.76 275.29C263.142 275.29 262.549 275.044 262.112 274.607C261.675 274.171 261.43 273.578 261.43 272.96C261.43 263.27 256.6 255.07 250.89 255.07C245.18 255.07 240.35 263.27 240.35 272.96C240.35 282.65 245.18 290.85 250.89 290.85C251.483 290.889 252.039 291.152 252.445 291.585C252.851 292.019 253.077 292.591 253.077 293.185C253.077 293.779 252.851 294.351 252.445 294.785C252.039 295.218 251.483 295.481 250.89 295.52Z" fill="#407BFF"/>
<path d="M286.21 295.52C277.68 295.52 271 285.61 271 272.96C271 260.31 277.68 250.41 286.21 250.41C294.74 250.41 301.41 260.32 301.41 272.96C301.41 273.578 301.165 274.171 300.728 274.607C300.291 275.044 299.698 275.29 299.08 275.29C298.462 275.29 297.869 275.044 297.432 274.607C296.996 274.171 296.75 273.578 296.75 272.96C296.75 263.27 291.92 255.07 286.21 255.07C280.5 255.07 275.67 263.27 275.67 272.96C275.67 282.65 280.49 290.85 286.21 290.85C286.803 290.889 287.359 291.152 287.765 291.585C288.171 292.019 288.397 292.591 288.397 293.185C288.397 293.779 288.171 294.351 287.765 294.785C287.359 295.218 286.803 295.481 286.21 295.52Z" fill="#407BFF"/>
<path d="M321.49 295.52C312.97 295.52 306.29 285.61 306.29 272.96C306.29 260.31 312.97 250.41 321.49 250.41C330.01 250.41 336.7 260.32 336.7 272.96C336.661 273.553 336.398 274.109 335.965 274.515C335.531 274.921 334.959 275.147 334.365 275.147C333.771 275.147 333.199 274.921 332.765 274.515C332.332 274.109 332.069 273.553 332.03 272.96C332.03 263.27 327.21 255.07 321.49 255.07C315.77 255.07 310.95 263.27 310.95 272.96C310.95 282.65 315.78 290.85 321.49 290.85C321.81 290.829 322.13 290.874 322.431 290.982C322.733 291.09 323.009 291.258 323.243 291.477C323.476 291.696 323.663 291.96 323.79 292.254C323.917 292.548 323.983 292.865 323.983 293.185C323.983 293.505 323.917 293.822 323.79 294.116C323.663 294.409 323.476 294.674 323.243 294.893C323.009 295.112 322.733 295.28 322.431 295.388C322.13 295.496 321.81 295.541 321.49 295.52Z" fill="#407BFF"/>
<path d="M356.78 295.52C348.26 295.52 341.58 285.61 341.58 272.96C341.58 260.31 348.26 250.41 356.78 250.41C365.3 250.41 371.99 260.32 371.99 272.96C371.951 273.553 371.688 274.109 371.255 274.515C370.821 274.921 370.249 275.147 369.655 275.147C369.061 275.147 368.489 274.921 368.055 274.515C367.622 274.109 367.359 273.553 367.32 272.96C367.32 263.27 362.49 255.07 356.78 255.07C351.07 255.07 346.24 263.27 346.24 272.96C346.24 282.65 351.07 290.85 356.78 290.85C357.373 290.889 357.929 291.152 358.335 291.585C358.741 292.019 358.967 292.591 358.967 293.185C358.967 293.779 358.741 294.351 358.335 294.785C357.929 295.218 357.373 295.481 356.78 295.52Z" fill="#407BFF"/>
<g opacity="0.3">
<path d="M180.34 295.52C171.82 295.52 165.14 285.61 165.14 272.96C165.14 260.31 171.82 250.41 180.34 250.41C188.86 250.41 195.55 260.32 195.55 272.96C195.511 273.553 195.248 274.109 194.815 274.515C194.381 274.921 193.809 275.147 193.215 275.147C192.621 275.147 192.049 274.921 191.615 274.515C191.182 274.109 190.919 273.553 190.88 272.96C190.88 263.27 186.06 255.07 180.34 255.07C174.62 255.07 169.8 263.27 169.8 272.96C169.8 282.65 174.63 290.85 180.34 290.85C180.659 290.829 180.98 290.874 181.281 290.982C181.583 291.09 181.859 291.258 182.093 291.477C182.326 291.696 182.513 291.96 182.64 292.254C182.767 292.548 182.833 292.865 182.833 293.185C182.833 293.505 182.767 293.822 182.64 294.116C182.513 294.409 182.326 294.674 182.093 294.893C181.859 295.112 181.583 295.28 181.281 295.388C180.98 295.496 180.659 295.541 180.34 295.52Z" fill="black"/>
<path d="M215.63 295.52C207.11 295.52 200.43 285.61 200.43 272.96C200.43 260.31 207.11 250.41 215.63 250.41C224.15 250.41 230.89 260.32 230.89 272.96C230.851 273.553 230.588 274.109 230.155 274.515C229.721 274.921 229.149 275.147 228.555 275.147C227.961 275.147 227.389 274.921 226.955 274.515C226.522 274.109 226.259 273.553 226.22 272.96C226.22 263.27 221.4 255.07 215.68 255.07C209.96 255.07 205.14 263.27 205.14 272.96C205.14 282.65 209.97 290.85 215.68 290.85C216.273 290.889 216.829 291.152 217.235 291.585C217.641 292.019 217.867 292.591 217.867 293.185C217.867 293.779 217.641 294.351 217.235 294.785C216.829 295.218 216.273 295.481 215.68 295.52H215.63Z" fill="black"/>
<path d="M250.89 295.52C242.36 295.52 235.68 285.61 235.68 272.96C235.68 260.31 242.36 250.41 250.89 250.41C259.42 250.41 266.09 260.32 266.09 272.96C266.09 273.578 265.845 274.171 265.408 274.607C264.971 275.044 264.378 275.29 263.76 275.29C263.142 275.29 262.549 275.044 262.113 274.607C261.676 274.171 261.43 273.578 261.43 272.96C261.43 263.27 256.6 255.07 250.89 255.07C245.18 255.07 240.35 263.27 240.35 272.96C240.35 282.65 245.18 290.85 250.89 290.85C251.483 290.889 252.039 291.152 252.445 291.585C252.851 292.019 253.077 292.591 253.077 293.185C253.077 293.779 252.851 294.351 252.445 294.785C252.039 295.218 251.483 295.481 250.89 295.52Z" fill="black"/>
<path d="M286.21 295.52C277.68 295.52 271 285.61 271 272.96C271 260.31 277.68 250.41 286.21 250.41C294.74 250.41 301.41 260.32 301.41 272.96C301.41 273.578 301.165 274.171 300.728 274.607C300.291 275.044 299.698 275.29 299.08 275.29C298.462 275.29 297.869 275.044 297.432 274.607C296.996 274.171 296.75 273.578 296.75 272.96C296.75 263.27 291.92 255.07 286.21 255.07C280.5 255.07 275.67 263.27 275.67 272.96C275.67 282.65 280.49 290.85 286.21 290.85C286.803 290.889 287.359 291.152 287.765 291.585C288.171 292.019 288.397 292.591 288.397 293.185C288.397 293.779 288.171 294.351 287.765 294.785C287.359 295.218 286.803 295.481 286.21 295.52Z" fill="black"/>
<path d="M321.49 295.52C312.97 295.52 306.29 285.61 306.29 272.96C306.29 260.31 312.97 250.41 321.49 250.41C330.01 250.41 336.7 260.32 336.7 272.96C336.661 273.553 336.398 274.109 335.965 274.515C335.531 274.921 334.959 275.147 334.365 275.147C333.771 275.147 333.199 274.921 332.765 274.515C332.332 274.109 332.069 273.553 332.03 272.96C332.03 263.27 327.21 255.07 321.49 255.07C315.77 255.07 310.95 263.27 310.95 272.96C310.95 282.65 315.78 290.85 321.49 290.85C321.81 290.829 322.13 290.874 322.431 290.982C322.733 291.09 323.009 291.258 323.243 291.477C323.476 291.696 323.663 291.96 323.79 292.254C323.917 292.548 323.983 292.865 323.983 293.185C323.983 293.505 323.917 293.822 323.79 294.116C323.663 294.409 323.476 294.674 323.243 294.893C323.009 295.112 322.733 295.28 322.431 295.388C322.13 295.496 321.81 295.541 321.49 295.52Z" fill="black"/>
<path d="M356.78 295.52C348.26 295.52 341.58 285.61 341.58 272.96C341.58 260.31 348.26 250.41 356.78 250.41C365.3 250.41 371.99 260.32 371.99 272.96C371.951 273.553 371.688 274.109 371.255 274.515C370.821 274.921 370.249 275.147 369.655 275.147C369.061 275.147 368.489 274.921 368.055 274.515C367.622 274.109 367.359 273.553 367.32 272.96C367.32 263.27 362.49 255.07 356.78 255.07C351.07 255.07 346.24 263.27 346.24 272.96C346.24 282.65 351.07 290.85 356.78 290.85C357.373 290.889 357.929 291.152 358.335 291.585C358.741 292.019 358.967 292.591 358.967 293.185C358.967 293.779 358.741 294.351 358.335 294.785C357.929 295.218 357.373 295.481 356.78 295.52Z" fill="black"/>
</g>
<path d="M288.57 346.5C280.41 344.88 271.25 346.77 267.98 355.37C265.35 362.29 268.72 369.79 275.98 371.62C282.38 373.23 293.42 371.26 295.7 363.88C298.31 355.44 287.7 352.7 281.75 352.2C279.96 352.05 279.97 354.85 281.75 355C284.46 355.23 287.56 355.38 289.96 356.87C294.96 360 292.9 365.02 288.64 367.42C284.38 369.82 277.85 370.42 273.64 367.76C269.04 364.83 268.89 358.39 271.64 354.19C275.25 348.64 281.84 348.02 287.78 349.19C289.54 349.54 290.29 346.84 288.52 346.49L288.57 346.5Z" fill="#407BFF"/>
<path opacity="0.1" d="M288.57 346.5C280.41 344.88 271.25 346.77 267.98 355.37C265.35 362.29 268.72 369.79 275.98 371.62C282.38 373.23 293.42 371.26 295.7 363.88C298.31 355.44 287.7 352.7 281.75 352.2C279.96 352.05 279.97 354.85 281.75 355C284.46 355.23 287.56 355.38 289.96 356.87C294.96 360 292.9 365.02 288.64 367.42C284.38 369.82 277.85 370.42 273.64 367.76C269.04 364.83 268.89 358.39 271.64 354.19C275.25 348.64 281.84 348.02 287.78 349.19C289.54 349.54 290.29 346.84 288.52 346.49L288.57 346.5Z" fill="#FAFAFA"/>
<path d="M198.54 314.29C206.344 324.635 215.044 334.272 224.54 343.09C225.86 344.32 227.85 342.34 226.54 341.09C217.207 332.447 208.65 323 200.97 312.86C199.9 311.44 197.47 312.86 198.56 314.27L198.54 314.29Z" fill="#407BFF"/>
<path d="M201.43 341.92C207.33 331.43 217.66 322.48 227.43 315.63C228.89 314.63 227.5 312.17 226.02 313.21C215.86 320.35 205.18 329.57 199.02 340.5C198.851 340.818 198.811 341.19 198.909 341.537C199.007 341.884 199.235 342.179 199.546 342.362C199.856 342.545 200.226 342.602 200.577 342.519C200.928 342.437 201.233 342.222 201.43 341.92Z" fill="#407BFF"/>
<g opacity="0.2">
<path d="M198.54 314.29C206.344 324.635 215.044 334.272 224.54 343.09C225.86 344.32 227.85 342.34 226.54 341.09C217.207 332.447 208.65 323 200.97 312.86C199.9 311.44 197.47 312.86 198.56 314.27L198.54 314.29Z" fill="black"/>
<path d="M201.43 341.92C207.33 331.43 217.66 322.48 227.43 315.63C228.89 314.63 227.5 312.17 226.02 313.21C215.86 320.35 205.18 329.57 199.02 340.5C198.851 340.818 198.811 341.19 198.909 341.537C199.007 341.884 199.235 342.179 199.546 342.363C199.856 342.546 200.226 342.602 200.577 342.519C200.928 342.437 201.233 342.222 201.43 341.92Z" fill="black"/>
</g>
<path d="M309.76 323.24H328.01C328.36 323.21 328.685 323.05 328.923 322.792C329.16 322.534 329.292 322.196 329.292 321.845C329.292 321.494 329.16 321.156 328.923 320.898C328.685 320.639 328.36 320.48 328.01 320.45H309.76C309.41 320.48 309.085 320.639 308.847 320.898C308.61 321.156 308.478 321.494 308.478 321.845C308.478 322.196 308.61 322.534 308.847 322.792C309.085 323.05 309.41 323.21 309.76 323.24Z" fill="#407BFF"/>
<path d="M309.55 328.43H320.13C320.501 328.43 320.857 328.282 321.12 328.02C321.383 327.757 321.53 327.401 321.53 327.03C321.53 326.659 321.383 326.302 321.12 326.04C320.857 325.777 320.501 325.63 320.13 325.63H309.55C309.179 325.63 308.823 325.777 308.56 326.04C308.298 326.302 308.15 326.659 308.15 327.03C308.15 327.401 308.298 327.757 308.56 328.02C308.823 328.282 309.179 328.43 309.55 328.43Z" fill="#407BFF"/>
<g opacity="0.1">
<path d="M309.76 323.24H328.01C328.36 323.21 328.685 323.05 328.923 322.792C329.16 322.534 329.292 322.196 329.292 321.845C329.292 321.494 329.16 321.156 328.923 320.898C328.685 320.639 328.36 320.48 328.01 320.45H309.76C309.41 320.48 309.085 320.639 308.847 320.898C308.61 321.156 308.478 321.494 308.478 321.845C308.478 322.196 308.61 322.534 308.847 322.792C309.085 323.05 309.41 323.21 309.76 323.24Z" fill="#FAFAFA"/>
<path d="M309.55 328.43H320.13C320.501 328.43 320.857 328.282 321.12 328.02C321.383 327.757 321.53 327.401 321.53 327.03C321.53 326.659 321.383 326.302 321.12 326.04C320.857 325.777 320.501 325.63 320.13 325.63H309.55C309.179 325.63 308.823 325.777 308.56 326.04C308.298 326.302 308.15 326.659 308.15 327.03C308.15 327.401 308.298 327.757 308.56 328.02C308.823 328.282 309.179 328.43 309.55 328.43Z" fill="#FAFAFA"/>
</g>
<path d="M200.45 394.88H216.1C216.471 394.88 216.827 394.732 217.09 394.47C217.353 394.207 217.5 393.851 217.5 393.48C217.5 393.109 217.353 392.753 217.09 392.49C216.827 392.227 216.471 392.08 216.1 392.08H200.45C200.079 392.08 199.723 392.227 199.46 392.49C199.198 392.753 199.05 393.109 199.05 393.48C199.05 393.851 199.198 394.207 199.46 394.47C199.723 394.732 200.079 394.88 200.45 394.88Z" fill="#407BFF"/>
<path d="M199.89 400.89H220.19C220.561 400.89 220.917 400.742 221.18 400.48C221.442 400.217 221.59 399.861 221.59 399.49C221.59 399.119 221.442 398.762 221.18 398.5C220.917 398.237 220.561 398.09 220.19 398.09H199.89C199.519 398.09 199.163 398.237 198.9 398.5C198.637 398.762 198.49 399.119 198.49 399.49C198.49 399.861 198.637 400.217 198.9 400.48C199.163 400.742 199.519 400.89 199.89 400.89Z" fill="#407BFF"/>
<path d="M199.89 407.08H210.04C210.411 407.08 210.767 406.932 211.03 406.67C211.292 406.407 211.44 406.051 211.44 405.68C211.44 405.309 211.292 404.952 211.03 404.69C210.767 404.427 210.411 404.28 210.04 404.28H199.89C199.519 404.28 199.163 404.427 198.9 404.69C198.637 404.952 198.49 405.309 198.49 405.68C198.49 406.051 198.637 406.407 198.9 406.67C199.163 406.932 199.519 407.08 199.89 407.08Z" fill="#407BFF"/>
<g opacity="0.1">
<path d="M200.45 394.88H216.1C216.471 394.88 216.827 394.732 217.09 394.47C217.353 394.207 217.5 393.851 217.5 393.48C217.5 393.109 217.353 392.753 217.09 392.49C216.827 392.227 216.471 392.08 216.1 392.08H200.45C200.079 392.08 199.723 392.227 199.46 392.49C199.198 392.753 199.05 393.109 199.05 393.48C199.05 393.851 199.198 394.207 199.46 394.47C199.723 394.732 200.079 394.88 200.45 394.88Z" fill="#FAFAFA"/>
<path d="M199.89 400.89H220.19C220.561 400.89 220.917 400.742 221.18 400.48C221.442 400.217 221.59 399.861 221.59 399.49C221.59 399.119 221.442 398.762 221.18 398.5C220.917 398.237 220.561 398.09 220.19 398.09H199.89C199.519 398.09 199.163 398.237 198.9 398.5C198.637 398.762 198.49 399.119 198.49 399.49C198.49 399.861 198.637 400.217 198.9 400.48C199.163 400.742 199.519 400.89 199.89 400.89Z" fill="#FAFAFA"/>
<path d="M199.89 407.08H210.04C210.411 407.08 210.767 406.932 211.03 406.67C211.292 406.407 211.44 406.051 211.44 405.68C211.44 405.309 211.292 404.952 211.03 404.69C210.767 404.427 210.411 404.28 210.04 404.28H199.89C199.519 404.28 199.163 404.427 198.9 404.69C198.637 404.952 198.49 405.309 198.49 405.68C198.49 406.051 198.637 406.407 198.9 406.67C199.163 406.932 199.519 407.08 199.89 407.08Z" fill="#FAFAFA"/>
</g>
<path d="M90.08 237.87L94.81 237.66L92.67 246.66C90.9819 245.504 89.4435 244.144 88.09 242.61C87.6996 242.151 87.5059 241.557 87.5508 240.956C87.5957 240.355 87.8757 239.796 88.33 239.4L90.08 237.87Z" fill="#E4897B"/>
<path d="M100.3 242.51L98.1799 249.83L92.6699 246.64L94.8099 237.66L100.3 242.51Z" fill="#E4897B"/>
<path d="M99.3672 199.054L89.6886 199.95L111.887 439.694L121.565 438.798L99.3672 199.054Z" fill="#407BFF"/>
<path opacity="0.3" d="M99.3672 199.054L89.6886 199.95L111.887 439.694L121.565 438.798L99.3672 199.054Z" fill="black"/>
<path d="M118.729 197.257L109.05 198.153L131.248 437.897L140.927 437.001L118.729 197.257Z" fill="#407BFF"/>
<path opacity="0.3" d="M118.729 197.257L109.05 198.153L131.248 437.897L140.927 437.001L118.729 197.257Z" fill="black"/>
<path d="M109.053 198.155L99.3744 199.051L121.573 438.796L131.251 437.9L109.053 198.155Z" fill="#407BFF"/>
<path opacity="0.1" d="M109.053 198.155L99.3744 199.051L121.573 438.796L131.251 437.9L109.053 198.155Z" fill="black"/>
<path d="M107.01 181.39L98.2999 182.2L89.6899 199.95L118.73 197.26L107.01 181.39Z" fill="#407BFF"/>
<g opacity="0.8">
<path d="M107.01 181.39L98.2999 182.2L89.6899 199.95L118.73 197.26L107.01 181.39Z" fill="#FAFAFA"/>
</g>
<path d="M101.99 174.59L98.2999 182.2L107.01 181.39L101.99 174.59Z" fill="#263238"/>
<path d="M175.17 188.14C176.17 189.14 177 190.09 177.86 191.14C178.72 192.19 179.54 193.14 180.36 194.14C182.01 196.14 183.55 198.25 185.05 200.4C188.142 204.771 190.751 209.466 192.83 214.4C193.08 215.04 193.31 215.71 193.55 216.4L193.91 217.4C194.108 217.999 194.249 218.615 194.33 219.24C194.547 221.23 194.283 223.243 193.56 225.11C192.481 227.866 190.968 230.431 189.08 232.71C185.741 236.796 181.897 240.442 177.64 243.56L173.87 239.56C176.837 235.851 179.55 231.945 181.99 227.87C183.059 226.129 183.88 224.248 184.43 222.28C184.582 221.797 184.599 221.282 184.48 220.79L184.14 220.05C183.91 219.56 183.71 219.05 183.46 218.57C181.343 214.463 178.867 210.551 176.06 206.88C174.66 204.97 173.18 203.11 171.68 201.25C170.93 200.33 170.17 199.41 169.39 198.51L167.11 195.88L175.17 188.14Z" fill="#E4897B"/>
<path d="M167.82 242.61L172.08 251.04L176.25 247.45L172.83 241.46L167.82 242.61Z" fill="#E4897B"/>
<path d="M135.73 193.08C133.137 198.02 130.443 202.903 127.65 207.73C126.28 210.16 124.84 212.55 123.44 214.96L121.29 218.56L120.75 219.46C120.48 219.89 120.18 220.4 119.91 220.74C119.64 221.08 119.37 221.49 119.11 221.8C118.85 222.11 118.57 222.46 118.31 222.75C116.29 224.951 114.139 227.028 111.87 228.97C109.68 230.84 107.49 232.66 105.23 234.39C100.76 237.88 96.17 241.13 91.41 244.23L87.98 239.91L99.83 228.24C101.77 226.24 103.73 224.36 105.58 222.38C107.398 220.517 109.11 218.554 110.71 216.5C110.903 216.26 111.073 216.03 111.22 215.81C111.39 215.57 111.51 215.37 111.63 215.17C111.733 215.009 111.827 214.842 111.91 214.67L112.37 213.74L114.22 209.97C115.49 207.48 116.73 204.97 118.02 202.5C120.573 197.52 123.24 192.597 126.02 187.73L135.73 193.08Z" fill="#E4897B"/>
<path d="M163.8 159.3C163.67 159.88 163.88 160.43 164.25 160.53C164.62 160.63 165.03 160.23 165.16 159.65C165.29 159.07 165.07 158.52 164.7 158.42C164.33 158.32 163.89 158.72 163.8 159.3Z" fill="#263238"/>
<path d="M163.82 160.42C164.133 162.37 164.705 164.271 165.52 166.07C165.06 166.252 164.565 166.331 164.071 166.302C163.577 166.273 163.095 166.135 162.66 165.9L163.82 160.42Z" fill="#DE5753"/>
<path d="M165.33 155.78C165.259 155.78 165.189 155.759 165.13 155.72C164.761 155.494 164.342 155.362 163.91 155.334C163.478 155.306 163.045 155.384 162.65 155.56C162.564 155.594 162.468 155.593 162.382 155.557C162.296 155.522 162.227 155.455 162.19 155.37C162.156 155.284 162.157 155.188 162.193 155.102C162.228 155.016 162.295 154.947 162.38 154.91C162.885 154.693 163.436 154.601 163.984 154.643C164.533 154.685 165.063 154.859 165.53 155.15C165.568 155.175 165.601 155.208 165.626 155.246C165.651 155.284 165.668 155.326 165.677 155.371C165.685 155.416 165.684 155.462 165.675 155.506C165.665 155.551 165.646 155.593 165.62 155.63C165.587 155.677 165.544 155.715 165.494 155.741C165.443 155.767 165.387 155.78 165.33 155.78Z" fill="#263238"/>
<path d="M143.57 161.51C144.83 166.89 146.26 176.73 142.64 180.32C142.64 180.32 144.32 185.77 154.31 185.77C165.31 185.77 159.31 180.32 159.31 180.32C153.26 178.89 153.24 174.44 154.12 170.27L143.57 161.51Z" fill="#E4897B"/>
<path d="M141.28 182.19C140.42 180.47 139.48 178.49 141.28 177.87C143.22 177.19 153.99 176.5 157.76 177.77C158.764 178.039 159.625 178.688 160.159 179.58C160.693 180.473 160.858 181.538 160.62 182.55L141.28 182.19Z" fill="#407BFF"/>
<path opacity="0.6" d="M141.28 182.19C140.42 180.47 139.48 178.49 141.28 177.87C143.22 177.19 153.99 176.5 157.76 177.77C158.764 178.039 159.625 178.688 160.159 179.58C160.693 180.473 160.858 181.538 160.62 182.55L141.28 182.19Z" fill="#FAFAFA"/>
<path d="M126.89 433.08C126.244 433.077 125.601 433.006 124.97 432.87C124.938 432.864 124.908 432.849 124.884 432.826C124.861 432.802 124.846 432.772 124.84 432.74C124.833 432.706 124.836 432.672 124.849 432.64C124.861 432.608 124.882 432.58 124.91 432.56C124.99 432.5 126.91 431.12 128.03 431.36C128.151 431.381 128.266 431.429 128.366 431.5C128.466 431.571 128.55 431.663 128.61 431.77C128.7 431.89 128.749 432.035 128.749 432.185C128.749 432.335 128.7 432.48 128.61 432.6C128.37 432.99 127.64 433.08 126.89 433.08ZM125.46 432.62C126.56 432.8 128.06 432.8 128.36 432.39C128.36 432.39 128.48 432.23 128.31 431.94C128.273 431.876 128.223 431.822 128.162 431.78C128.102 431.739 128.033 431.711 127.96 431.7C127.052 431.759 126.182 432.086 125.46 432.64V432.62Z" fill="#FAFAFA"/>
<path d="M125.01 432.9H124.92C124.894 432.885 124.873 432.863 124.858 432.837C124.844 432.81 124.838 432.78 124.84 432.75C124.84 432.66 124.93 430.54 125.76 429.84C125.86 429.751 125.977 429.684 126.105 429.644C126.233 429.605 126.367 429.593 126.5 429.61C126.635 429.61 126.765 429.657 126.87 429.743C126.974 429.828 127.044 429.948 127.07 430.08C127.23 430.9 125.83 432.5 125.07 432.91L125.01 432.9ZM126.38 429.9C126.236 429.902 126.098 429.955 125.99 430.05C125.499 430.722 125.227 431.528 125.21 432.36C125.93 431.79 126.82 430.58 126.73 430.1C126.73 430.05 126.73 429.93 126.46 429.9H126.38Z" fill="#FAFAFA"/>
<path d="M171.01 433.08C170.252 433.08 169.495 433.01 168.75 432.87C168.715 432.864 168.683 432.848 168.658 432.822C168.632 432.797 168.616 432.765 168.61 432.73C168.604 432.695 168.609 432.66 168.623 432.628C168.637 432.596 168.661 432.569 168.69 432.55C169.06 432.34 172.32 430.47 173.11 431.76C173.189 431.873 173.232 432.007 173.232 432.145C173.232 432.283 173.189 432.417 173.11 432.53C172.89 432.97 171.95 433.08 171.01 433.08ZM169.3 432.61C170.68 432.81 172.54 432.78 172.86 432.33C172.86 432.33 172.96 432.19 172.81 431.94C172.37 431.23 170.39 432.08 169.3 432.63V432.61Z" fill="#FAFAFA"/>
<path d="M168.78 432.9C168.747 432.909 168.713 432.909 168.68 432.9C168.655 432.882 168.635 432.858 168.623 432.83C168.611 432.802 168.606 432.771 168.61 432.74C168.61 432.66 168.73 430.68 169.61 429.91C169.743 429.788 169.903 429.698 170.076 429.646C170.249 429.594 170.431 429.581 170.61 429.61C171.1 429.66 171.24 429.91 171.27 430.11C171.41 430.96 169.74 432.51 168.86 432.91L168.78 432.9ZM170.46 429.9C170.238 429.897 170.023 429.98 169.86 430.13C169.334 430.774 169.029 431.57 168.99 432.4C169.87 431.86 170.99 430.63 170.92 430.12C170.92 430.07 170.92 429.94 170.56 429.9H170.46Z" fill="#FAFAFA"/>
<path d="M160.7 432.72H168.05L168.12 415.71H160.78L160.7 432.72Z" fill="#E4897B"/>
<path d="M116.59 432.72H123.94L126.98 415.71H119.63L116.59 432.72Z" fill="#E4897B"/>
<path d="M124.43 431.87H116.18C116.034 431.868 115.892 431.918 115.78 432.012C115.669 432.105 115.594 432.236 115.57 432.38L114.37 438.91C114.345 439.072 114.356 439.237 114.402 439.395C114.447 439.552 114.527 439.698 114.634 439.821C114.742 439.945 114.875 440.044 115.024 440.111C115.174 440.178 115.336 440.212 115.5 440.21C118.38 440.16 119.77 439.99 123.4 439.99C125.63 439.99 130.24 440.23 133.33 440.23C136.42 440.23 136.69 437.23 135.42 436.9C129.71 435.66 127.51 433.95 125.64 432.33C125.306 432.034 124.876 431.871 124.43 431.87Z" fill="#263238"/>
<path d="M167.97 431.87H159.97C159.824 431.868 159.682 431.918 159.57 432.012C159.459 432.105 159.384 432.236 159.36 432.38L158.16 438.91C158.132 439.071 158.14 439.236 158.183 439.393C158.226 439.551 158.303 439.697 158.409 439.821C158.515 439.945 158.647 440.044 158.796 440.112C158.945 440.179 159.107 440.212 159.27 440.21C162.16 440.16 166.33 439.99 169.97 439.99C174.23 439.99 177.91 440.23 182.9 440.23C185.9 440.23 186.63 437.23 185.36 436.9C179.56 435.64 174.86 435.51 169.78 432.45C169.243 432.091 168.616 431.891 167.97 431.87Z" fill="#263238"/>
<path d="M128.63 181.98C121.8 183.56 114.63 202.33 114.63 202.33L128.82 211.81C132.078 206.87 134.934 201.677 137.36 196.28C141.11 187.69 135.6 180.37 128.63 181.98Z" fill="#407BFF"/>
<path opacity="0.7" d="M128.63 181.98C121.8 183.56 114.63 202.33 114.63 202.33L128.82 211.81C132.078 206.87 134.934 201.677 137.36 196.28C141.11 187.69 135.6 180.37 128.63 181.98Z" fill="black"/>
<path d="M134.02 193.95L128.15 211.36L128.82 211.81C128.82 211.81 131.5 207.81 134.35 202.48L134.02 193.95Z" fill="#407BFF"/>
<path opacity="0.8" d="M134.02 193.95L128.15 211.36L128.82 211.81C128.82 211.81 131.5 207.81 134.35 202.48L134.02 193.95Z" fill="black"/>
<path d="M174.46 214.8C174.4 223 173.91 233.2 172.69 245.86H133.39C132.88 239.86 135.54 210.4 128.63 181.98C132.953 181.142 137.325 180.588 141.72 180.32C147.282 180 152.858 180 158.42 180.32C162.256 180.693 166.057 181.362 169.79 182.32C169.79 182.32 173.15 185.96 174.17 203.03C174.37 206.44 174.48 210.32 174.46 214.8Z" fill="#407BFF"/>
<path opacity="0.7" d="M174.46 214.8C174.4 223 173.91 233.2 172.69 245.86H133.39C132.88 239.86 135.54 210.4 128.63 181.98C132.953 181.142 137.325 180.588 141.72 180.32C147.282 180 152.858 180 158.42 180.32C162.256 180.693 166.057 181.362 169.79 182.32C169.79 182.32 173.15 185.96 174.17 203.03C174.37 206.44 174.48 210.32 174.46 214.8Z" fill="black"/>
<path d="M174.46 214.8C172.08 210.46 167.76 201.75 168.37 196.8L174.17 203.08C174.37 206.44 174.48 210.32 174.46 214.8Z" fill="#407BFF"/>
<path opacity="0.8" d="M174.46 214.8C172.08 210.46 167.76 201.75 168.37 196.8L174.17 203.08C174.37 206.44 174.48 210.32 174.46 214.8Z" fill="black"/>
<path d="M162.09 189C161.47 196 177.34 212.84 177.34 212.84L190.06 202.48C186.728 196.858 182.737 191.654 178.17 186.98C170.73 179.79 162.79 181.16 162.09 189Z" fill="#407BFF"/>
<path opacity="0.7" d="M162.09 189C161.47 196 177.34 212.84 177.34 212.84L190.06 202.48C186.728 196.858 182.737 191.654 178.17 186.98C170.73 179.79 162.79 181.16 162.09 189Z" fill="black"/>
<path d="M168.12 415.72L168.08 424.48H160.74L160.77 415.72H168.12Z" fill="#CE6F64"/>
<path d="M119.63 415.72H126.98L125.41 424.48H118.06L119.63 415.72Z" fill="#CE6F64"/>
<path d="M144.89 153.23C143.82 160.47 142.83 164.63 145.61 169.23C146.494 170.72 147.768 171.939 149.296 172.756C150.823 173.573 152.545 173.957 154.274 173.865C156.004 173.773 157.675 173.21 159.108 172.236C160.54 171.262 161.679 169.915 162.4 168.34C165.27 162.34 166.55 151.5 160.24 146.92C158.908 145.892 157.33 145.233 155.663 145.008C153.995 144.784 152.299 145.002 150.743 145.642C149.187 146.282 147.827 147.32 146.799 148.652C145.772 149.984 145.113 151.563 144.89 153.23Z" fill="#E4897B"/>
<path d="M166.64 149.8C164.476 150.982 162.095 151.713 159.64 151.95C157.81 160.32 152.94 169.95 145.06 167.18C142.06 166.18 139.06 158.91 138.75 152.46C138.23 153.09 137.88 153.91 137.61 154.25C137.16 151.384 137.485 148.449 138.55 145.75C140.73 139.57 142.18 143.67 144.55 139.92C146.08 137.44 148.8 136.16 153.55 136C152.22 136.69 151.97 137.8 153.94 137.64C155.91 137.48 164.32 137.02 169.22 140.33C165.91 141.08 167.93 146.33 172.35 143.53C170.74 146.14 168.74 148.62 166.64 149.8Z" fill="#263238"/>
<path d="M153.98 157.71C154.008 159.551 154.625 161.335 155.74 162.8C157.23 164.72 158.94 163.8 159.35 161.64C159.71 159.72 159.35 156.4 157.49 155.24C155.63 154.08 153.97 155.51 153.98 157.71Z" fill="#E4897B"/>
<path d="M145.02 140.7C144.022 140.637 143.055 140.33 142.202 139.807C141.35 139.284 140.639 138.561 140.13 137.7C140.13 137.7 140 143.56 145.02 140.7Z" fill="#1E2A4C"/>
<path d="M158.74 245.86C158.74 245.86 152.58 302 148.81 323.03C144.69 346.03 128.81 422.79 128.81 422.79H115.31C115.31 422.79 124.89 347.92 126.89 325.08C129.04 300.33 133.43 245.82 133.43 245.82L158.74 245.86Z" fill="#407BFF"/>
<path opacity="0.6" d="M158.74 245.86C158.74 245.86 152.58 302 148.81 323.03C144.69 346.03 128.81 422.79 128.81 422.79H115.31C115.31 422.79 124.89 347.92 126.89 325.08C129.04 300.33 133.43 245.82 133.43 245.82L158.74 245.86Z" fill="#FAFAFA"/>
<path d="M130.72 417.83C130.78 417.83 129.53 423 129.53 423H114.4L114.5 418.39L130.72 417.83Z" fill="#407BFF"/>
<path opacity="0.1" d="M130.72 417.83C130.78 417.83 129.53 423 129.53 423H114.4L114.5 418.39L130.72 417.83Z" fill="#FAFAFA"/>
<path d="M154.25 265.86C144.68 267.75 147.09 303.7 148.96 322.19C151.24 309.12 154.34 283.97 156.43 266.12C155.753 265.79 154.985 265.699 154.25 265.86Z" fill="#407BFF"/>
<path opacity="0.4" d="M154.25 265.86C144.68 267.75 147.09 303.7 148.96 322.19C151.24 309.12 154.34 283.97 156.43 266.12C155.753 265.79 154.985 265.699 154.25 265.86Z" fill="#FAFAFA"/>
<path d="M172.68 245.86C172.68 245.86 175.82 300.78 175.88 323.19C175.95 346.49 170.76 422.79 170.76 422.79H158.31C158.31 422.79 154.96 347.85 153.52 324.97C151.96 300.02 146.85 245.86 146.85 245.86H172.68Z" fill="#407BFF"/>
<path opacity="0.6" d="M172.68 245.86C172.68 245.86 175.82 300.78 175.88 323.19C175.95 346.49 170.76 422.79 170.76 422.79H158.31C158.31 422.79 154.96 347.85 153.52 324.97C151.96 300.02 146.85 245.86 146.85 245.86H172.68Z" fill="#FAFAFA"/>
<path d="M175.69 238.8L172.2 239.08C171.916 239.104 171.64 239.191 171.394 239.334C171.147 239.478 170.936 239.675 170.775 239.91C170.614 240.146 170.508 240.415 170.464 240.696C170.419 240.978 170.439 241.266 170.52 241.54L171.96 246.39C172.081 246.784 172.296 247.143 172.587 247.436C172.877 247.729 173.233 247.948 173.626 248.074C174.019 248.199 174.436 248.228 174.842 248.158C175.249 248.088 175.632 247.92 175.96 247.67C177.763 245.992 179.056 243.84 179.69 241.46L175.69 238.8Z" fill="#E4897B"/>
<path d="M167.81 413.85C167.776 413.845 167.746 413.828 167.724 413.803C167.702 413.777 167.69 413.744 167.69 413.71C169.07 392.6 172.27 341.51 172.21 323.19C172.21 304.44 169.93 262.5 169.21 250.09C169.209 250.073 169.211 250.057 169.216 250.041C169.221 250.025 169.23 250.011 169.241 249.999C169.253 249.986 169.266 249.977 169.282 249.97C169.297 249.963 169.313 249.96 169.33 249.96C169.363 249.96 169.394 249.972 169.419 249.994C169.443 250.017 169.457 250.047 169.46 250.08C170.14 262.49 172.37 304.43 172.46 323.19C172.52 341.52 169.32 392.61 167.94 413.73C167.94 413.747 167.937 413.763 167.93 413.778C167.923 413.794 167.914 413.807 167.901 413.819C167.889 413.83 167.875 413.839 167.859 413.844C167.843 413.849 167.827 413.851 167.81 413.85Z" fill="#407BFF"/>
<path opacity="0.3" d="M167.81 413.85C167.776 413.845 167.746 413.828 167.724 413.803C167.702 413.777 167.69 413.744 167.69 413.71C169.07 392.6 172.27 341.51 172.21 323.19C172.21 304.44 169.93 262.5 169.21 250.09C169.209 250.073 169.211 250.057 169.216 250.041C169.221 250.025 169.23 250.011 169.241 249.999C169.253 249.986 169.266 249.977 169.282 249.97C169.297 249.963 169.313 249.96 169.33 249.96C169.363 249.96 169.394 249.972 169.419 249.994C169.443 250.017 169.457 250.047 169.46 250.08C170.14 262.49 172.37 304.43 172.46 323.19C172.52 341.52 169.32 392.61 167.94 413.73C167.94 413.747 167.937 413.763 167.93 413.778C167.923 413.794 167.914 413.807 167.901 413.819C167.889 413.83 167.875 413.839 167.859 413.844C167.843 413.849 167.827 413.851 167.81 413.85Z" fill="#FAFAFA"/>
<path d="M172.96 417.83C173.02 417.83 172.46 423 172.46 423H157.32L156.73 418.39L172.96 417.83Z" fill="#407BFF"/>
<path opacity="0.1" d="M172.96 417.83C173.02 417.83 172.46 423 172.46 423H157.32L156.73 418.39L172.96 417.83Z" fill="#FAFAFA"/>
</svg>
