<svg width="500" height="500" viewBox="0 0 500 500" fill="none" xmlns="http://www.w3.org/2000/svg">
<path d="M316.98 439.11C316.98 442.5 256.131 445.24 181.075 445.24C106.019 445.24 45.17 442.49 45.17 439.11C45.17 435.73 106.019 432.98 181.075 432.98C256.131 432.98 316.98 435.73 316.98 439.11Z" fill="#F5F5F5"/>
<path d="M386.61 54.8H255.06V243.37H386.61V54.8Z" fill="#407BFF"/>
<path opacity="0.8" d="M386.61 54.8H255.06V243.37H386.61V54.8Z" fill="white"/>
<path opacity="0.8" d="M297.97 54.8C274.44 69.64 255.45 81.52 255.45 81.52V120.01L360.24 54.8H297.97Z" fill="white"/>
<path opacity="0.8" d="M386.61 54.8H377.25C347.25 74.93 255.46 132.33 255.46 132.33V148.29L386.62 66.68V54.8H386.61Z" fill="white"/>
<path d="M176.55 54H45V242.57H176.55V54Z" fill="#407BFF"/>
<path opacity="0.8" d="M176.55 54H45V242.57H176.55V54Z" fill="white"/>
<path opacity="0.8" d="M176.55 54C176.55 56.34 45.39 138.36 45.39 138.36V176.85L176.55 95.24V54.01V54Z" fill="white"/>
<path opacity="0.8" d="M176.55 108.03C176.55 110.37 45.39 192.39 45.39 192.39V208.35L176.55 126.74V108.04V108.03Z" fill="white"/>
<path d="M272.67 203.52L268.48 220.64L233.3 241.49L235.86 248.33C235.86 248.33 275.8 237.86 278.46 234.23C281.12 230.6 288.35 206.62 288.35 206.62L272.67 203.51V203.52Z" fill="#E9B376"/>
<path opacity="0.3" d="M271.64 207.72L270.98 210.41L283.27 213.71L285.1 216.95L285.82 214.7L284.7 209.16L271.64 207.72Z" fill="black"/>
<path d="M241.48 238.7C241.48 238.7 239.69 235.81 236.95 235.2C234.21 234.59 232.18 233.37 230.11 233.05C228.04 232.74 229.88 234.88 231.09 235.83C232.3 236.77 233.66 237.86 232.8 238.65C231.94 239.44 222.16 241.7 221.1 242.93C220.04 244.16 221.73 244.29 221.73 244.29C221.73 244.29 219.37 244.9 219.36 245.9C219.36 246.16 219.77 246.77 220.89 246.66C223.41 246.41 228.67 245.62 228.67 245.62C228.37 245.66 221.95 247.1 221.01 247.44C219.79 247.89 219.44 248.72 219.72 249.42C220.12 250.41 228.14 248.9 228.53 249.07C228.53 249.07 223.88 249.79 223.41 251.09C222.94 252.39 225.89 252.1 228.44 251.35C230.78 250.66 235.55 249.92 237.86 248.99C240.71 247.84 242.36 246.43 242.49 243.56C242.61 240.68 241.48 238.69 241.48 238.69V238.7Z" fill="#407BFF"/>
<path opacity="0.3" d="M222.03 244.28C221.97 244.28 221.92 244.24 221.91 244.18C221.89 244.11 221.94 244.05 222 244.03C223.9 243.59 225.85 243.23 227.78 242.96C227.83 242.95 227.91 243 227.92 243.07C227.92 243.14 227.88 243.2 227.81 243.21C225.89 243.47 223.95 243.83 222.06 244.27C222.06 244.27 222.04 244.27 222.03 244.27V244.28Z" fill="black"/>
<path opacity="0.3" d="M230.34 248.99C230.34 248.99 230.25 248.97 230.23 248.92C229.03 246.68 228.49 244.06 228.73 241.53C228.73 241.46 228.8 241.4 228.87 241.42C228.94 241.42 228.99 241.49 228.98 241.56C228.75 244.04 229.27 246.61 230.45 248.81C230.48 248.87 230.45 248.95 230.4 248.98C230.38 248.98 230.36 248.99 230.34 248.99Z" fill="black"/>
<path d="M238.74 237.55L247.15 232.55L251.1 245.21L238.74 247.89L240.37 242.29L238.46 237.62" fill="#407BFF"/>
<path d="M288 409.56L280.22 431.21L272.95 428.94L275.22 406.15L288 409.56Z" fill="#E9B376"/>
<path d="M281.37 437.6C281.2 439.19 281.09 440.28 281.09 440.28L274.52 440.3C274.52 440.3 273.19 439.6 272.41 439.69C271.63 439.79 268.93 440.31 268.93 440.31L251.49 440.35C251.63 439.62 251.8 438.97 251.99 438.39C252.23 437.69 252.5 437.09 252.81 436.58C253.89 434.81 255.36 434.18 256.96 434.08C259.4 433.92 267.08 428.77 267.08 428.77C267.08 428.77 269.87 427.79 270.01 424.82C270.06 423.71 271.7 422.35 272.49 422.23C274.08 422 274.97 423 275.21 424.6L275.48 426.45L279.16 425.87C279.16 425.87 282.9 423.98 282.73 425.81" fill="#263238"/>
<g opacity="0.2">
<path d="M251.49 440.34L268.93 440.3C268.93 440.3 271.63 439.78 272.41 439.68C273.19 439.58 274.52 440.29 274.52 440.29L281.09 440.27C281.09 440.27 281.21 439.18 281.37 437.59L251.99 438.37C251.8 438.95 251.62 439.6 251.49 440.33V440.34Z" fill="white"/>
</g>
<path d="M263.26 430.68C263.34 430.6 263.47 430.59 263.56 430.65C263.99 430.94 264.36 431.34 264.61 431.85C264.74 432.12 264.35 432.38 264.22 432.11C264 431.66 263.68 431.3 263.3 431.05C263.17 430.97 263.15 430.79 263.26 430.68Z" fill="#407BFF"/>
<path d="M264.64 429.86C264.72 429.78 264.85 429.77 264.94 429.83C265.37 430.12 265.74 430.52 265.99 431.03C266.12 431.3 265.73 431.56 265.6 431.29C265.38 430.84 265.06 430.48 264.68 430.23C264.55 430.15 264.53 429.97 264.64 429.86Z" fill="#407BFF"/>
<path d="M266.07 429.09C266.15 429.01 266.28 429 266.37 429.06C266.8 429.35 267.17 429.75 267.42 430.26C267.55 430.53 267.16 430.79 267.03 430.52C266.81 430.07 266.49 429.71 266.11 429.46C265.98 429.38 265.96 429.2 266.07 429.09Z" fill="#407BFF"/>
<path d="M338.19 407.16L341.62 430.6L349.27 430.91L351.53 408.26L338.19 407.16Z" fill="#E9B376"/>
<path d="M355.89 441.36L338.78 441.53C338.78 441.53 338.4 440.81 338.81 438.9C338.87 438.6 338.95 438.27 339.06 437.91C339.06 437.89 339.06 437.87 339.08 437.86C339.23 437.33 339.41 436.68 339.6 435.97C340.36 433.1 341.24 429.35 341.24 429.35C341.24 429.35 344.03 423.23 347.37 424.72C350.31 426.03 349.65 429.85 349.65 429.85C349.65 429.85 349.96 432.09 352.19 434.05C353.57 435.26 354.94 436.19 355.61 437.7C355.74 437.98 355.83 438.28 355.91 438.61C355.91 438.65 355.93 438.69 355.93 438.73C356.07 439.46 356.07 440.32 355.89 441.36Z" fill="#263238"/>
<g opacity="0.2">
<path d="M338.8 438.89C338.39 440.81 338.77 441.52 338.77 441.52L355.88 441.35C356.07 440.31 356.07 439.45 355.92 438.72L338.79 438.89H338.8Z" fill="white"/>
</g>
<path d="M348.96 430.81C347.99 430.07 346.73 430.18 345.87 431.03C345.64 431.26 345.28 430.91 345.51 430.68C346.58 429.62 348.12 429.54 349.31 430.45C349.57 430.65 349.21 431.01 348.96 430.81Z" fill="#407BFF"/>
<path d="M349.46 432.4C348.49 431.66 347.23 431.77 346.37 432.62C346.14 432.85 345.78 432.5 346.01 432.27C347.08 431.21 348.62 431.13 349.81 432.04C350.07 432.24 349.71 432.6 349.46 432.4Z" fill="#407BFF"/>
<path d="M349.96 433.87C348.99 433.13 347.73 433.24 346.87 434.09C346.64 434.32 346.28 433.97 346.51 433.74C347.58 432.68 349.12 432.6 350.31 433.51C350.57 433.71 350.21 434.07 349.96 433.87Z" fill="#407BFF"/>
<path d="M355.99 262.06L320.17 262.72L297.68 262.26C297.68 262.26 282.56 330.48 281.34 343.31C280.13 356.14 269.28 423.75 269.28 423.75L286.8 427.42C286.8 427.42 305.97 355.06 307.33 348.11C308.52 342.05 321.95 303.17 325.38 293.28C325.75 295.29 326.14 297.32 326.53 299.32C327.51 308.4 330.66 337.33 332.01 348.1C332.01 348.1 335.32 409.64 338.64 427.49L355.09 427.36C357.01 401.96 357.53 312.78 357.53 312.78C358.56 293.4 355.99 262.06 355.99 262.06Z" fill="#263238"/>
<g opacity="0.5">
<path d="M307 272.34C304.98 279.23 299.45 284.8 292.58 286.87C292.21 286.98 292.37 287.56 292.75 287.45C299.82 285.32 305.51 279.58 307.59 272.49C307.7 272.12 307.12 271.96 307.01 272.34H307Z" fill="black"/>
<path d="M325.76 272.15C325.41 278.16 325.07 284.18 324.73 290.19C324.71 290.58 324.11 290.58 324.13 290.19C324.31 287.11 324.49 284.01 324.66 280.92C323.19 282.08 321.44 280.71 320.94 279.18C320.12 276.71 320.39 273.76 320.99 271.27C321.08 270.89 321.67 271.05 321.57 271.42C321.15 273.17 320.98 274.95 321.13 276.74C321.2 277.65 321.29 278.7 321.73 279.52C322.21 280.45 323.42 281.22 324.37 280.37C324.48 280.28 324.59 280.27 324.69 280.32C324.85 277.6 325 274.86 325.16 272.14C325.18 271.75 325.78 271.75 325.76 272.14V272.15Z" fill="black"/>
<path d="M343.44 273C343.44 280.96 349.63 287.57 357.56 288.12C357.94 288.15 357.93 287.55 357.56 287.53C349.95 287 344.03 280.62 344.04 273C344.04 272.62 343.45 272.62 343.45 273H343.44Z" fill="black"/>
</g>
<g opacity="0.3">
<path d="M355.99 262.06L320.17 262.72L297.68 262.26C297.68 262.26 282.56 330.48 281.34 343.31C280.13 356.14 269.28 423.75 269.28 423.75L286.8 427.42C286.8 427.42 305.97 355.06 307.33 348.11C308.52 342.05 321.95 303.17 325.38 293.28C325.75 295.29 326.14 297.32 326.53 299.32C327.51 308.4 330.66 337.33 332.01 348.1C332.01 348.1 335.32 409.64 338.64 427.49L355.09 427.36C357.01 401.96 357.53 312.78 357.53 312.78C358.56 293.4 355.99 262.06 355.99 262.06Z" fill="white"/>
</g>
<path d="M284.13 179.1C277.04 183.26 269.99 207.87 269.99 207.87L291.58 214.92L298.46 200.49L284.13 179.1Z" fill="#407BFF"/>
<path opacity="0.2" d="M288.84 199.72L287.71 213.75L282.73 212.03C284.74 206.65 283.74 186.81 283.74 186.81C283.74 186.81 287.01 196.16 288.83 199.72H288.84Z" fill="black"/>
<path d="M329.39 170.13C325.34 173.15 320.79 180.05 324.41 187.57C326.98 192.91 334.49 203.3 334.49 203.3L353.32 192.7C353.32 192.7 336.47 166.2 329.39 170.13Z" fill="#407BFF"/>
<path d="M288.05 177.3C293.11 175.84 308.46 170.18 330.35 169.73L341.94 190.98L352.82 243.92C352.82 243.92 354.96 249.98 356.75 261.56C336.72 274.89 309.29 274.6 293.4 269C292.78 262.17 293.85 263.5 292.36 250.34C289.74 227.16 284.72 200.57 283.94 179.37C283.93 178.85 287.54 177.44 288.05 177.3Z" fill="#407BFF"/>
<path d="M290.13 201.48C289.7 203.41 292.91 244.15 292.91 244.15C292.91 244.15 293.41 256.47 293.94 258.4C294.47 260.33 279.4 372.08 289.63 377.34C299.86 382.6 344.72 379.56 344.72 379.56C344.72 379.56 343.73 254.51 346.14 247.52C348.55 240.53 352.81 237.59 352.81 237.59L349.87 222.68L342.73 223.05C342.73 223.05 333.36 191.84 329.24 193.41C325.12 194.98 290.12 201.46 290.12 201.46L290.13 201.48Z" fill="#263238"/>
<path d="M292.04 202.92L294.7 203.26V203.23L294.68 203.16C294.68 203.16 294.71 203.56 294.7 203.29C294.69 203.05 294.67 202.81 294.66 202.57C294.63 201.82 294.63 201.08 294.64 200.33C294.64 198.06 294.7 195.8 294.76 193.53C294.89 188.63 295.07 183.72 295.26 178.82C295.3 177.72 295.35 176.62 295.39 175.52C295.47 173.59 292.47 173.59 292.39 175.52C292.02 184.26 291.51 193.06 291.64 201.81C291.65 202.49 291.62 203.24 291.78 203.91C292.12 205.3 293.83 205.64 294.64 204.43C295.71 202.82 293.11 201.31 292.05 202.92H292.04Z" fill="#263238"/>
<path d="M330.06 198.97C327.06 189.29 324.07 179.61 321.07 169.93C320.5 168.09 317.6 168.88 318.18 170.73C321.18 180.41 324.17 190.09 327.17 199.77C327.74 201.61 330.64 200.82 330.06 198.97Z" fill="#263238"/>
<path opacity="0.6" d="M316.13 209.46L326.51 205.76L329.05 212.86L318.67 216.57" fill="white"/>
<path d="M318.66 204.66L320.57 207.92C320.81 208.35 321.34 208.52 321.79 208.32C322.19 208.16 322.43 207.75 322.39 207.32L321.97 203.1L318.65 204.65L318.66 204.66Z" fill="#407BFF"/>
<path opacity="0.4" d="M318.66 204.66L320.57 207.92C320.81 208.35 321.34 208.52 321.79 208.32C322.19 208.16 322.43 207.75 322.39 207.32L321.97 203.1L318.65 204.65L318.66 204.66Z" fill="black"/>
<g opacity="0.2">
<path d="M327.01 258.67C331.57 257.64 335.34 252.82 337.3 248.58C339.33 244.21 341.59 236.81 341.59 236.81C338.91 240.27 336.23 243.73 333.55 247.19C331.9 249.32 330.23 251.47 328.09 253.11C325.12 255.38 321.46 256.5 317.83 257.4C313.15 258.55 308.39 259.39 303.59 259.9C303.59 259.9 314.48 261.51 327 258.68L327.01 258.67Z" fill="black"/>
</g>
<path d="M352.33 193.25C352.33 193.25 365.92 213.7 364.05 219.13C362.18 224.56 329.54 251.86 329.54 251.86L324.89 244.27L347.02 215.95L338.2 201.2L352.33 193.25Z" fill="#E9B376"/>
<path d="M312.1 170.93C312.1 170.93 309.46 165.22 309.82 153.83C309.82 153.82 309.2 153.71 309.19 153.7C309.23 152.11 309.33 150.62 309.45 149.33C309.45 149.29 309.45 149.28 309.45 149.28L297.24 161.96C298.45 165.26 298.91 172.13 298.89 175.08C298.89 175.08 298.34 180.56 305.06 179.07C309.97 177.98 312.08 170.93 312.08 170.93H312.1Z" fill="#E9B376"/>
<path opacity="0.2" d="M298.22 166.79L306.08 162.77C305.99 165.56 304.48 169.22 298.73 170.96C298.73 170.96 298.57 167.91 298.21 166.79H298.22Z" fill="black"/>
<path d="M280.81 139.47C279.96 143.26 281.25 150.79 286.2 147.89C291.15 144.98 282.27 132.95 280.81 139.47Z" fill="#263238"/>
<path d="M307.76 142.21C309.14 151.65 310.1 156.95 306.38 162.68C300.77 171.3 288.64 169.49 284.46 160.62C280.7 152.64 279.08 138.53 287.47 133C295.73 127.55 306.39 132.77 307.77 142.21H307.76Z" fill="#E9B376"/>
<path d="M306.98 130.92C304.63 126.05 291.35 128.52 288.31 131.9C287.85 132.4 296.28 134.64 295.79 134.57L299.64 135.06C300.17 134.82 301.39 135.24 302.31 136.84C302.31 136.84 303 147 307.92 150.29C311.58 147.57 312.34 145.69 312.67 142.1C313.15 136.75 309.69 133.32 306.99 130.92H306.98Z" fill="#263238"/>
<path d="M313.07 149.21C312.83 151.77 311.42 153.96 309.76 155.27C307.27 157.23 304.77 155.29 304.42 152.3C304.1 149.61 305.02 145.34 308.03 144.54C310.99 143.76 313.35 146.28 313.07 149.21Z" fill="#E9B376"/>
<path d="M294.98 147.69C295.18 148.64 294.83 149.52 294.21 149.64C293.58 149.76 292.92 149.09 292.72 148.14C292.52 147.19 292.87 146.31 293.49 146.19C294.12 146.07 294.78 146.74 294.98 147.69Z" fill="#263238"/>
<path d="M285.66 149.84C285.86 150.79 285.51 151.67 284.89 151.79C284.26 151.91 283.6 151.24 283.4 150.29C283.2 149.34 283.55 148.46 284.17 148.34C284.8 148.22 285.47 148.89 285.66 149.84Z" fill="#263238"/>
<path d="M288.59 148.67C288.59 148.67 286.56 154.04 286 156.18C287.58 157.1 289.75 156.07 289.75 156.07L288.59 148.67Z" fill="#D58745"/>
<path d="M296.37 142.71C296.24 142.8 296.06 142.82 295.91 142.74C294.08 141.84 292.62 142.67 292.6 142.68C292.38 142.81 292.1 142.74 291.97 142.52C291.84 142.3 291.91 142.03 292.13 141.9C292.21 141.85 294.04 140.81 296.31 141.93C296.54 142.04 296.63 142.31 296.52 142.54C296.48 142.61 296.43 142.67 296.37 142.71Z" fill="#263238"/>
<path opacity="0.2" d="M306.73 151.01C306.6 151.01 306.49 150.91 306.48 150.78C306.4 149.91 306.55 149.04 306.91 148.24C307.16 147.7 307.61 146.99 308.38 146.62C309.14 146.26 310.04 146.37 310.58 146.89C310.68 146.99 310.68 147.14 310.58 147.24C310.48 147.34 310.33 147.34 310.23 147.24C309.85 146.87 309.16 146.79 308.59 147.06C307.96 147.36 307.57 147.98 307.36 148.44C307.03 149.15 306.9 149.94 306.97 150.72C306.98 150.86 306.88 150.98 306.74 150.99H306.72L306.73 151.01Z" fill="black"/>
<path d="M298.8 153.88L291.52 158.74C292.23 159.49 292.94 160.25 293.82 160.79C294.7 161.33 295.64 161.4 296.65 161.17C298.08 160.83 299.2 159.66 299.45 158.21C299.69 156.76 299.32 155.27 298.8 153.89V153.88Z" fill="black"/>
<path d="M292.1 158.35C292.1 158.35 292.91 159.21 293.45 159.22C293.99 159.23 299.27 155.34 299.27 155.34L298.79 153.88L292.1 158.35Z" fill="white"/>
<path d="M295.59 161.29C295.59 161.29 295.61 159.77 297.09 158.67C298.56 157.57 299.51 157.68 299.51 157.68C299.51 157.68 299.47 159.48 298.07 160.48C296.67 161.48 295.6 161.29 295.6 161.29H295.59Z" fill="#DE5753"/>
<path d="M280.07 140.92C280.07 140.92 283.08 125.67 296.51 126.12C309.94 126.57 312.59 133.82 312.8 141.67C312.8 141.67 299.68 138.83 294.06 138.32C288.45 137.81 280.07 140.92 280.07 140.92Z" fill="#407BFF"/>
<path opacity="0.2" d="M280.07 140.92C280.07 140.92 283.08 125.67 296.51 126.12C309.94 126.57 312.59 133.82 312.8 141.67C312.8 141.67 299.68 138.83 294.06 138.32C288.45 137.81 280.07 140.92 280.07 140.92Z" fill="black"/>
<path d="M286.63 137.23C279.5 138.54 276.88 138.86 270.78 141.96C269.8 142.46 268.81 143.02 268.17 143.91C267.53 144.8 267.34 146.1 268 146.97C268.44 147.55 269.12 147.97 269.84 148.05C272.36 148.33 277.96 147.91 281.4 147.33L281.47 143.88C281.51 142.12 282.63 140.56 284.3 140.02C286.56 139.28 289.51 138.57 292.1 138.61C298.16 138.71 303.33 139.42 309.31 140.94C304.17 138.47 300.85 137.46 294.95 136.93C293.35 136.79 290.89 136.43 286.62 137.22L286.63 137.23Z" fill="#407BFF"/>
<path d="M300.54 125.21C300.01 124.86 299.31 124.82 298.72 125.03C298.13 125.24 297.63 125.7 297.31 126.24L301.29 126.83C301.39 126.21 301.06 125.55 300.54 125.2V125.21Z" fill="#407BFF"/>
<path d="M280.69 146.67C280.6 146.67 280.52 146.64 280.44 146.59C280.23 146.45 280.17 146.16 280.31 145.96C281.7 143.86 283.8 143.89 283.89 143.88C284.14 143.88 284.34 144.09 284.34 144.34C284.34 144.59 284.13 144.79 283.88 144.79C283.79 144.79 282.18 144.79 281.06 146.47C280.97 146.6 280.83 146.67 280.68 146.67H280.69Z" fill="#263238"/>
<path d="M224.03 426.75C234.22 402.94 245.24 379.48 256.82 356.31C268.76 332.42 281.29 308.79 294.94 285.83C298.02 280.65 301.15 275.51 304.39 270.43C305.31 268.99 306.25 267.55 307.23 266.16C307.48 265.81 307.73 265.46 307.98 265.12C308.01 265.08 308.86 263.96 308.31 264.67C308.83 264 309.38 263.35 309.94 262.71C311.07 261.43 312.3 260.28 313.57 259.15C314.58 258.24 312.88 259.6 313.96 258.84C314.3 258.6 314.63 258.37 314.97 258.14C315.66 257.69 316.37 257.27 317.1 256.9C317.47 256.71 317.84 256.53 318.21 256.37C317.33 256.77 318.56 256.25 318.65 256.21C319.42 255.94 320.2 255.71 320.99 255.53C321.38 255.44 321.78 255.37 322.18 255.3C321.13 255.46 322.44 255.3 322.58 255.29C322.98 255.27 323.38 255.26 323.78 255.26C323.92 255.26 325.32 255.35 324.78 255.3C324.1 255.24 325.38 255.41 325.37 255.41C325.74 255.49 326.1 255.58 326.47 255.69C326.77 255.78 327.07 255.89 327.37 255.99C328.39 256.3 326.5 255.54 327.44 256.01C327.98 256.28 328.52 256.55 329.04 256.87C329.29 257.03 329.54 257.2 329.79 257.37C330.18 257.66 330.11 257.6 329.59 257.21C329.75 257.33 329.9 257.46 330.05 257.59C330.43 257.92 330.79 258.26 331.13 258.62C331.34 258.84 331.54 259.06 331.74 259.29C331.94 259.52 332.65 260.1 331.8 259.32C332.71 260.16 333.37 261.66 333.92 262.75C334.06 263.03 334.2 263.32 334.34 263.61C334.37 263.67 334.79 264.64 334.5 263.96C334.21 263.28 334.62 264.26 334.64 264.32C334.76 264.63 334.87 264.93 334.98 265.24C335.46 266.6 335.85 267.99 336.17 269.39C336.45 270.6 336.65 271.81 336.85 273.03C337.04 274.18 336.74 272.02 336.87 273.17C336.91 273.5 336.95 273.84 336.98 274.17C337.06 274.94 337.12 275.72 337.17 276.49C337.39 279.96 337.35 283.46 337.28 286.94C337.12 294.8 336.55 302.63 335.99 310.47C334.9 325.81 333.91 341.26 336.16 356.55C337.88 368.23 341.68 379.88 347.97 389.92C351.08 394.89 354.84 399.56 359.25 403.44C361.55 405.46 364.01 407.33 366.61 408.94C368.58 410.16 370.89 411.68 373.18 412.19C376.03 412.82 378.97 413.13 381.88 413.29C384.23 413.42 386.48 411.13 386.38 408.79C386.27 406.24 384.4 404.43 381.88 404.29C380.98 404.24 380.08 404.18 379.18 404.09C378.79 404.05 378.4 404 378.01 403.96C379.16 404.09 378.06 403.96 377.85 403.93C377.01 403.8 376.1 403.48 375.25 403.44C375.23 403.44 375.12 403.39 375.1 403.4L375.84 403.7C375.62 403.6 375.41 403.5 375.2 403.39C374.67 403.13 374.14 402.86 373.62 402.58C372.27 401.86 370.97 401.07 369.7 400.22C369.12 399.83 368.55 399.43 367.98 399.01C367.83 398.9 366.9 398.17 367.78 398.87C367.51 398.65 367.23 398.44 366.96 398.22C365.88 397.34 364.84 396.41 363.83 395.43C362.82 394.45 361.86 393.44 360.93 392.4C360.47 391.87 360.01 391.34 359.57 390.8C359.35 390.53 359.13 390.25 358.91 389.98C358.6 389.59 358.62 389.61 358.97 390.06C358.83 389.87 358.69 389.68 358.55 389.5C356.86 387.22 355.32 384.81 353.94 382.33C353.24 381.07 352.58 379.79 351.96 378.5C351.7 377.96 351.45 377.41 351.2 376.86C351.05 376.53 350.91 376.2 350.76 375.87C350.56 375.4 350.57 375.43 350.79 375.94C350.7 375.72 350.6 375.49 350.51 375.27C348.26 369.75 346.62 363.99 345.51 358.13C345.26 356.82 345.04 355.5 344.85 354.19C344.82 354 344.66 352.78 344.81 353.95C344.76 353.59 344.72 353.23 344.67 352.87C344.57 352.04 344.48 351.2 344.4 350.36C344.04 346.55 343.86 342.72 343.81 338.89C343.7 330.89 344.15 322.89 344.69 314.9C345.23 306.91 345.88 298.9 346.17 290.88C346.42 284.01 346.53 277.13 345.47 270.32C344.63 264.88 342.89 259.24 339.56 254.78C335.69 249.6 329.97 246.21 323.37 246.27C307.9 246.4 299.44 261.2 292.33 272.76C278.47 295.31 265.87 318.65 253.86 342.23C241.82 365.88 230.38 389.85 219.74 414.16C218.57 416.84 217.4 419.53 216.25 422.23C215.33 424.39 215.53 427.16 217.86 428.39C219.79 429.41 223.03 429.09 224.02 426.78L224.03 426.75Z" fill="#E0E0E0"/>
<path d="M447.48 350.44H390.24C387.998 350.44 386.18 352.258 386.18 354.5V424.5C386.18 426.742 387.998 428.56 390.24 428.56H447.48C449.722 428.56 451.54 426.742 451.54 424.5V354.5C451.54 352.258 449.722 350.44 447.48 350.44Z" fill="#407BFF"/>
<path d="M453.45 361.77H384.39V371.52H453.45V361.77Z" fill="#263238"/>
<path d="M384.65 353.66H453.45L452.41 347.45H441.01L432.73 339.17H401.45L394.17 347.45L384.65 347.81V353.65V353.66Z" fill="#263238"/>
<path d="M442.12 439.13C449.013 439.13 454.6 433.543 454.6 426.65C454.6 419.758 449.013 414.17 442.12 414.17C435.228 414.17 429.64 419.758 429.64 426.65C429.64 433.543 435.228 439.13 442.12 439.13Z" fill="#263238"/>
<path d="M399.95 439.36C404.114 439.36 407.49 435.984 407.49 431.82C407.49 427.656 404.114 424.28 399.95 424.28C395.786 424.28 392.41 427.656 392.41 431.82C392.41 435.984 395.786 439.36 399.95 439.36Z" fill="#263238"/>
<path d="M386.19 403.73H376.85V413.07H386.19V403.73Z" fill="#407BFF"/>
<path opacity="0.3" d="M451.54 371.52H386.18V375.05H451.54V371.52Z" fill="black"/>
<path d="M243.86 430.13H179.35V438.26H243.86V430.13Z" fill="#263238"/>
<path d="M234.18 427.02H187.73V431.76H234.18V427.02Z" fill="#263238"/>
<path d="M211.88 427.48C212.12 427.48 218.75 413.32 218.75 413.32L229.94 415.58L224.5 427.02L211.88 427.49V427.48Z" fill="#263238"/>
<path d="M324.54 241.44C323.95 241.49 315.12 244.78 311.89 249.11L315.95 248.22L311.55 259.18C311.55 259.18 310.66 263.84 316.63 261.1C322.6 258.35 324.49 263.49 328.2 258.02C331.91 252.55 335.94 247.15 335.94 247.15L342.45 242.5L331.27 230.76L324.54 241.44Z" fill="#407BFF"/>
<path opacity="0.3" d="M386.18 403.73H384.39V413.07H386.18V403.73Z" fill="black"/>
<path d="M454.05 379.57V404.9C454.05 405.38 454.8 405.38 454.8 404.9V379.57C454.8 379.09 454.05 379.09 454.05 379.57Z" fill="#407BFF"/>
<path d="M454.05 409.07V412.16C454.05 412.64 454.8 412.64 454.8 412.16V409.07C454.8 408.59 454.05 408.59 454.05 409.07Z" fill="#407BFF"/>
<path d="M264.25 284.38C264.45 286.94 262.83 289.02 260.61 289.02H190.37C188.14 289.02 186.17 286.94 185.97 284.38L181.8 232.69C181.75 232.16 181.79 231.65 181.89 231.18C182.29 229.36 183.68 228.05 185.44 228.05H255.68C257.91 228.05 259.87 230.13 260.08 232.69L264.25 284.38Z" fill="#263238"/>
<path opacity="0.7" d="M264.25 284.38C264.45 286.94 262.83 289.02 260.61 289.02H190.37C188.14 289.02 186.17 286.94 185.97 284.38L181.8 232.69C181.75 232.16 181.79 231.65 181.89 231.18C182.29 229.36 183.68 228.05 185.44 228.05H255.68C257.91 228.05 259.87 230.13 260.08 232.69L264.25 284.38Z" fill="white"/>
<path d="M260.36 289.02H190.37C188.14 289.02 186.17 286.94 185.97 284.38L181.8 232.69C181.75 232.16 181.79 231.65 181.89 231.18H251.88C254.1 231.18 256.06 233.26 256.28 235.82L260.45 287.51C260.5 288.04 260.46 288.55 260.36 289.02Z" fill="#263238"/>
<path opacity="0.5" d="M260.36 289.02H190.37C188.14 289.02 186.17 286.94 185.97 284.38L181.8 232.69C181.75 232.16 181.79 231.65 181.89 231.18H251.88C254.1 231.18 256.06 233.26 256.28 235.82L260.45 287.51C260.5 288.04 260.46 288.55 260.36 289.02Z" fill="white"/>
<path d="M213.26 276.96L227.38 277.03L224.65 302.46L238.52 302.68V305.67L201.16 305.76V302.81L210.16 302.63L213.26 276.96Z" fill="#263238"/>
<path opacity="0.3" d="M227.38 277.03C227.34 277.41 230.51 289.02 230.51 289.02H226.09L227.38 277.03Z" fill="black"/>
<path opacity="0.3" d="M211.81 289.02L213.26 276.96L209.61 289.02H211.81Z" fill="black"/>
<path d="M178.25 307.05H173.4V440.56H178.25V307.05Z" fill="#263238"/>
<path opacity="0.3" d="M178.25 307.05H173.4V440.56H178.25V307.05Z" fill="white"/>
<path d="M143.36 307.05H138.51V440.56H143.36V307.05Z" fill="#263238"/>
<path opacity="0.3" d="M143.36 307.05H138.51V440.56H143.36V307.05Z" fill="white"/>
<path opacity="0.2" d="M138.51 315.5V324.11L143.36 321.95V314.76L138.51 315.5Z" fill="black"/>
<path opacity="0.2" d="M173.4 315.5V324.11L178.25 321.95V314.76L173.4 315.5Z" fill="black"/>
<path d="M281.68 307.05H276.83V440.56H281.68V307.05Z" fill="#263238"/>
<path opacity="0.3" d="M281.68 307.05H276.83V440.56H281.68V307.05Z" fill="white"/>
<path opacity="0.2" d="M276.83 315.5V324.11L281.68 321.95V314.76L276.83 315.5Z" fill="black"/>
<path d="M326.24 307.05H321.39V440.56H326.24V307.05Z" fill="#263238"/>
<path opacity="0.3" d="M326.24 307.05H321.39V440.56H326.24V307.05Z" fill="white"/>
<path opacity="0.2" d="M321.39 315.41V324.02L326.24 321.86V314.67L321.39 315.41Z" fill="black"/>
<path d="M332.29 305.62H132.22V315.5H332.29V305.62Z" fill="#263238"/>
<path opacity="0.3" d="M332.28 305.62H285.35V315.5H332.28V305.62Z" fill="black"/>
<path opacity="0.6" d="M213.26 276.96L227.38 277.03L224.65 302.46L238.52 302.68V305.67L201.16 305.76V302.81L210.16 302.63L213.26 276.96Z" fill="white"/>
<path d="M161.87 284.48C160.55 280.37 152.82 276.42 153.15 273.46C153.48 270.5 153.43 266.55 153.43 266.55H145.74C145.08 267.21 138.5 280.2 140.97 295.5L143.08 305.7H158.57C158.57 305.7 163.18 288.59 161.86 284.48H161.87Z" fill="#407BFF"/>
<path d="M153.91 263.55H144.77V267.35H153.91V263.55Z" fill="#263238"/>
<path d="M138.38 261.68C138.38 261.68 139.42 254.9 144.34 254.52C149.26 254.14 158.38 254.52 158.38 254.52V259.11H153.91V263.55H145.15V260.25C145.15 260.25 142.96 258.72 138.37 261.67L138.38 261.68Z" fill="#263238"/>
<path d="M153.91 261.85C153.91 261.85 154.61 265.67 160.3 266.08L160.52 265.13C160.52 265.13 156.19 263.79 156.07 259.12H153.91V261.86V261.85Z" fill="#263238"/>
<path opacity="0.3" d="M156 277.72L140.42 285.54C140.42 285.54 140.34 291.4 140.42 291.32C140.5 291.24 159.09 280.59 159.02 280.53C158.96 280.47 155.99 277.72 155.99 277.72H156Z" fill="white"/>
<path opacity="0.3" d="M140.86 294.71L160.51 282.15C160.51 282.15 161.3 283.27 161.27 283.22C161.24 283.17 141.39 297.1 141.39 297.1L140.86 294.71Z" fill="white"/>
<path d="M127.43 381.68C130.06 378.44 135.15 376.27 140.73 375.23C140.29 376.83 140.62 378.3 141.56 378.66C142.61 379.06 144.03 377.93 144.72 376.13C144.91 375.62 145.02 375.12 145.07 374.64C150.7 374.18 156.33 374.83 160.09 376.63C160.09 376.63 156.41 379.95 152.24 388.67C152.11 388.67 151.98 388.67 151.85 388.67C149.15 388.7 146.98 390 147 391.58C147.01 392.73 148.19 393.71 149.88 394.15C149.66 394.71 149.44 395.28 149.22 395.87C145.25 406.61 134.66 398.85 134.75 391.49C134.75 391.49 121.53 388.95 127.42 381.68H127.43Z" fill="#407BFF"/>
<path d="M114.38 367.81C111.14 364.31 105.17 362.22 98.73 361.45C99.35 363.24 99.08 364.94 98.04 365.43C96.87 365.97 95.17 364.79 94.25 362.79C93.99 362.23 93.83 361.66 93.75 361.12C87.3 361.02 80.93 362.18 76.78 364.52C76.78 364.52 81.22 368.03 86.63 377.65C86.78 377.64 86.92 377.62 87.07 377.61C90.15 377.44 92.72 378.76 92.82 380.56C92.89 381.88 91.62 383.08 89.73 383.7C90.02 384.32 90.31 384.95 90.61 385.61C95.94 397.56 107.43 387.92 106.77 379.54C106.77 379.54 121.66 375.66 114.39 367.81H114.38Z" fill="#407BFF"/>
<path d="M106.5 365.18C107.88 358.46 113.65 351.45 121 345.7C121.57 348.36 123.17 350.26 124.82 350.07C126.66 349.86 127.86 347.14 127.5 344C127.4 343.11 127.18 342.3 126.88 341.57C134.74 336.64 143.44 333.31 150.28 333.09C150.28 333.09 147.43 340.71 147.97 356.58C147.78 356.67 147.59 356.76 147.4 356.86C143.49 358.94 141.31 362.49 142.53 364.78C143.42 366.45 145.88 366.99 148.67 366.34C148.77 367.32 148.89 368.31 149.02 369.34C151.38 388.01 130.06 384.71 124.62 373.92C124.62 373.92 103.42 380.24 106.51 365.18H106.5Z" fill="#407BFF"/>
<path opacity="0.2" d="M106.5 365.18C107.88 358.46 113.65 351.45 121 345.7C121.57 348.36 123.17 350.26 124.82 350.07C126.66 349.86 127.86 347.14 127.5 344C127.4 343.11 127.18 342.3 126.88 341.57C134.74 336.64 143.44 333.31 150.28 333.09C150.28 333.09 147.43 340.71 147.97 356.58C147.78 356.67 147.59 356.76 147.4 356.86C143.49 358.94 141.31 362.49 142.53 364.78C143.42 366.45 145.88 366.99 148.67 366.34C148.77 367.32 148.89 368.31 149.02 369.34C151.38 388.01 130.06 384.71 124.62 373.92C124.62 373.92 103.42 380.24 106.51 365.18H106.5Z" fill="white"/>
<path d="M139.36 345.75C139.55 345.53 139.66 345.42 139.66 345.42C139.56 345.53 139.46 345.64 139.36 345.75Z" fill="#263238"/>
<path d="M121.5 407.84C117.93 388 123.26 366.72 135.77 350.91L136.36 351.37C123.99 367.01 118.71 388.07 122.24 407.7L121.5 407.83V407.84Z" fill="#263238"/>
<path d="M120.9 401.07C120.9 401.07 120.82 401.07 120.79 401.05C120.68 401.01 120.59 400.93 120.55 400.81C118.03 393.43 109.52 377.52 95.3601 370.17C95.1801 370.07 95.1001 369.85 95.2001 369.66C95.3001 369.48 95.5201 369.41 95.7101 369.5C109.79 376.81 118.35 392.42 121.1 400.09C123.85 398.1 139.8 386.59 147.79 381.47C147.96 381.36 148.2 381.41 148.31 381.58C148.42 381.75 148.37 381.99 148.2 382.1C139.5 387.67 121.32 400.86 121.14 400.99C121.07 401.04 121 401.06 120.92 401.06L120.9 401.07Z" fill="#263238"/>
<path d="M143.77 414.08H98.9L98.92 405.86H143.72L143.77 414.08Z" fill="#263238"/>
<path d="M102.15 411.4L109.16 440.56H134.98L141.23 411.4H102.15Z" fill="#263238"/>
<path opacity="0.3" d="M102.79 414.08H140.65L139.96 417.31H103.47L102.79 414.08Z" fill="black"/>
<path d="M105.39 404.43H101.4C101.26 404.43 101.15 404.32 101.15 404.18C101.15 404.04 101.26 403.93 101.4 403.93H105.39C105.53 403.93 105.64 404.04 105.64 404.18C105.64 404.32 105.53 404.43 105.39 404.43Z" fill="#407BFF"/>
<path d="M118.15 404.43H107.23C107.09 404.43 106.98 404.32 106.98 404.18C106.98 404.04 107.09 403.93 107.23 403.93H118.15C118.29 403.93 118.4 404.04 118.4 404.18C118.4 404.32 118.29 404.43 118.15 404.43Z" fill="#407BFF"/>
</svg>
