<?xml version="1.0" encoding="UTF-8"?>
<svg id="Layer_2" xmlns="http://www.w3.org/2000/svg" viewBox="0 0 204.16 257">
  <g id="Layer_1-2" data-name="Layer_1">
    <path d="M183,94c-8-5-19-7-19-10s4-1,17-4c13-1,20-7,20-7,0,0,4-5,3-10s-7-6-7-6c0,0-5-3-15-4-18-2-18,9-18,9,0,0-1,11-6,12s-7-8-7-8c0,0-4-9-11-21s-17-24-17-24c0,0-6-7-31-14C57,0,0,0,0,0v86.06c20.69.31,115.98,1.5,148-2.06,0,0-32.99,20.99-59.99,53.98.34-.7,11.3-23.31,30.99-43.98,0,0-81.23,2.74-119,.36v97.64h55.28c.17-.02,21.77-1.94,34.72,13,12.76,14.72,17.81,19.81,17.99,19.99t.01.02c.14.22,4.36,6.99,17.57,6.99h31c8.65,0,17.23-2.16,24.63-6.65,3.39-2.06,6.67-4.64,9.13-7.84.43-.56,1.29-.22,1.26.47-.4,7.59-10.9,22.02-26.59,22.02h-31v4.72s.69,6.28,2.7,8.28,7.03,4,7.03,4h49.22s4.02-1,7.03-4,3.01-8,3.01-8v-115.45s-3-17.55-5-21.55-7-9-15-14ZM179,124c-5,22-13,27-46,31-21.22,2.57-28.79,3.9-32.03,3.99-1.73.05-2.96-1.68-2.36-3.31,1.49-4.01,6.53-12.62,23.39-20.68,23-11,45-23,47-24s15-9,10,13ZM98,229.72s-.04-.06-.06-.09c-.28-.5-.72-1.07-1.34-1.72l-11.59-14.9h-.01c-.1-.2-6.22-11.01-32-11.01H0v30h97.48c.47,0,.87-.35.92-.81.04-.4-.08-.88-.4-1.47Z"/>
  </g>
</svg>