<?xml version="1.0" encoding="UTF-8"?>
<svg id="Layer_2" xmlns="http://www.w3.org/2000/svg" viewBox="0 0 320.48 98.71">
  <defs>
    <style>
      .cls-1 {
        fill: #add84f;
      }

      .cls-2 {
        fill: #0a5ebf;
      }
    </style>
  </defs>
  <g id="Layer_1-2" data-name="Layer_1">
    <g>
      <g>
        <path class="cls-2" d="M0,94.81L14.47,0h27.67l-5.46,35.41h29.7L71.84,0h27.67l-14.47,94.81h-27.67l5.2-34.39h-29.7l-5.2,34.39H0Z"/>
        <path class="cls-1" d="M84.24,94.81L98.7,0h33c23.35,0,36.3,11.42,36.3,29.19,0,14.85-9.01,26.91-23.99,32.49l20.43,33.13h-31.86l-14.72-29.83h-1.27l-4.57,29.83h-27.79ZM123.71,44.8c9.39,0,15.86-3.68,15.86-10.92,0-6.09-4.57-8.88-13.2-8.88h-3.68l-3.04,19.8h4.06Z"/>
      </g>
      <g>
        <path d="M196.77,70.7c.62,1.36.87,2.85.87,4.09,0,7.18-6.69,14.36-11.14,17.71-5.08,3.59-10.65,5.08-15.97,5.08-4.09,0-7.8-.87-10.9-2.6-5.82-3.1-10.9-10.9-11.14-21.05-.5-25.01,21.67-47.43,35.66-53.74,3.22-1.24,6.69-2.1,9.78-2.1s5.94.87,8.05,2.6c4.21,3.71,7.43,8.54,7.43,13.37,0,2.23-.5,4.71-1.73,7.18-2.11,4.21-3.84,8.42-4.71,11.14-.62,2.11-2.35,3.34-4.83,1.86-2.48-1.61-4.21-4.33-4.21-7.92,0-1.49.25-2.97.74-4.58.5-1.86,1.36-3.84,2.11-5.7,1.73-4.33,3.22-8.3,1.73-9.91-2.97-3.22-20.55,7.55-30.83,24.15-5.45,8.79-7.8,18.95-7.8,26.37,0,10.65,4.71,15.35,9.16,15.35,6.81,0,15.6-7.92,22.78-21.67.87-1.73,3.71-2.48,4.95.37Z"/>
        <path d="M242.96,35.29c-3.84,14.74-17.34,29.35-28.23,36.65-2.48,6.32-4.09,11.89-4.09,16.22,0,2.97.74,5.08,2.35,5.08,5.7,0,12.88-8.3,17.58-17.21,1.61-3.1,4.33-3.1,5.2.12.5,1.86.37,4.71-1.24,8.05-1.86,3.71-11.02,13.87-21.42,13.87-7.55,0-12.26-4.33-12.26-12.88,0-2.1.25-4.58.87-7.06,4.83-20.55,18.82-43.46,30.96-56.22,2.35-2.35,4.58-3.1,6.93-.87,2.72,2.35,4.09,5.82,4.09,9.04,0,1.73-.12,3.1-.74,5.2ZM228.84,45.07c-3.22,5.45-8.67,14.74-9.53,16.84,5.32-5.2,9.53-10.9,12.38-15.73,4.21-7.06,5.82-12.51,5.08-13-.5-.25-3.71,4.58-7.92,11.89Z"/>
        <path d="M261.53,98.69c-7.31,0-11.02-3.59-11.52-9.16-4.21,4.71-9.78,8.54-16.1,8.54s-8.79-4.71-8.79-10.03c0-2.72.5-5.57,1.61-8.54,2.72-7.8,9.04-20.18,16.72-30.96,1.61-2.11,3.84-1.86,5.32,0,1.36,1.73,1.86,3.84,1.86,5.7,0,5.08-9.04,19.44-13.37,28.98-2.23,4.95-2.6,9.53.12,9.53,3.22,0,9.78-8.42,16.1-18.33,7.31-11.89,10.53-20.31,14.98-26,1.73-2.35,3.71-2.85,5.2-.74,1.24,1.73,1.86,3.71,1.86,6.44,0,4.21-2.6,9.66-6.93,16.84-3.59,5.82-8.42,14.24-8.42,19.07,0,2.23.74,3.47,2.35,3.47,4.09,0,10.4-8.54,14.86-16.34,1.24-2.11,3.34-2.48,4.33-.12.5,1.11.99,4.71-.87,8.3-3.59,7.06-11.64,13.37-19.32,13.37Z"/>
        <path d="M316.02,77.76c-5.82,12.88-13.62,20.06-21.3,20.06-5.94,0-10.15-2.48-12.63-6.56l-2.48,5.45c-1.12,2.35-2.6,2.72-4.21.62-1.98-2.72-3.34-6.07-.74-13.99,3.59-10.9,25.14-51.26,35.54-66.62,1.86-2.72,3.59-2.72,5.2.12.87,1.49,1.24,3.22,1.24,5.2,0,3.34-1.36,8.17-4.33,13.5-1.86,3.34-4.95,8.05-8.54,14.36,2.23-1.24,4.95-2.23,6.93-2.23,6.81,0,9.78,4.95,9.78,12.01,0,4.95-1.36,11.39-4.46,18.08ZM308.22,54.11c-1.49,0-3.84,1.36-7.18,4.58-5.2,5.45-10.77,15.35-15.35,24.77.25,3.59,2.35,7.31,4.83,7.31,3.47,0,8.3-3.84,14.49-16.47,3.59-7.06,4.95-12.38,4.95-15.97,0-2.72-.37-4.21-1.73-4.21Z"/>
      </g>
    </g>
  </g>
</svg>