<?xml version="1.0" encoding="UTF-8"?>
<svg id="Layer_2" xmlns="http://www.w3.org/2000/svg" viewBox="0 0 1080 1080">
  <defs>
    <style>
      .cls-1 {
        fill: #50d9b2;
      }

      .cls-2 {
        fill: #fff;
      }
    </style>
  </defs>
  <g id="Layer_1-2" data-name="Layer_1">
    <g>
      <rect class="cls-1" width="1080" height="1080"/>
      <g>
        <g>
          <path class="cls-2" d="M785.32,400.87c-10.91-6.82-25.91-9.55-25.91-13.64s5.44-1.37,23.09-5.43c.06-.01.13-.03.2-.03,16.47-1.29,25.85-8.47,27.05-9.43.09-.07.17-.15.23-.24.75-.99,5.24-7.25,3.99-13.5-1.24-6.19-8.09-7.88-9.35-8.15-.14-.03-.25-.07-.38-.14-1.15-.64-7.91-4.12-20.28-5.35-24.55-2.73-24.55,12.27-24.55,12.27,0,0-1.36,15-8.18,16.37-6.44,1.29-9.23-9.58-9.52-10.8-.02-.08-.04-.14-.07-.22-.56-1.24-5.93-13.06-14.95-28.53-9.55-16.37-23.19-32.73-23.19-32.73,0,0-4.92-5.73-23-12.76-10.79-4.19-22.03-7.08-33.48-8.79-39.64-5.92-90.62-6.9-106.4-7.06-2.69-.03-4.88,2.15-4.88,4.84v107.21c0,2.94,2.35,5.33,5.29,5.37,34.81.48,144.97,1.61,190.71-2.31,1.52-.13,2.24,1.83.98,2.7-11.19,7.72-39.79,28.68-66.72,58.48-1.33,1.47-3.65-.23-2.64-1.94,6.65-11.19,17.56-27.64,32.25-43.58.89-.97.21-2.53-1.11-2.49-18.52.5-105.29,2.62-152.96.23-3.16-.16-5.81,2.37-5.81,5.54v121.48c0,3.49,2.83,6.32,6.32,6.32h69.07c.23-.03,29.69-2.65,47.35,17.73,17.4,20.08,24.29,27.02,24.54,27.26t.01.03c.19.3,5.95,9.53,23.96,9.53h42.28c11.8,0,23.5-2.95,33.59-9.07,4.62-2.81,9.1-6.33,12.45-10.69.59-.76,1.76-.3,1.72.64-.55,10.35-14.87,30.03-36.27,30.03h-40.79c-.82,0-1.49.67-1.49,1.49v4.86c0,.06,0,.11,0,.17.1.88,1.09,8.64,3.68,11.21.51.51,1.17,1.02,1.9,1.52,3.92,2.65,8.6,3.94,13.33,3.94h57.2c4.73,0,9.41-1.52,12.98-4.62.31-.26.61-.54.9-.84,4.11-4.09,4.11-10.91,4.11-10.91v-142.3c0-12.16-1.36-24.29-4.22-36.11-.89-3.68-1.8-6.85-2.6-8.44-2.73-5.46-9.55-12.27-20.46-19.09ZM779.87,441.79c-6.82,30.01-17.73,36.82-62.74,42.28-28.94,3.5-39.27,5.32-43.69,5.44-2.36.07-4.04-2.29-3.22-4.51,2.03-5.47,8.91-17.21,31.9-28.21,31.37-15,61.37-31.37,64.1-32.73,2.73-1.36,20.46-12.27,13.64,17.73ZM669.39,585.98s-.05-.08-.08-.12c-.38-.68-.98-1.46-1.83-2.35l-15.81-20.32h-.01c-.14-.27-8.48-15.02-43.64-15.02h-66.64c-3.12,0-5.65,2.53-5.65,5.65v31.13c0,2.28,1.85,4.14,4.14,4.14h127.69c1.6,0,2.61-1.71,1.84-3.11h0Z"/>
          <g>
            <path class="cls-2" d="M408.66,475.88s-32.21,0-42.02,2.67c-15.07,4.09-26.61,13.72-26.61,21.33,0,17.33,2.8,34.66,21.01,34.66h155.78c2.91,0,5.27-2.36,5.27-5.27v-42.39c0-1.89-1.01-3.65-2.66-4.58-11.38-6.41-20.92-6.41-36.17-6.41h-74.61Z"/>
            <path class="cls-2" d="M409.97,280.85c-55.98,5.45-78.38,17.72-97.97,36.8-19.59,19.08-18.19,51.8-18.19,51.8v16.8c0,1.59,1.09,2.96,2.67,3.36,4.2,1.08,10.18,3.17,18.36,7.14,7,3.41,12.21,9.09,16.03,14.97,6.17,9.53,9.17,20.69,9.17,31.95v32.54c0,1.36,1.61,2.12,2.71,1.27,5.79-4.5,21.07-13.9,47.68-13.9h86.19c.32,0,25.03.01,38.78,4.93,3.29,1.18,6.71-1.57,6.71-5.07v-185.48c0-2.93-2.4-5.3-5.33-5.27-29.76.29-53.92,3-106.79,8.15Z"/>
            <path class="cls-2" d="M334.42,535.88c-7.01-8.18-7-16.37-7-16.37v-75.01s0-35.46-33.59-42.28h-.03c-19.6,0-23.8,2.73-23.8,2.73-29.4,10.91-26.02,30-26.02,47.18-.26,10.55,5.68,17.54,12.36,22.05,11.37,7.68,17.86,20.55,17.86,34.03v42.69c0,25.92,18.2,38.19,30.79,38.19,9.8,0,8.4,2.73,8.4,4.09s-8.15,25.59-8.15,25.59c-.7,2.2.98,4.42,3.33,4.42h20.21c10.15,0,22.55-22.1,27-30.72,1.08-2.07,3.26-3.38,5.64-3.38h155.4c2.91,0,5.27-2.36,5.27-5.27v-30.38c0-2.91-2.36-5.27-5.27-5.27h-157.08c-14.11,0-22.52-9.02-25.32-12.29Z"/>
          </g>
        </g>
        <g>
          <g>
            <path class="cls-2" d="M169.85,775.72l15.93-104.38h30.46l-6.01,38.99h32.7l6.01-38.99h30.46l-15.93,104.38h-30.46l5.73-37.87h-32.7l-5.73,37.87h-30.46Z"/>
            <path class="cls-2" d="M291.98,696.91h29.9l-12.02,78.81h-29.9l12.02-78.81ZM310,660.72c8.53,0,15.51,6.85,15.51,15.37s-6.99,15.37-15.51,15.37-15.51-6.85-15.51-15.37,6.85-15.37,15.51-15.37Z"/>
            <path class="cls-2" d="M358.21,807.3c-11.04,0-24.73-3.91-33.82-11.46l4.33-27.39c9.08,9.22,19,13.41,28.51,13.41s19.7-4.05,21.38-14.67l.56-3.49c-4.33,5.03-11.74,9.36-21.24,9.36-18.72,0-30.6-15.09-30.6-34.37,0-25.15,17.75-43.88,38.85-43.88,10.62,0,18.03,4.47,22.64,12.58l4.05-10.48h26.41l-10.34,67.63c-4.61,28.79-24.73,42.76-50.72,42.76ZM369.39,747.91c9.08,0,15.09-7.69,15.09-15.37,0-6.99-4.89-11.74-11.6-11.74-9.08,0-15.09,7.55-15.09,15.51,0,6.99,4.75,11.6,11.6,11.6Z"/>
            <path class="cls-2" d="M433.95,696.91h29.9l-12.02,78.81h-29.9l12.02-78.81ZM451.97,660.72c8.53,0,15.51,6.85,15.51,15.37s-6.99,15.37-15.51,15.37-15.51-6.85-15.51-15.37,6.85-15.37,15.51-15.37Z"/>
          </g>
          <g>
            <path class="cls-2" d="M478.51,775.72l15.93-104.38h36.33c25.71,0,39.96,12.58,39.96,32.14,0,16.35-9.92,29.62-26.41,35.77l22.5,36.47h-35.07l-16.21-32.84h-1.4l-5.03,32.84h-30.6ZM521.97,720.67c10.34,0,17.47-4.05,17.47-12.02,0-6.71-5.03-9.78-14.53-9.78h-4.05l-3.35,21.8h4.47Z"/>
            <path class="cls-2" d="M655.98,775.72h-25.71l-.84-11.04c-6.71,8.94-14.53,13.27-24.31,13.27-16.77,0-29.48-13.97-29.48-35.91,0-27.39,18.02-47.37,38.99-47.37,10.06,0,17.6,4.61,22.22,12.72l4.05-10.48h27.11l-12.02,78.81ZM617.55,751.55c9.5,0,15.09-8.66,15.09-17.33,0-7.82-4.61-12.99-12.02-12.99-9.36,0-15.09,8.52-15.09,17.33,0,7.82,4.61,12.99,12.02,12.99Z"/>
            <path class="cls-2" d="M708.24,696.91l.42,11.04c5.87-8.38,14.95-13.28,24.73-13.28,16.07,0,28.79,14.11,28.79,35.49,0,27.95-18.86,47.79-38.99,47.79-8.8,0-16.91-4.61-20.82-12.72l-6.15,39.82h-29.9l16.49-108.15h25.43ZM717.46,751.41c9.78,0,15.23-8.8,15.23-17.47,0-7.69-4.19-12.86-11.88-12.86-9.5,0-15.23,8.52-15.23,17.19,0,7.82,4.33,13.13,11.88,13.13Z"/>
            <path class="cls-2" d="M779.08,696.91h29.9l-12.02,78.81h-29.9l12.02-78.81ZM797.1,660.72c8.53,0,15.51,6.85,15.51,15.37s-6.99,15.37-15.51,15.37-15.51-6.85-15.51-15.37,6.85-15.37,15.51-15.37Z"/>
            <path class="cls-2" d="M892.96,775.72h-26.27l-.7-11.04c-6.15,8.8-14.11,13.27-23.34,13.27-16.07,0-29.07-14.11-29.07-35.63,0-27.95,19.98-47.65,38.01-47.65,9.36,0,18.17,4.75,21.94,12.44l6.71-44.02h29.9l-17.19,112.63ZM855.37,751.55c9.5,0,15.23-8.52,15.23-17.19,0-7.82-4.33-13.13-11.88-13.13-9.78,0-15.23,8.8-15.23,17.47,0,7.69,4.19,12.86,11.88,12.86Z"/>
          </g>
        </g>
      </g>
    </g>
  </g>
</svg>