<?xml version="1.0" encoding="UTF-8"?>
<svg id="Layer_2" xmlns="http://www.w3.org/2000/svg" viewBox="0 0 101 101">
  <defs>
    <style>
      .cls-1 {
        fill: #fff;
      }

      .cls-2 {
        fill: #0a5ebf;
      }
    </style>
  </defs>
  <g id="Layer_1-2" data-name="Layer_1">
    <g>
      <rect class="cls-1" width="101" height="101" rx="15.17" ry="15.17"/>
      <g>
        <path class="cls-2" d="M14.1,74.92l7.45-48.83h14.25l-2.81,18.24h15.3l2.81-18.24h14.25l-7.45,48.83h-14.25l2.68-17.71h-15.3l-2.68,17.71h-14.25Z"/>
        <path class="cls-2" d="M43.76,74.92l7.45-48.83h17c12.03,0,18.7,5.88,18.7,15.04,0,7.65-4.64,13.86-12.35,16.73l10.52,17.06h-16.41l-7.58-15.36h-.65l-2.35,15.36h-14.32ZM64.09,49.16c4.84,0,8.17-1.9,8.17-5.62,0-3.14-2.35-4.58-6.8-4.58h-1.9l-1.57,10.2h2.09Z"/>
      </g>
    </g>
  </g>
</svg>
