<?xml version="1.0" encoding="UTF-8"?>
<svg id="Layer_2" xmlns="http://www.w3.org/2000/svg" viewBox="0 0 309.66 185.6">
  <defs>
    <style>
      .cls-1 {
        fill: #add84f;
      }
    </style>
  </defs>
  <g id="Layer_1-2" data-name="Layer_1">
    <g>
      <g>
        <path class="cls-1" d="M131.19,89.49c2.03,0,5.72.93,7.57,1.43.7.19,1.44,0,1.95-.52l.91-.91c-3.48-3.48-10.43,0-10.43,0Z"/>
        <path class="cls-1" d="M147.7,88.62c.87-11.29-22.59-8.69-22.59-8.69,0,0-3.48-5.21,1.74-12.16s6.95-15.64-3.48-26.06c-10.43-10.43-8.69-24.33-8.69-24.33-11.69,6.67-2.5,22.99-1.79,24.26-6.9-6.93-8.64-15.57-8.64-15.57-8.48,8.48,4.57,20.28,5.2,20.83-10.41-5.2-12.15-12.15-12.15-12.15-5.07,10.17,6.34,20.31,6.93,20.83-5.21-1.74-10.41-10.41-10.41-10.41-1.74,8.69,7.82,18.25,7.82,18.25-5.21,1.74-9.56-7.82-9.56-7.82.87,25.2,17.38,31.28,17.38,31.28,0,0-12.16,0-19.11-19.11-6.95-19.11-15.64-20.85-27.8-26.06C27.8,26.06,13.9,0,13.9,0,5.44,15.22,29.9,33.73,31.23,34.72,15.6,27.77,0,10.43,0,10.43c0,25.25,34.25,34.2,36.39,34.74C13.87,41.67,3.48,33.02,3.48,33.02c1.74,19.11,38.23,24.33,38.23,24.33-17.38,1.74-31.28-6.95-31.28-6.95,5.21,17.38,36.49,17.38,36.49,17.38-8.69,3.48-27.8-1.74-27.8-1.74,8.69,15.64,34.75,10.43,34.75,10.43-5.21,5.21-24.33,3.48-24.33,3.48,10.43,13.9,29.54,5.21,29.54,5.21-5.21,5.21-19.11,5.21-19.11,5.21,6.67,10.03,23.01,2.38,24.26,1.79-3.54,3.48-13.83,6.9-13.83,6.9,5.11,6.81,18.54.28,19.1.02-3.48,5.2-8.67,5.2-8.67,5.2,5.09,5.09,16.82-1.42,17.36-1.72-13.92,12.16-57.33,27.78-57.33,27.78,8.69,12.16,29.54-3.48,29.54-3.48-6.95,8.69-17.38,10.43-17.38,10.43,13.55,10.17,27.11-9.4,27.78-10.39-3.49,6.95-13.01,16.47-13.01,16.47,24.33-3.48,23.46-16.51,23.46-16.51,3.48,6.95-6.95,13.9-6.95,13.9,17.38-3.48,15.64-13.9,15.64-13.9,31.28,1.74,31.58-10.96,49.52-21.72s22.59,1.74,22.59,1.74c12.16-13.9-4.34-18.25-4.34-18.25ZM152.04,101.65c-10.43-10.43-28.83,2.73-29.54,3.48,5.21-10.43-7.82-.87-7.82-.87,10.43-8.69-1.74-6.95-1.74-6.95,8.69-5.21,0-5.7,0-5.7,12.16-3.94.87-5.6.87-5.6,0,0,13.9-5.21,25.2-2.61,6.05,1.39,6.19,4.24,5.72,5.82-.17.61.21,1.2.8,1.34.87.23,2.21.59,3.91,1.53,7.82,4.34,2.61,9.56,2.61,9.56Z"/>
      </g>
      <g>
        <path class="cls-1" d="M107.77,167.89l5.83-38.23h11.16l-2.2,14.28h11.98l2.2-14.28h11.16l-5.83,38.23h-11.16l2.1-13.87h-11.98l-2.1,13.87h-11.16Z"/>
        <path class="cls-1" d="M152.5,139.03h10.95l-4.4,28.86h-10.95l4.4-28.86ZM159.1,125.77c3.12,0,5.68,2.51,5.68,5.63s-2.56,5.63-5.68,5.63-5.68-2.51-5.68-5.63,2.51-5.63,5.68-5.63Z"/>
        <path class="cls-1" d="M176.75,179.46c-4.04,0-9.06-1.43-12.38-4.2l1.59-10.03c3.33,3.38,6.96,4.91,10.44,4.91s7.22-1.48,7.83-5.37l.21-1.28c-1.59,1.84-4.3,3.43-7.78,3.43-6.86,0-11.21-5.53-11.21-12.59,0-9.21,6.5-16.07,14.23-16.07,3.89,0,6.6,1.64,8.29,4.61l1.48-3.84h9.67l-3.79,24.77c-1.69,10.54-9.06,15.66-18.58,15.66ZM180.85,157.71c3.33,0,5.53-2.81,5.53-5.63,0-2.56-1.79-4.3-4.25-4.3-3.33,0-5.53,2.76-5.53,5.68,0,2.56,1.74,4.25,4.25,4.25Z"/>
        <path class="cls-1" d="M204.49,139.03h10.95l-4.4,28.86h-10.95l4.4-28.86ZM211.09,125.77c3.12,0,5.68,2.51,5.68,5.63s-2.56,5.63-5.68,5.63-5.68-2.51-5.68-5.63,2.51-5.63,5.68-5.63Z"/>
        <path class="cls-1" d="M229.36,139.03l.41,3.74h.1c2.41-3.33,5.37-4.55,8.09-4.55.87,0,1.84.15,2.46.41l-1.54,9.98c-1.02-.21-2-.31-2.92-.31-3.43,0-5.94,1.64-6.7,6.81l-1.84,12.79h-10.95l4.4-28.86h8.5Z"/>
        <path class="cls-1" d="M269.18,167.89h-9.42l-.31-4.04c-2.46,3.28-5.32,4.86-8.91,4.86-6.14,0-10.8-5.12-10.8-13.15,0-10.03,6.6-17.35,14.28-17.35,3.68,0,6.45,1.69,8.14,4.66l1.48-3.84h9.93l-4.4,28.86ZM255.1,159.04c3.48,0,5.53-3.17,5.53-6.35,0-2.87-1.69-4.76-4.4-4.76-3.43,0-5.53,3.12-5.53,6.35,0,2.87,1.69,4.76,4.4,4.76Z"/>
        <path class="cls-1" d="M288.32,139.03l.15,4.04c2.15-3.07,5.48-4.86,9.06-4.86,5.88,0,10.54,5.17,10.54,13,0,10.24-6.91,17.5-14.28,17.5-3.22,0-6.19-1.69-7.63-4.66l-2.25,14.59h-10.95l6.04-39.61h9.31ZM291.69,158.98c3.58,0,5.58-3.22,5.58-6.4,0-2.82-1.54-4.71-4.35-4.71-3.48,0-5.58,3.12-5.58,6.29,0,2.87,1.59,4.81,4.35,4.81Z"/>
      </g>
    </g>
  </g>
</svg>