<?xml version="1.0" encoding="UTF-8"?>
<svg id="Layer_2" xmlns="http://www.w3.org/2000/svg" viewBox="0 0 307.69 112">
  <g id="Layer_1-2" data-name="Layer_1">
    <g>
      <g>
        <path d="M288.12,69.14c1.57,0,4.42.71,5.85,1.1.54.15,1.11,0,1.51-.4l.7-.7c-2.69-2.69-8.06,0-8.06,0Z"/>
        <path d="M300.88,68.47c.67-8.73-17.45-6.71-17.45-6.71,0,0-2.69-4.03,1.34-9.4s5.37-12.08-2.69-20.14c-8.06-8.06-6.71-18.8-6.71-18.8-9.04,5.16-1.93,17.76-1.38,18.74-5.33-5.36-6.67-12.03-6.67-12.03-6.55,6.55,3.53,15.67,4.01,16.1-8.04-4.01-9.38-9.38-9.38-9.38-3.92,7.85,4.9,15.69,5.36,16.1-4.03-1.34-8.04-8.04-8.04-8.04-1.34,6.71,6.04,14.1,6.04,14.1-4.03,1.34-7.38-6.04-7.38-6.04.67,19.47,13.43,24.17,13.43,24.17,0,0-9.4,0-14.77-14.77-5.37-14.77-12.08-16.11-21.48-20.14C208.24,20.14,197.5,0,197.5,0c-6.54,11.76,12.36,26.06,13.39,26.82-12.07-5.37-24.13-18.77-24.13-18.77,0,19.51,26.46,26.42,28.11,26.84-17.4-2.7-25.43-9.38-25.43-9.38,1.34,14.77,29.54,18.8,29.54,18.8-13.43,1.34-24.17-5.37-24.17-5.37,4.03,13.43,28.19,13.43,28.19,13.43-6.71,2.69-21.48-1.34-21.48-1.34,6.71,12.08,26.85,8.06,26.85,8.06-4.03,4.03-18.8,2.69-18.8,2.69,8.06,10.74,22.82,4.03,22.82,4.03-4.03,4.03-14.77,4.03-14.77,4.03,5.16,7.75,17.78,1.84,18.74,1.38-2.74,2.69-10.69,5.33-10.69,5.33,3.95,5.26,14.32.21,14.75.01-2.69,4.01-6.7,4.01-6.7,4.01,3.93,3.93,13-1.1,13.41-1.33-10.75,9.4-44.29,21.47-44.29,21.47,6.71,9.4,22.82-2.69,22.82-2.69-5.37,6.71-13.43,8.06-13.43,8.06,10.47,7.85,20.94-7.26,21.47-8.03-2.7,5.37-10.06,12.73-10.06,12.73,18.8-2.69,18.12-12.75,18.12-12.75,2.69,5.37-5.37,10.74-5.37,10.74,13.43-2.69,12.08-10.74,12.08-10.74,24.17,1.34,24.4-8.46,38.26-16.78,13.43-8.06,17.45,1.34,17.45,1.34,9.4-10.74-3.36-14.1-3.36-14.1ZM304.23,78.54c-8.06-8.06-22.27,2.11-22.82,2.69,4.03-8.06-6.04-.67-6.04-.67,8.06-6.71-1.34-5.37-1.34-5.37,6.71-4.03,0-4.4,0-4.4,9.4-3.05.67-4.32.67-4.32,0,0,10.74-4.03,19.47-2.01,4.67,1.07,4.78,3.28,4.42,4.5-.13.47.16.93.62,1.03.67.17,1.71.46,3.02,1.18,6.04,3.36,2.01,7.38,2.01,7.38Z"/>
      </g>
      <g>
        <path d="M.82,94.29l5.83-38.23h11.16l-2.2,14.28h11.98l2.2-14.28h11.16l-5.83,38.23h-11.16l2.1-13.87h-11.98l-2.1,13.87H.82Z"/>
        <path d="M45.55,65.43h10.95l-4.4,28.86h-10.95l4.4-28.86ZM52.15,52.17c3.12,0,5.68,2.51,5.68,5.63s-2.56,5.63-5.68,5.63-5.68-2.51-5.68-5.63,2.51-5.63,5.68-5.63Z"/>
        <path d="M69.8,105.86c-4.04,0-9.06-1.43-12.38-4.2l1.59-10.03c3.33,3.38,6.96,4.91,10.44,4.91s7.22-1.48,7.83-5.37l.21-1.28c-1.59,1.84-4.3,3.43-7.78,3.43-6.86,0-11.21-5.53-11.21-12.59,0-9.21,6.5-16.07,14.23-16.07,3.89,0,6.6,1.64,8.29,4.61l1.48-3.84h9.67l-3.79,24.77c-1.69,10.54-9.06,15.66-18.58,15.66ZM73.9,84.11c3.33,0,5.53-2.81,5.53-5.63,0-2.56-1.79-4.3-4.25-4.3-3.33,0-5.53,2.76-5.53,5.68,0,2.56,1.74,4.25,4.25,4.25Z"/>
        <path d="M97.54,65.43h10.95l-4.4,28.86h-10.95l4.4-28.86ZM104.14,52.17c3.12,0,5.68,2.51,5.68,5.63s-2.56,5.63-5.68,5.63-5.68-2.51-5.68-5.63,2.51-5.63,5.68-5.63Z"/>
        <path d="M122.41,65.43l.41,3.74h.1c2.41-3.33,5.37-4.55,8.09-4.55.87,0,1.84.15,2.46.41l-1.54,9.98c-1.02-.21-2-.31-2.92-.31-3.43,0-5.94,1.64-6.7,6.81l-1.84,12.79h-10.95l4.4-28.86h8.5Z"/>
        <path d="M162.23,94.29h-9.42l-.31-4.04c-2.46,3.28-5.32,4.86-8.91,4.86-6.14,0-10.8-5.12-10.8-13.15,0-10.03,6.6-17.35,14.28-17.35,3.68,0,6.45,1.69,8.14,4.66l1.48-3.84h9.93l-4.4,28.86ZM148.15,85.44c3.48,0,5.53-3.17,5.53-6.35,0-2.87-1.69-4.76-4.4-4.76-3.43,0-5.53,3.12-5.53,6.35,0,2.87,1.69,4.76,4.4,4.76Z"/>
        <path d="M181.37,65.43l.15,4.04c2.15-3.07,5.48-4.86,9.06-4.86,5.88,0,10.54,5.17,10.54,13,0,10.24-6.91,17.5-14.28,17.5-3.22,0-6.19-1.69-7.63-4.66l-2.25,14.59h-10.95l6.04-39.61h9.31ZM184.75,85.39c3.58,0,5.58-3.22,5.58-6.4,0-2.82-1.54-4.71-4.35-4.71-3.48,0-5.58,3.12-5.58,6.29,0,2.87,1.59,4.81,4.35,4.81Z"/>
      </g>
    </g>
  </g>
</svg>