<?xml version="1.0" encoding="UTF-8"?>
<svg id="Layer_2" xmlns="http://www.w3.org/2000/svg" viewBox="0 0 408.33 257">
  <g id="Layer_1-2" data-name="Layer_1">
    <g>
      <path d="M302.57,231.19c-.04.46-.45.81-.92.81H106.84c-.46,0-.87-.35-.91-.81-.04-.4.07-.88.4-1.47.02-.03.04-.06.06-.09.28-.5.72-1.07,1.34-1.72l11.59-14.9h.01c.1-.2,6.22-11.01,32-11.01h105.84c25.78,0,31.9,10.81,32,11h.01s11.59,14.91,11.59,14.91c.62.65,1.06,1.22,1.34,1.72.02.03.04.06.06.09.33.59.44,1.07.4,1.47Z"/>
      <path d="M387.08,94c-8.04-5-19.09-7-19.09-10s4.02-1,17.08-4c13.06-1,20.09-7,20.09-7,0,0,4.02-5,3.01-10s-7.03-6-7.03-6c0,0-5.02-3-15.07-4-18.08-2-18.08,9-18.08,9,0,0-1,11-6.03,12s-7.03-8-7.03-8c0,0-4.02-9-11.05-21-7.03-12-17.08-24-17.08-24,0,0-6.03-7-31.14-14C261.59.22,206.76,0,203.41,0c0,0,1.62,0,1.51,0-3.37,0-58.19.22-92.25,7-25.11,7-31.14,14-31.14,14,0,0-10.05,12-17.08,24s-11.05,21-11.05,21c0,0-2.01,9-7.03,8-5.02-1-6.03-12-6.03-12,0,0,0-11-18.08-9-10.05,1-15.07,4-15.07,4,0,0-6.03,1-7.03,6s3.01,10,3.01,10c0,0,7.03,6,20.09,7,13.06,3,17.08,1,17.08,4s-11.05,5-19.09,10-13.06,10-15.07,14c-2.01,4-5.02,21.55-5.02,21.55v115.45s0,5,3.01,8c3.01,3,7.03,4,7.03,4h49.22s5.02-2,7.03-4,2.7-8.28,2.7-8.28v-4.72h-30.69c-15.69,0-26.19-14.43-26.59-22.02-.03-.69.83-1.03,1.26-.47,2.46,3.2,5.74,5.78,9.13,7.84,7.4,4.49,15.98,6.65,24.63,6.65h30.85c13.21,0,17.43-6.77,17.57-6.99t.01-.02c.18-.18,5.23-5.27,17.99-19.99,12.95-14.94,34.55-13.02,34.72-13h110.4c.17-.02,21.77-1.94,34.72,13,12.76,14.72,17.81,19.81,17.99,19.99t.01.02c.14.22,4.36,6.99,17.57,6.99h30.69c8.65,0,17.23-2.16,24.63-6.65,3.39-2.06,6.67-4.64,9.13-7.84.43-.56,1.29-.22,1.26.47-.4,7.59-10.9,22.02-26.59,22.02h-30.69v4.72s.69,6.28,2.7,8.28,7.03,4,7.03,4h49.22s4.02-1,7.03-4,3.01-8,3.01-8v-115.45s-3.01-17.55-5.02-21.55-7.03-9-15.07-14ZM103.36,158.99c-3.24-.09-10.81-1.42-32.03-3.99-33-4-41-9-46-31s8-14,10-13,24,13,47,24c16.86,8.06,21.9,16.67,23.39,20.68.6,1.63-.63,3.36-2.36,3.31ZM293.06,138.44c.34-.71,11.41-23.55,31.3-44.42,0,0-62.63-2.02-120.2-2.02s-120.04,2.02-120.04,2.02c19.89,20.88,30.96,43.72,31.3,44.42-27.27-33.32-60.6-54.53-60.6-54.53,32.26,3.59,128.12,2.4,149.33,2.08h.16c21.23.32,117.07,1.5,149.33-2.08,0,0-33.32,21.2-60.6,54.53ZM383.17,124c-5,22-13,27-46,31-21.22,2.57-28.79,3.9-32.03,3.99-1.73.05-2.96-1.68-2.36-3.31,1.49-4.01,6.53-12.62,23.39-20.68,23-11,45-23,47-24s15-9,10,13Z"/>
    </g>
  </g>
</svg>