<?xml version="1.0" encoding="UTF-8"?>
<svg id="Layer_2" xmlns="http://www.w3.org/2000/svg" viewBox="0 0 204.16 257">
  <g id="Layer_1-2" data-name="Layer_1">
    <path d="M6.16,108c-2,4-5,21.55-5,21.55v115.45s0,5,3.01,8,7.03,4,7.03,4h49.22s5.02-2,7.03-4,2.7-8.28,2.7-8.28v-4.72s-31,0-31,0c-15.69,0-26.19-14.43-26.59-22.02-.03-.69.83-1.03,1.26-.47,2.46,3.2,5.74,5.78,9.13,7.84,7.4,4.49,15.98,6.65,24.63,6.65h31c13.21,0,17.43-6.77,17.57-6.99t.01-.02c.18-.18,5.23-5.27,17.99-19.99,12.95-14.94,34.55-13.02,34.72-13h.01s55.27,0,55.27,0v-97.64c-37.77,2.38-119-.36-119-.36,19.69,20.67,30.65,43.28,30.99,43.98-27-32.99-59.99-53.98-59.99-53.98,32.02,3.56,127.31,2.37,148,2.06V0s-57,0-92,7c-25,7-31,14-31,14,0,0-10,12-17,24s-11,21-11,21c0,0-2,9-7,8s-6-12-6-12c0,0,0-11-18-9-10,1-15,4-15,4,0,0-6,1-7,6s3,10,3,10c0,0,7,6,20,7,13,3,17,1,17,4s-11,5-19,10-13,10-15,14ZM35.16,111c2,1,24,13,47,24,16.86,8.06,21.9,16.67,23.39,20.68.6,1.63-.63,3.36-2.36,3.31-3.24-.09-10.81-1.42-32.03-3.99-33-4-41-9-46-31s8-14,10-13ZM105.76,231.19c.05.46.45.81.92.81h97.48s0-30,0-30h-53c-25.78,0-31.9,10.81-32,11h-.01s-11.59,14.91-11.59,14.91c-.62.65-1.06,1.22-1.34,1.72-.02.03-.04.06-.06.09-.33.59-.44,1.07-.4,1.47Z"/>
  </g>
</svg>