<?xml version="1.0" encoding="UTF-8"?>
<svg id="Layer_2" xmlns="http://www.w3.org/2000/svg" viewBox="0 0 198.66 256.98">
  <g id="Layer_1-2" data-name="Layer_1">
    <g>
      <path d="M80.99,147.98s23,0,30,2c10.76,3.07,19,10.29,19,16,0,13-2,23-15,23H4.81c-1.83,0-3.44,0-4.81,0v-35c6.99,0,11-6,27.72-6h53.27Z"/>
      <path d="M80.06,6c39.97,4,55.96,12.99,69.95,26.98,13.99,13.99,12.99,37.97,12.99,37.97v12.32c0,1.16-.78,2.17-1.9,2.47-3,.79-7.27,2.32-13.11,5.24-5,2.5-8.72,6.66-11.44,10.98-4.41,6.99-6.55,15.17-6.55,23.43v23.85c0,1-1.15,1.56-1.93.93-4.13-3.3-15.04-10.19-34.05-10.19h-61.54c-.28,0-19.34,1.21-29.56,5.28C1.98,145.63.99,145.81,0,145.79V0c23.09,0,40.08,2,80.06,6Z"/>
      <path d="M126.56,198.03c2.64-1.06,5.44-2.66,7.44-5.06,5.01-6,5-12,5-12v-55s0-26,23.99-31h.02c13.99,0,16.99,2,16.99,2,20.99,8,18.58,22,18.58,34.59.18,7.74-4.06,12.86-8.83,16.17-8.12,5.63-12.75,15.07-12.75,24.95v31.3c0,19-12.99,28-21.99,28-7,0-6,2-6,3s5.82,18.76,5.82,18.76c.5,1.61-.7,3.24-2.38,3.24h-14.43c-7.25,0-16.1-16.2-19.28-22.52-.77-1.52-2.33-2.48-4.03-2.48H0v-32h115.92c3.64,0,7.27-.6,10.64-1.95Z"/>
    </g>
  </g>
</svg>