<?xml version="1.0" encoding="UTF-8"?>
<svg id="Layer_2" xmlns="http://www.w3.org/2000/svg" viewBox="0 0 198.66 256.98">
  <g id="Layer_1-2" data-name="Layer_1">
    <g>
      <path d="M117.67,147.98s-23,0-30,2c-10.76,3.07-19,10.29-19,16,0,13,2,23,15,23h114.99v-35c-6.99,0-11-6-27.72-6h-53.27Z"/>
      <path d="M118.61,6c-39.97,4-55.96,12.99-69.95,26.98-13.99,13.99-12.99,37.97-12.99,37.97v12.32c0,1.16.78,2.17,1.9,2.47,3,.79,7.27,2.32,13.11,5.24,5,2.5,8.72,6.66,11.44,10.98,4.41,6.99,6.55,15.17,6.55,23.43v23.85c0,1,1.15,1.56,1.93.93,4.13-3.3,15.04-10.19,34.05-10.19h61.54c.28,0,19.34,1.21,29.56,5.28.94.37,1.93.55,2.92.53V0c-23.09,0-40.08,2-80.06,6Z"/>
      <path d="M72.1,198.03c-2.64-1.06-5.44-2.66-7.44-5.06-5.01-6-5-12-5-12v-55s0-26-23.99-31h-.02c-13.99,0-16.99,2-16.99,2C-2.32,104.98.08,118.97.08,131.56c-.18,7.74,4.06,12.86,8.83,16.17,8.12,5.63,12.75,15.07,12.75,24.95v31.3c0,19,12.99,28,21.99,28,7,0,6,2,6,3s-5.82,18.76-5.82,18.76c-.5,1.61.7,3.24,2.38,3.24h14.43c7.25,0,16.1-16.2,19.28-22.52.77-1.52,2.33-2.48,4.03-2.48h114.72v-32h-115.92c-3.64,0-7.27-.6-10.64-1.95Z"/>
    </g>
  </g>
</svg>