<?xml version="1.0" encoding="UTF-8"?>
<svg id="Layer_2" xmlns="http://www.w3.org/2000/svg" viewBox="0 0 397.33 256.98">
  <g id="Layer_1-2" data-name="Layer_1">
    <g>
      <path d="M309.85,149.98c-7-2-30-2-30-2h-53.27c-16.91,0-20.91,6-27.91,6s-11-6-27.73-6h-53.27s-23,0-30,2c-10.76,3.07-19,10.29-19,16,0,13,2,23,15,23h230.18c13,0,15-10,15-23,0-5.71-8.24-12.93-19-16Z"/>
      <path d="M35.66,83.27c0,1.16.78,2.17,1.9,2.47,3,.79,7.27,2.32,13.11,5.24,5,2.5,8.72,6.66,11.44,10.98,4.41,6.99,6.55,15.17,6.55,23.43v23.85c0,1,1.15,1.56,1.93.93,4.13-3.3,15.04-10.19,34.05-10.19h61.54c4.48,0,19.34,1.21,29.56,5.28,1.91.76,4.03.7,5.9-.15,8.75-3.95,19.14-5.13,24.08-5.13h66.96c16.62,0,27.05,5.27,32.17,8.8,1.61,1.11,3.81-.07,3.81-2.03v-21.37c0-8.26,2.14-16.44,6.55-23.43,2.72-4.31,6.44-8.47,11.44-10.98,5.12-2.56,9.03-4.05,11.94-4.91,1.83-.54,3.07-2.25,3.07-4.16v-10.96s1-23.98-12.99-37.97-29.98-22.98-69.95-26.98C238.75,2,221.76,0,198.66,0s-40.08,2-80.06,6c-39.97,4-55.96,12.99-69.95,26.98-13.99,13.99-12.99,37.97-12.99,37.97v12.32Z"/>
      <path d="M378.66,96.98s-3-2-16.99-2h-.02c-23.99,5-23.99,31-23.99,31v55s.09,6.9-5,12c-2.34,2.34-5.68,4-8.62,5.13-3.34,1.27-6.9,1.88-10.47,1.88H82.74c-3.64,0-7.27-.6-10.64-1.95-2.64-1.06-5.44-2.66-7.44-5.06-5.01-6-5-12-5-12v-55s0-26-23.99-31h-.02c-13.99,0-16.99,2-16.99,2C-2.32,104.98.08,118.97.08,131.56c-.18,7.74,4.06,12.86,8.83,16.17,8.12,5.63,12.75,15.07,12.75,24.95v31.3c0,19,12.99,28,21.99,28,7,0,6,2,6,3s-5.82,18.76-5.82,18.76c-.5,1.61.7,3.24,2.38,3.24h14.43c7.25,0,16.1-16.2,19.28-22.52.77-1.52,2.33-2.48,4.03-2.48h229.44c1.7,0,3.26.96,4.03,2.48,3.18,6.32,12.03,22.52,19.28,22.52h14.43c1.68,0,2.88-1.63,2.38-3.24,0,0-5.82-17.76-5.82-18.76s-1-3,6-3c8.99,0,21.99-9,21.99-28v-31.3c0-9.88,4.63-19.32,12.75-24.95,4.77-3.31,9.01-8.43,8.83-16.17,0-12.59,2.41-26.59-18.58-34.59Z"/>
    </g>
  </g>
</svg>