<?xml version="1.0" encoding="UTF-8"?>
<svg id="Layer_2" xmlns="http://www.w3.org/2000/svg" viewBox="0 0 54.62 36.63">
  <defs>
    <style>
      .cls-1 {
        fill: #0a5ebf;
      }
    </style>
  </defs>
  <g id="Layer_1-2" data-name="Layer_1">
    <g>
      <path class="cls-1" d="M0,36.63L5.59,0h10.69l-2.11,13.68h11.47L27.75,0h10.69l-5.59,36.63h-10.69l2.01-13.29h-11.47l-2.01,13.29H0Z"/>
      <path class="cls-1" d="M22.25,36.63L27.84,0h12.75c9.02,0,14.02,4.41,14.02,11.28,0,5.74-3.48,10.4-9.27,12.55l7.89,12.8h-12.31l-5.69-11.52h-.49l-1.77,11.52h-10.74ZM37.5,17.31c3.63,0,6.13-1.42,6.13-4.22,0-2.35-1.77-3.43-5.1-3.43h-1.42l-1.18,7.65h1.57Z"/>
    </g>
  </g>
</svg>