<?xml version="1.0" encoding="UTF-8"?>
<svg id="Layer_2" xmlns="http://www.w3.org/2000/svg" viewBox="0 0 324 233.98">
  <defs>
    <style>
      .cls-1 {
        fill: #add84f;
      }

      .cls-2 {
        fill: #0a5ebf;
      }
    </style>
  </defs>
  <g id="Layer_1-2" data-name="Layer_1">
    <g>
      <g>
        <path class="cls-2" d="M269.37,56.1c-4.78-2.98-11.34-4.18-11.34-5.97s2.38-.6,10.11-2.38c.03,0,.06-.01.09-.01,7.21-.57,11.32-3.71,11.84-4.13.04-.03.07-.07.1-.11.33-.43,2.29-3.17,1.74-5.91-.54-2.71-3.54-3.45-4.09-3.56-.06-.01-.11-.03-.16-.06-.5-.28-3.46-1.8-8.88-2.34-10.74-1.19-10.74,5.37-10.74,5.37,0,0-.6,6.57-3.58,7.16-2.82.56-4.04-4.19-4.17-4.73,0-.04-.02-.06-.03-.1-.24-.54-2.59-5.72-6.54-12.49-4.18-7.16-10.15-14.33-10.15-14.33,0,0-2.15-2.51-10.07-5.58-4.72-1.83-9.64-3.1-14.65-3.85C191.49.5,169.17.07,162.27,0c-1.18-.01-2.13.94-2.13,2.12v46.92c0,1.29,1.03,2.33,2.31,2.35,15.24.21,63.45.7,83.47-1.01.67-.06.98.8.43,1.18-4.9,3.38-17.42,12.55-29.2,25.59-.58.65-1.6-.1-1.15-.85,2.91-4.9,7.68-12.1,14.12-19.07.39-.42.09-1.11-.48-1.09-8.11.22-46.08,1.15-66.94.1-1.39-.07-2.54,1.04-2.54,2.42v53.17c0,1.53,1.24,2.77,2.77,2.77h30.23c.1-.01,12.99-1.16,20.73,7.76,7.62,8.79,10.63,11.83,10.74,11.93t0,.01c.08.13,2.6,4.17,10.49,4.17h18.5c5.16,0,10.28-1.29,14.7-3.97,2.02-1.23,3.98-2.77,5.45-4.68.26-.33.77-.13.75.28-.24,4.53-6.51,13.14-15.87,13.14h-17.85c-.36,0-.65.29-.65.65v2.13s0,.05,0,.07c.05.38.48,3.78,1.61,4.91.22.22.51.45.83.66,1.72,1.16,3.76,1.72,5.84,1.72h25.03c2.07,0,4.12-.66,5.68-2.02.13-.12.27-.24.39-.37,1.8-1.79,1.8-4.78,1.8-4.78v-62.28c0-5.32-.59-10.63-1.85-15.8-.39-1.61-.79-3-1.14-3.69-1.19-2.39-4.18-5.37-8.95-8.36ZM266.98,74.01c-2.98,13.13-7.76,16.12-27.46,18.5-12.67,1.53-17.19,2.33-19.12,2.38-1.03.03-1.77-1-1.41-1.98.89-2.39,3.9-7.53,13.96-12.34,13.73-6.57,26.86-13.73,28.06-14.33s8.95-5.37,5.97,7.76ZM218.63,137.11s-.02-.04-.04-.05c-.17-.3-.43-.64-.8-1.03l-6.92-8.89h0c-.06-.12-3.71-6.57-19.1-6.57h-29.17c-1.36,0-2.47,1.11-2.47,2.47v13.63c0,1,.81,1.81,1.81,1.81h55.88c.7,0,1.14-.75.8-1.36h0Z"/>
        <g>
          <path class="cls-1" d="M104.52,88.92s-14.1,0-18.39,1.17c-6.6,1.79-11.65,6-11.65,9.33,0,7.58,1.23,15.17,9.19,15.17h68.18c1.27,0,2.31-1.03,2.31-2.31v-18.55c0-.83-.44-1.6-1.16-2.01-4.98-2.8-9.16-2.8-15.83-2.8h-32.65Z"/>
          <path class="cls-1" d="M105.09,3.57c-24.5,2.39-34.3,7.76-42.88,16.11-8.58,8.35-7.96,22.67-7.96,22.67v7.35c0,.69.48,1.3,1.17,1.47,1.84.47,4.46,1.39,8.03,3.13,3.06,1.49,5.35,3.98,7.01,6.55,2.7,4.17,4.01,9.05,4.01,13.98v14.24c0,.6.7.93,1.18.56,2.53-1.97,9.22-6.08,20.87-6.08h37.72c.14,0,10.96,0,16.97,2.16,1.44.51,2.94-.69,2.94-2.22V2.31C154.16,1.02,153.11-.01,151.83,0c-13.03.13-23.6,1.31-46.74,3.57Z"/>
          <path class="cls-1" d="M72.02,115.18c-3.07-3.58-3.06-7.16-3.06-7.16v-32.83s0-15.52-14.7-18.5h-.01c-8.58,0-10.41,1.19-10.41,1.19-12.87,4.78-11.39,13.13-11.39,20.65-.11,4.62,2.49,7.68,5.41,9.65,4.98,3.36,7.82,9,7.82,14.89v18.68c0,11.34,7.96,16.72,13.48,16.72,4.29,0,3.68,1.19,3.68,1.79s-3.57,11.2-3.57,11.2c-.31.96.43,1.93,1.46,1.93h8.85c4.44,0,9.87-9.67,11.82-13.44.47-.91,1.43-1.48,2.47-1.48h68.01c1.27,0,2.31-1.03,2.31-2.31v-13.3c0-1.27-1.03-2.31-2.31-2.31h-68.75c-6.18,0-9.85-3.95-11.08-5.38Z"/>
        </g>
      </g>
      <g>
        <g>
          <path class="cls-2" d="M0,220.15l6.97-45.68h13.33l-2.63,17.06h14.31l2.63-17.06h13.33l-6.97,45.68h-13.33l2.51-16.57h-14.31l-2.51,16.57H0Z"/>
          <path class="cls-2" d="M53.45,185.66h13.09l-5.26,34.49h-13.09l5.26-34.49ZM61.34,169.82c3.73,0,6.79,3,6.79,6.73s-3.06,6.73-6.79,6.73-6.79-3-6.79-6.73,3-6.73,6.79-6.73Z"/>
          <path class="cls-2" d="M82.44,233.98c-4.83,0-10.82-1.71-14.8-5.01l1.9-11.99c3.98,4.04,8.32,5.87,12.48,5.87s8.62-1.77,9.36-6.42l.24-1.53c-1.9,2.2-5.14,4.1-9.3,4.1-8.19,0-13.39-6.61-13.39-15.04,0-11.01,7.77-19.2,17-19.2,4.65,0,7.89,1.96,9.91,5.5l1.77-4.59h11.56l-4.53,29.6c-2.02,12.6-10.82,18.71-22.2,18.71ZM87.33,207.98c3.98,0,6.61-3.36,6.61-6.73,0-3.06-2.14-5.14-5.08-5.14-3.98,0-6.61,3.3-6.61,6.79,0,3.06,2.08,5.08,5.08,5.08Z"/>
          <path class="cls-2" d="M115.58,185.66h13.09l-5.26,34.49h-13.09l5.26-34.49ZM123.47,169.82c3.73,0,6.79,3,6.79,6.73s-3.06,6.73-6.79,6.73-6.79-3-6.79-6.73,3-6.73,6.79-6.73Z"/>
        </g>
        <g>
          <path class="cls-2" d="M135.09,220.15l6.97-45.68h15.9c11.25,0,17.49,5.5,17.49,14.07,0,7.16-4.34,12.97-11.56,15.66l9.85,15.96h-15.35l-7.09-14.37h-.61l-2.2,14.37h-13.39ZM154.11,196.06c4.53,0,7.64-1.77,7.64-5.26,0-2.94-2.2-4.28-6.36-4.28h-1.77l-1.47,9.54h1.96Z"/>
          <path class="cls-2" d="M212.76,220.15h-11.25l-.37-4.83c-2.94,3.91-6.36,5.81-10.64,5.81-7.34,0-12.9-6.12-12.9-15.72,0-11.99,7.89-20.73,17.06-20.73,4.4,0,7.71,2.02,9.72,5.57l1.77-4.59h11.86l-5.26,34.49ZM195.94,209.57c4.16,0,6.61-3.79,6.61-7.58,0-3.42-2.02-5.69-5.26-5.69-4.1,0-6.61,3.73-6.61,7.58,0,3.42,2.02,5.69,5.26,5.69Z"/>
          <path class="cls-2" d="M235.63,185.66l.18,4.83c2.57-3.67,6.54-5.81,10.82-5.81,7.03,0,12.6,6.18,12.6,15.53,0,12.23-8.26,20.92-17.06,20.92-3.85,0-7.4-2.02-9.11-5.57l-2.69,17.43h-13.09l7.22-47.34h11.13ZM239.67,209.51c4.28,0,6.67-3.85,6.67-7.64,0-3.36-1.83-5.63-5.2-5.63-4.16,0-6.67,3.73-6.67,7.52,0,3.42,1.9,5.75,5.2,5.75Z"/>
          <path class="cls-2" d="M266.64,185.66h13.09l-5.26,34.49h-13.09l5.26-34.49ZM274.53,169.82c3.73,0,6.79,3,6.79,6.73s-3.06,6.73-6.79,6.73-6.79-3-6.79-6.73,3-6.73,6.79-6.73Z"/>
          <path class="cls-2" d="M316.48,220.15h-11.5l-.31-4.83c-2.69,3.85-6.18,5.81-10.21,5.81-7.03,0-12.72-6.18-12.72-15.59,0-12.23,8.75-20.85,16.63-20.85,4.1,0,7.95,2.08,9.6,5.44l2.94-19.26h13.09l-7.52,49.29ZM300.03,209.57c4.16,0,6.67-3.73,6.67-7.52,0-3.42-1.9-5.75-5.2-5.75-4.28,0-6.67,3.85-6.67,7.64,0,3.36,1.83,5.63,5.2,5.63Z"/>
        </g>
      </g>
    </g>
  </g>
</svg>