<?xml version="1.0" encoding="UTF-8"?>
<svg id="Layer_2" xmlns="http://www.w3.org/2000/svg" viewBox="0 0 312.39 191.98">
  <defs>
    <style>
      .cls-1 {
        fill: #50d9b2;
      }

      .cls-2 {
        fill: #0a5ebf;
      }
    </style>
  </defs>
  <g id="Layer_1-2" data-name="Layer_1">
    <g>
      <path class="cls-1" d="M296.58,70.21c-5.98-3.74-14.19-5.23-14.19-7.47s2.98-.75,12.65-2.98c.03,0,.07-.01.11-.02,9.02-.71,14.16-4.64,14.82-5.17.05-.04.09-.08.13-.13.41-.54,2.87-3.97,2.18-7.4-.68-3.39-4.43-4.32-5.12-4.46-.07-.02-.14-.04-.21-.08-.63-.35-4.33-2.26-11.11-2.93-13.45-1.49-13.45,6.72-13.45,6.72,0,0-.75,8.22-4.48,8.96-3.53.71-5.05-5.24-5.22-5.92-.01-.05-.02-.08-.04-.12-.31-.68-3.25-7.15-8.19-15.63-5.23-8.96-12.7-17.93-12.7-17.93,0,0-2.69-3.14-12.6-6.99-5.91-2.3-12.07-3.88-18.34-4.81C199.11.63,171.19.09,162.54,0c-1.47-.02-2.67,1.18-2.67,2.65v58.73c0,1.61,1.29,2.92,2.9,2.94,19.07.26,79.4.88,104.46-1.27.83-.07,1.23,1,.54,1.48-6.13,4.23-21.8,15.71-36.54,32.03-.73.81-2-.13-1.44-1.06,3.64-6.13,9.62-15.14,17.67-23.87.49-.53.11-1.39-.61-1.37-10.14.27-57.67,1.44-83.78.13-1.73-.09-3.18,1.3-3.18,3.03v66.54c0,1.91,1.55,3.46,3.46,3.46h37.83c.13-.01,16.26-1.45,25.94,9.71,9.53,11,13.31,14.8,13.44,14.93t0,.01c.1.16,3.26,5.22,13.13,5.22h23.16c6.46,0,12.87-1.61,18.4-4.97,2.53-1.54,4.98-3.47,6.82-5.86.32-.42.96-.16.94.35-.3,5.67-8.14,16.45-19.86,16.45h-22.34c-.45,0-.81.36-.81.81v2.66s0,.06,0,.09c.06.48.6,4.73,2.01,6.14.28.28.64.56,1.04.83,2.15,1.45,4.71,2.16,7.3,2.16h31.33c2.59,0,5.15-.83,7.11-2.53.17-.15.33-.3.49-.46,2.25-2.24,2.25-5.98,2.25-5.98v-77.95c0-6.66-.74-13.31-2.31-19.78-.49-2.02-.99-3.75-1.42-4.62-1.49-2.99-5.23-6.72-11.21-10.46ZM293.59,92.62c-3.74,16.44-9.71,20.17-34.36,23.16-15.85,1.92-21.51,2.91-23.93,2.98-1.29.04-2.21-1.26-1.76-2.47,1.11-3,4.88-9.43,17.47-15.45,17.18-8.22,33.62-17.18,35.11-17.93s11.21-6.72,7.47,9.71ZM233.08,171.6s-.03-.04-.04-.07c-.21-.37-.54-.8-1-1.28l-8.66-11.13h0c-.07-.15-4.65-8.22-23.91-8.22h-36.5c-1.71,0-3.09,1.38-3.09,3.09v17.05c0,1.25,1.01,2.27,2.27,2.27h69.94c.87,0,1.43-.94,1.01-1.7h0Z"/>
      <g>
        <path class="cls-2" d="M90.27,111.29s-17.64,0-23.01,1.46c-8.25,2.24-14.58,7.51-14.58,11.68,0,9.49,1.53,18.98,11.51,18.98h85.33c1.59,0,2.89-1.29,2.89-2.89v-23.22c0-1.04-.55-2-1.45-2.51-6.23-3.51-11.46-3.51-19.81-3.51h-40.87Z"/>
        <path class="cls-2" d="M90.99,4.47c-30.66,2.99-42.93,9.71-53.66,20.16-10.73,10.45-9.97,28.37-9.97,28.37v9.2c0,.87.6,1.62,1.46,1.84,2.3.59,5.58,1.73,10.06,3.91,3.83,1.87,6.69,4.98,8.78,8.2,3.38,5.22,5.02,11.33,5.02,17.5v17.82c0,.75.88,1.16,1.48.7,3.17-2.46,11.54-7.61,26.12-7.61h47.21c.18,0,13.71,0,21.24,2.7,1.8.64,3.67-.86,3.67-2.78V2.89C152.4,1.28,151.08-.02,149.48,0c-16.3.16-29.54,1.65-58.49,4.47Z"/>
        <path class="cls-2" d="M49.6,144.16c-3.84-4.48-3.83-8.96-3.83-8.96v-41.09s0-19.42-18.4-23.16h-.02c-10.73,0-13.03,1.49-13.03,1.49C-1.78,78.42.06,88.87.06,98.28c-.14,5.78,3.11,9.61,6.77,12.08,6.23,4.21,9.78,11.26,9.78,18.64v23.38c0,14.2,9.97,20.92,16.87,20.92,5.37,0,4.6,1.49,4.6,2.24s-4.46,14.02-4.46,14.02c-.38,1.2.54,2.42,1.82,2.42h11.07c5.56,0,12.35-12.1,14.79-16.83.59-1.14,1.79-1.85,3.09-1.85h85.12c1.59,0,2.89-1.29,2.89-2.89v-16.64c0-1.59-1.29-2.89-2.89-2.89H63.47c-7.73,0-12.33-4.94-13.87-6.73Z"/>
      </g>
    </g>
  </g>
</svg>